Voskresensky-Regular.ufo
<glyph name="uni000F" format="2">
  <advance width="500"/>
  <unicode hex="000F"/>
  <outline>
    <contour>
      <point x="37" y="770" type="line"/>
      <point x="464" y="770" type="line"/>
      <point x="464" y="0" type="line"/>
      <point x="37" y="0" type="line"/>
    </contour>
    <contour>
      <point x="66" y="748" type="line"/>
      <point x="250" y="398" type="line"/>
      <point x="435" y="748" type="line"/>
    </contour>
    <contour>
      <point x="258" y="383" type="line"/>
      <point x="442" y="34" type="line"/>
      <point x="442" y="733" type="line"/>
    </contour>
    <contour>
      <point x="435" y="19" type="line"/>
      <point x="250" y="369" type="line"/>
      <point x="66" y="19" type="line"/>
    </contour>
    <contour>
      <point x="59" y="733" type="line"/>
      <point x="59" y="34" type="line"/>
      <point x="243" y="383" type="line"/>
    </contour>
  </outline>
</glyph>
<glyph name="exclam" format="2">
  <advance width="253"/>
  <unicode hex="0021"/>
  <outline>
    <contour>
      <point x="73.9199" y="591.36" type="curve" smooth="yes"/>
      <point x="73.9199" y="626.561"/>
      <point x="93.2803" y="656.479"/>
      <point x="126.72" y="656.479" type="curve" smooth="yes"/>
      <point x="161.92" y="656.479"/>
      <point x="179.52" y="624.8"/>
      <point x="179.52" y="586.08" type="curve" smooth="yes"/>
      <point x="177.76" y="582.561"/>
      <point x="177.76" y="579.041"/>
      <point x="177.76" y="573.761" type="curve" smooth="yes"/>
      <point x="177.76" y="556.161" type="line"/>
      <point x="135.52" y="179.521" type="line"/>
      <point x="117.92" y="179.521" type="line"/>
      <point x="75.6797" y="556.161" type="line" smooth="yes"/>
      <point x="73.9199" y="572.001"/>
      <point x="73.9199" y="582.561"/>
    </contour>
    <contour>
      <point x="73.9199" y="52.7988" type="curve" smooth="yes"/>
      <point x="73.9199" y="79.1992"/>
      <point x="98.5596" y="102.079"/>
      <point x="126.72" y="102.079" type="curve" smooth="yes"/>
      <point x="153.12" y="102.079"/>
      <point x="177.76" y="79.1992"/>
      <point x="177.76" y="52.7988" type="curve" smooth="yes"/>
      <point x="177.76" y="24.6387"/>
      <point x="153.12" y="-0.000976562"/>
      <point x="126.72" y="-0.000976562" type="curve" smooth="yes"/>
      <point x="98.5596" y="-0.000976562"/>
      <point x="73.9199" y="24.6387"/>
    </contour>
  </outline>
</glyph>
<glyph name="quotedbl" format="2">
  <advance width="378"/>
  <unicode hex="0022"/>
  <outline>
    <contour>
      <point x="265.76" y="663.52" type="curve" smooth="yes"/>
      <point x="290.399" y="663.52"/>
      <point x="306.239" y="645.922"/>
      <point x="306.239" y="619.521" type="curve" smooth="yes"/>
      <point x="306.239" y="596.642"/>
      <point x="304.479" y="570.241"/>
      <point x="299.199" y="543.841" type="curve" smooth="yes"/>
      <point x="274.56" y="422.4" type="line"/>
      <point x="255.199" y="422.4" type="line"/>
      <point x="223.52" y="593.12" type="line"/>
      <point x="223.52" y="600.16"/>
      <point x="223.52" y="607.2"/>
      <point x="223.52" y="614.239" type="curve" smooth="yes"/>
      <point x="223.52" y="644.159"/>
      <point x="235.84" y="663.52"/>
    </contour>
    <contour>
      <point x="112.64" y="663.521" type="curve" smooth="yes"/>
      <point x="137.279" y="663.521"/>
      <point x="154.881" y="644.16"/>
      <point x="154.881" y="619.521" type="curve" smooth="yes"/>
      <point x="154.881" y="594.881"/>
      <point x="149.601" y="573.761"/>
      <point x="144.32" y="543.841" type="curve" smooth="yes"/>
      <point x="123.2" y="422.4" type="line"/>
      <point x="103.84" y="422.4" type="line"/>
      <point x="80.96" y="545.601" type="line" smooth="yes"/>
      <point x="75.6797" y="579.041"/>
      <point x="72.1602" y="601.921"/>
      <point x="72.1602" y="614.241" type="curve" smooth="yes"/>
      <point x="72.1602" y="644.161"/>
      <point x="84.4805" y="663.521"/>
    </contour>
  </outline>
</glyph>
<glyph name="numbersign" format="2">
  <advance width="638"/>
  <unicode hex="0023"/>
  <outline>
    <contour>
      <point x="112.64" y="0" type="line"/>
      <point x="161.92" y="209.44" type="line"/>
      <point x="72.1602" y="209.44" type="line"/>
      <point x="72.1602" y="248.16" type="line"/>
      <point x="168.96" y="248.16" type="line"/>
      <point x="205.92" y="404.8" type="line"/>
      <point x="72.1602" y="404.8" type="line"/>
      <point x="72.1602" y="441.76" type="line"/>
      <point x="214.72" y="441.76" type="line"/>
      <point x="262.239" y="651.2" type="line"/>
      <point x="306.239" y="651.2" type="line"/>
      <point x="258.72" y="441.76" type="line"/>
      <point x="432.96" y="441.76" type="line"/>
      <point x="484" y="651.2" type="line"/>
      <point x="526.24" y="651.2" type="line"/>
      <point x="476.96" y="441.76" type="line"/>
      <point x="566.72" y="441.76" type="line"/>
      <point x="566.72" y="404.8" type="line"/>
      <point x="469.92" y="404.8" type="line"/>
      <point x="432.96" y="248.16" type="line"/>
      <point x="566.72" y="248.16" type="line"/>
      <point x="566.72" y="209.44" type="line"/>
      <point x="424.16" y="209.44" type="line"/>
      <point x="376.641" y="0" type="line"/>
      <point x="334.4" y="0" type="line"/>
      <point x="381.92" y="209.44" type="line"/>
      <point x="205.92" y="209.44" type="line"/>
      <point x="156.64" y="0" type="line"/>
    </contour>
    <contour>
      <point x="212.96" y="248.16" type="line"/>
      <point x="388.96" y="248.16" type="line"/>
      <point x="425.92" y="404.8" type="line"/>
      <point x="249.92" y="404.8" type="line"/>
    </contour>
  </outline>
</glyph>
<glyph name="dollar" format="2">
  <advance width="528"/>
  <unicode hex="0024"/>
  <outline>
    <contour>
      <point x="75.6797" y="496.32" type="curve" smooth="yes"/>
      <point x="75.6797" y="591.36"/>
      <point x="153.122" y="638.879"/>
      <point x="239.362" y="647.679" type="curve"/>
      <point x="239.362" y="689.919" type="line"/>
      <point x="269.282" y="689.919" type="line"/>
      <point x="269.282" y="647.679" type="line"/>
      <point x="278.082" y="645.919"/>
      <point x="283.362" y="645.919"/>
      <point x="288.643" y="645.919" type="curve" smooth="yes"/>
      <point x="295.683" y="645.919" type="line" smooth="yes"/>
      <point x="302.723" y="645.919"/>
      <point x="308.003" y="645.919"/>
      <point x="318.562" y="644.159" type="curve" smooth="yes"/>
      <point x="353.763" y="633.6"/>
      <point x="374.883" y="624.8"/>
      <point x="422.402" y="607.2" type="curve"/>
      <point x="422.402" y="468.16" type="line"/>
      <point x="403.042" y="468.16" type="line"/>
      <point x="403.042" y="563.2"/>
      <point x="359.042" y="616"/>
      <point x="269.282" y="616" type="curve"/>
      <point x="269.282" y="380.16" type="line"/>
      <point x="308.002" y="353.76"/>
      <point x="341.442" y="329.12"/>
      <point x="364.322" y="311.521" type="curve" smooth="yes"/>
      <point x="413.603" y="272.801"/>
      <point x="452.322" y="242.881"/>
      <point x="452.322" y="163.681" type="curve" smooth="yes"/>
      <point x="452.322" y="86.2412"/>
      <point x="401.282" y="38.7207"/>
      <point x="344.962" y="14.0811" type="curve" smooth="yes"/>
      <point x="323.842" y="3.52051"/>
      <point x="297.441" y="-5.2793"/>
      <point x="269.281" y="-5.2793" type="curve"/>
      <point x="269.281" y="-63.3594" type="line"/>
      <point x="239.361" y="-63.3594" type="line"/>
      <point x="239.361" y="-5.2793" type="line"/>
      <point x="170.722" y="-5.2793"/>
      <point x="130.241" y="10.5605"/>
      <point x="75.6807" y="31.6807" type="curve"/>
      <point x="75.6807" y="163.681" type="line"/>
      <point x="95.041" y="163.681" type="line"/>
      <point x="95.041" y="75.6807"/>
      <point x="149.601" y="26.4014"/>
      <point x="239.36" y="26.4014" type="curve"/>
      <point x="239.36" y="295.681" type="line"/>
      <point x="188.32" y="327.36"/>
      <point x="146.08" y="355.521"/>
      <point x="112.64" y="394.24" type="curve" smooth="yes"/>
      <point x="88" y="422.4"/>
      <point x="75.6797" y="450.561"/>
    </contour>
    <contour>
      <point x="239.362" y="615.999" type="line"/>
      <point x="184.803" y="608.959"/>
      <point x="147.842" y="580.8"/>
      <point x="147.842" y="526.24" type="curve" smooth="yes"/>
      <point x="147.842" y="505.12"/>
      <point x="153.122" y="484"/>
      <point x="167.202" y="462.88" type="curve" smooth="yes"/>
      <point x="181.282" y="443.52"/>
      <point x="205.922" y="422.399"/>
      <point x="239.362" y="401.279" type="curve"/>
    </contour>
    <contour>
      <point x="269.281" y="26.4004" type="line"/>
      <point x="330.881" y="36.96"/>
      <point x="378.401" y="73.9209"/>
      <point x="378.401" y="142.561" type="curve" smooth="yes"/>
      <point x="378.401" y="186.561"/>
      <point x="355.521" y="207.681"/>
      <point x="327.361" y="232.32" type="curve" smooth="yes"/>
      <point x="313.281" y="244.641"/>
      <point x="293.921" y="258.721"/>
      <point x="269.281" y="276.32" type="curve"/>
    </contour>
  </outline>
</glyph>
<glyph name="percent" format="2">
  <advance width="860"/>
  <unicode hex="0025"/>
  <outline>
    <contour>
      <point x="675.84" y="656.48" type="line"/>
      <point x="225.28" y="0" type="line"/>
      <point x="184.8" y="0" type="line"/>
      <point x="635.359" y="656.48" type="line"/>
    </contour>
    <contour>
      <point x="336.16" y="489.28" type="curve" smooth="yes"/>
      <point x="336.16" y="396"/>
      <point x="292.16" y="322.08"/>
      <point x="200.641" y="322.08" type="curve" smooth="yes"/>
      <point x="114.4" y="322.08"/>
      <point x="73.9199" y="406.561"/>
      <point x="73.9199" y="494.561" type="curve" smooth="yes"/>
      <point x="73.9199" y="566.721"/>
      <point x="109.12" y="617.761"/>
      <point x="154.88" y="644.161" type="curve" smooth="yes"/>
      <point x="168.96" y="652.961"/>
      <point x="184.8" y="656.48"/>
      <point x="200.64" y="656.48" type="curve" smooth="yes"/>
      <point x="207.68" y="656.48" type="line" smooth="yes"/>
      <point x="293.92" y="656.48"/>
      <point x="336.16" y="575.521"/>
    </contour>
    <contour>
      <point x="264" y="487.521" type="curve" smooth="yes"/>
      <point x="264" y="550.881"/>
      <point x="256.96" y="631.841"/>
      <point x="205.92" y="631.841" type="curve" smooth="yes"/>
      <point x="151.36" y="631.841"/>
      <point x="147.841" y="552.641"/>
      <point x="147.841" y="489.28" type="curve" smooth="yes"/>
      <point x="147.841" y="424.16"/>
      <point x="151.36" y="346.72"/>
      <point x="204.16" y="346.72" type="curve" smooth="yes"/>
      <point x="255.2" y="346.72"/>
      <point x="264" y="424.16"/>
    </contour>
    <contour>
      <point x="786.72" y="174.24" type="curve" smooth="yes"/>
      <point x="786.72" y="79.2002"/>
      <point x="744.479" y="-0.000976562"/>
      <point x="656.479" y="-0.000976562" type="curve" smooth="yes"/>
      <point x="568.479" y="-0.000976562"/>
      <point x="524.479" y="82.7188"/>
      <point x="524.479" y="172.479" type="curve" smooth="yes"/>
      <point x="524.479" y="242.88"/>
      <point x="557.92" y="295.68"/>
      <point x="603.68" y="320.319" type="curve" smooth="yes"/>
      <point x="619.52" y="327.359"/>
      <point x="633.6" y="332.64"/>
      <point x="649.439" y="332.64" type="curve" smooth="yes"/>
      <point x="654.72" y="332.64" type="line" smooth="yes"/>
      <point x="735.68" y="332.64"/>
      <point x="786.72" y="256.96"/>
    </contour>
    <contour>
      <point x="714.56" y="163.68" type="curve" smooth="yes"/>
      <point x="714.56" y="228.8"/>
      <point x="705.759" y="307.998"/>
      <point x="654.719" y="307.998" type="curve" smooth="yes"/>
      <point x="637.119" y="307.998"/>
      <point x="623.039" y="297.438"/>
      <point x="612.479" y="274.559" type="curve" smooth="yes"/>
      <point x="601.92" y="253.438"/>
      <point x="596.64" y="214.719"/>
      <point x="596.64" y="161.919" type="curve" smooth="yes"/>
      <point x="596.64" y="96.7988"/>
      <point x="605.439" y="24.6387"/>
      <point x="654.72" y="24.6387" type="curve" smooth="yes"/>
      <point x="672.319" y="24.6387"/>
      <point x="686.399" y="35.1992"/>
      <point x="696.959" y="58.0791" type="curve" smooth="yes"/>
      <point x="709.279" y="79.1992"/>
      <point x="714.56" y="114.399"/>
    </contour>
  </outline>
</glyph>
<glyph name="ampersand" format="2">
  <advance width="848"/>
  <unicode hex="0026"/>
  <outline>
    <contour>
      <point x="584.32" y="318.56" type="curve" smooth="yes"/>
      <point x="584.32" y="344.96"/>
      <point x="564.961" y="371.359"/>
      <point x="538.561" y="371.359" type="curve"/>
      <point x="538.561" y="390.72" type="line"/>
      <point x="740.961" y="390.72" type="line"/>
      <point x="740.961" y="371.359" type="line"/>
      <point x="689.921" y="371.359"/>
      <point x="675.841" y="359.039"/>
      <point x="652.961" y="323.839" type="curve" smooth="yes"/>
      <point x="630.081" y="288.639"/>
      <point x="598.401" y="256.959"/>
      <point x="572.001" y="218.239" type="curve" smooth="yes"/>
      <point x="556.161" y="193.6"/>
      <point x="540.321" y="170.72"/>
      <point x="522.722" y="149.6" type="curve"/>
      <point x="550.882" y="116.159"/>
      <point x="577.282" y="93.2793"/>
      <point x="598.402" y="79.1992" type="curve" smooth="yes"/>
      <point x="621.282" y="65.1191"/>
      <point x="644.162" y="59.8389"/>
      <point x="667.042" y="59.8389" type="curve" smooth="yes"/>
      <point x="716.322" y="59.8389"/>
      <point x="744.482" y="87.999"/>
      <point x="755.042" y="130.239" type="curve"/>
      <point x="774.402" y="117.919" type="line"/>
      <point x="753.282" y="42.2393"/>
      <point x="711.042" y="-14.0811"/>
      <point x="624.802" y="-14.0811" type="curve" smooth="yes"/>
      <point x="598.401" y="-14.0811"/>
      <point x="572.001" y="-7.04102"/>
      <point x="545.601" y="7.03906" type="curve" smooth="yes"/>
      <point x="517.44" y="21.1191"/>
      <point x="489.28" y="43.999"/>
      <point x="455.84" y="79.1992" type="curve"/>
      <point x="401.28" y="29.9189"/>
      <point x="344.96" y="-14.0811"/>
      <point x="246.4" y="-14.0811" type="curve" smooth="yes"/>
      <point x="167.2" y="-14.0811"/>
      <point x="110.88" y="21.1191"/>
      <point x="86.2402" y="73.9189" type="curve" smooth="yes"/>
      <point x="77.4404" y="91.5186"/>
      <point x="73.9199" y="109.119"/>
      <point x="73.9199" y="128.479" type="curve" smooth="yes"/>
      <point x="73.9199" y="214.72"/>
      <point x="123.2" y="262.239"/>
      <point x="176" y="302.72" type="curve" smooth="yes"/>
      <point x="202.4" y="323.84"/>
      <point x="234.08" y="343.2"/>
      <point x="272.8" y="364.32" type="curve"/>
      <point x="249.92" y="417.12"/>
      <point x="234.08" y="448.8"/>
      <point x="234.08" y="508.64" type="curve" smooth="yes"/>
      <point x="234.08" y="605.439"/>
      <point x="304.48" y="667.039"/>
      <point x="401.28" y="667.039" type="curve" smooth="yes"/>
      <point x="475.2" y="667.039"/>
      <point x="531.521" y="623.039"/>
      <point x="531.521" y="549.119" type="curve" smooth="yes"/>
      <point x="531.521" y="482.239"/>
      <point x="491.04" y="450.56"/>
      <point x="447.04" y="420.64" type="curve" smooth="yes"/>
      <point x="427.68" y="406.56"/>
      <point x="403.04" y="392.479"/>
      <point x="373.12" y="376.64" type="curve"/>
      <point x="411.84" y="304.479"/>
      <point x="454.08" y="239.359"/>
      <point x="499.84" y="177.76" type="curve"/>
      <point x="557.92" y="244.64"/>
      <point x="584.32" y="272.8"/>
    </contour>
    <contour>
      <point x="401.281" y="633.599" type="curve" smooth="yes"/>
      <point x="352.001" y="633.599"/>
      <point x="316.8" y="594.879"/>
      <point x="316.8" y="545.599" type="curve" smooth="yes"/>
      <point x="316.8" y="491.039"/>
      <point x="337.92" y="450.559"/>
      <point x="357.28" y="408.318" type="curve"/>
      <point x="434.721" y="443.519"/>
      <point x="475.201" y="492.799"/>
      <point x="475.201" y="552.639" type="curve" smooth="yes"/>
      <point x="475.201" y="596.639"/>
      <point x="443.521" y="633.599"/>
    </contour>
    <contour>
      <point x="174.24" y="172.479" type="curve" smooth="yes"/>
      <point x="174.24" y="98.5586"/>
      <point x="221.76" y="43.998"/>
      <point x="295.68" y="43.998" type="curve" smooth="yes"/>
      <point x="359.04" y="43.998"/>
      <point x="392.48" y="73.918"/>
      <point x="431.2" y="105.598" type="curve"/>
      <point x="371.36" y="186.558"/>
      <point x="332.641" y="242.878"/>
      <point x="288.641" y="332.638" type="curve"/>
      <point x="211.2" y="288.638"/>
      <point x="174.24" y="234.078"/>
    </contour>
  </outline>
</glyph>
<glyph name="quotesingle" format="2">
  <advance width="232"/>
  <unicode hex="0027"/>
  <outline>
    <contour>
      <point x="73.9199" y="593.12" type="line"/>
      <point x="73.9189" y="614.241" type="line" smooth="yes"/>
      <point x="73.9189" y="644.161"/>
      <point x="87.999" y="663.521"/>
      <point x="116.159" y="663.521" type="curve" smooth="yes"/>
      <point x="140.799" y="663.521"/>
      <point x="158.398" y="645.922"/>
      <point x="158.398" y="619.521" type="curve" smooth="yes"/>
      <point x="158.398" y="596.642"/>
      <point x="154.879" y="570.241"/>
      <point x="151.359" y="543.841" type="curve"/>
      <point x="126.72" y="422.4" type="line"/>
      <point x="105.6" y="422.4" type="line"/>
    </contour>
  </outline>
</glyph>
<glyph name="parenleft" format="2">
  <advance width="323"/>
  <unicode hex="0028"/>
  <outline>
    <contour>
      <point x="259.866" y="-1.75977" type="line"/>
      <point x="197.352" y="36.2549"/>
      <point x="53.7354" y="157.061"/>
      <point x="53.7354" y="360.657" type="curve" smooth="yes"/>
      <point x="53.7354" y="575.236"/>
      <point x="193.127" y="674.078"/>
      <point x="262.4" y="718.853" type="curve"/>
      <point x="270.003" y="705.337" type="line"/>
      <point x="182.989" y="635.218"/>
      <point x="126.39" y="570.169"/>
      <point x="126.39" y="363.192" type="curve" smooth="yes"/>
      <point x="126.39" y="147.77"/>
      <point x="182.989" y="80.1846"/>
      <point x="270.003" y="11.7559" type="curve"/>
    </contour>
  </outline>
</glyph>
<glyph name="parenright" format="2">
  <advance width="323"/>
  <unicode hex="0029"/>
  <outline>
    <contour>
      <point x="63.3604" y="-1.75977" type="curve"/>
      <point x="54.5586" y="12.3193" type="line"/>
      <point x="140.799" y="80.959"/>
      <point x="197.119" y="147.839"/>
      <point x="197.119" y="362.559" type="curve" smooth="yes"/>
      <point x="197.119" y="570.238"/>
      <point x="140.799" y="635.358"/>
      <point x="54.5586" y="705.759" type="curve"/>
      <point x="61.5986" y="718.079" type="line"/>
      <point x="130.239" y="674.079"/>
      <point x="269.279" y="575.52"/>
      <point x="269.279" y="360.8" type="curve" smooth="yes"/>
      <point x="269.279" y="156.64"/>
      <point x="126.72" y="36.96"/>
    </contour>
  </outline>
</glyph>
<glyph name="asterisk" format="2">
  <advance width="443"/>
  <unicode hex="002A"/>
  <outline>
    <contour>
      <point x="274.56" y="563.2" type="curve" smooth="yes"/>
      <point x="309.76" y="563.2"/>
      <point x="323.839" y="587.84"/>
      <point x="355.519" y="587.84" type="curve" smooth="yes"/>
      <point x="362.559" y="587.84"/>
      <point x="367.839" y="582.56"/>
      <point x="367.839" y="577.279" type="curve" smooth="yes"/>
      <point x="367.839" y="563.199"/>
      <point x="344.959" y="547.359"/>
      <point x="336.159" y="542.079" type="curve" smooth="yes"/>
      <point x="323.839" y="533.279"/>
      <point x="295.679" y="513.919"/>
      <point x="295.679" y="499.839" type="curve" smooth="yes"/>
      <point x="295.679" y="480.479"/>
      <point x="325.599" y="462.879"/>
      <point x="337.919" y="454.079" type="curve" smooth="yes"/>
      <point x="350.239" y="445.279"/>
      <point x="373.119" y="432.959"/>
      <point x="373.119" y="418.879" type="curve" smooth="yes"/>
      <point x="373.119" y="411.839"/>
      <point x="366.079" y="406.559"/>
      <point x="357.279" y="406.559" type="curve" smooth="yes"/>
      <point x="325.6" y="406.559"/>
      <point x="297.439" y="434.719"/>
      <point x="267.52" y="434.719" type="curve" smooth="yes"/>
      <point x="244.64" y="434.719"/>
      <point x="246.399" y="346.719"/>
      <point x="223.52" y="346.719" type="curve" smooth="yes"/>
      <point x="193.6" y="346.719"/>
      <point x="198.88" y="439.999"/>
      <point x="176" y="439.999" type="curve" smooth="yes"/>
      <point x="165.44" y="439.999"/>
      <point x="139.04" y="422.399"/>
      <point x="130.24" y="420.64" type="curve" smooth="yes"/>
      <point x="123.2" y="417.12"/>
      <point x="102.08" y="406.561"/>
      <point x="89.7598" y="406.561" type="curve" smooth="yes"/>
      <point x="82.7197" y="406.561"/>
      <point x="75.6797" y="410.08"/>
      <point x="75.6797" y="415.36" type="curve" smooth="yes"/>
      <point x="75.6797" y="427.681"/>
      <point x="102.08" y="447.041"/>
      <point x="109.12" y="452.321" type="curve" smooth="yes"/>
      <point x="121.44" y="464.642"/>
      <point x="149.601" y="480.481"/>
      <point x="149.601" y="496.321" type="curve" smooth="yes"/>
      <point x="149.601" y="517.441"/>
      <point x="121.44" y="535.041"/>
      <point x="105.601" y="545.601" type="curve" smooth="yes"/>
      <point x="98.5605" y="552.641"/>
      <point x="72.1611" y="570.24"/>
      <point x="72.1611" y="582.561" type="curve" smooth="yes"/>
      <point x="72.1611" y="586.08" type="line"/>
      <point x="73.9209" y="589.6"/>
      <point x="80.9609" y="591.359"/>
      <point x="86.2412" y="591.359" type="curve" smooth="yes"/>
      <point x="123.201" y="591.359"/>
      <point x="137.281" y="563.199"/>
      <point x="176.001" y="563.199" type="curve" smooth="yes"/>
      <point x="200.641" y="563.199"/>
      <point x="200.641" y="598.399"/>
      <point x="205.921" y="621.279" type="curve" smooth="yes"/>
      <point x="209.44" y="637.119"/>
      <point x="214.721" y="665.279"/>
      <point x="228.801" y="665.279" type="curve" smooth="yes"/>
      <point x="255.201" y="665.279"/>
      <point x="246.401" y="573.76"/>
      <point x="264.001" y="564.96" type="curve" smooth="yes"/>
      <point x="267.521" y="563.2"/>
      <point x="271.04" y="563.2"/>
    </contour>
    <contour>
      <point x="179.519" y="501.601" type="curve" smooth="yes"/>
      <point x="179.519" y="478.721"/>
      <point x="197.119" y="464.641"/>
      <point x="221.759" y="464.641" type="curve" smooth="yes"/>
      <point x="242.879" y="464.641"/>
      <point x="265.759" y="476.961"/>
      <point x="265.759" y="499.841" type="curve" smooth="yes"/>
      <point x="265.759" y="520.961"/>
      <point x="246.398" y="545.601"/>
      <point x="221.759" y="545.601" type="curve" smooth="yes"/>
      <point x="198.879" y="545.601"/>
      <point x="179.519" y="524.48"/>
    </contour>
  </outline>
</glyph>
<glyph name="plus" format="2">
  <advance width="800"/>
  <unicode hex="002B"/>
  <outline>
    <contour>
      <point x="374.88" y="0" type="line"/>
      <point x="374.88" y="308" type="line"/>
      <point x="75.6797" y="308" type="line"/>
      <point x="75.6797" y="360.8" type="line"/>
      <point x="374.88" y="360.8" type="line"/>
      <point x="374.88" y="661.76" type="line"/>
      <point x="422.399" y="661.76" type="line"/>
      <point x="422.399" y="360.8" type="line"/>
      <point x="723.359" y="360.8" type="line"/>
      <point x="723.359" y="308" type="line"/>
      <point x="422.399" y="308" type="line"/>
      <point x="422.399" y="0" type="line"/>
    </contour>
  </outline>
</glyph>
<glyph name="hyphen" format="2">
  <advance width="570"/>
  <unicode hex="002D"/>
  <outline>
    <contour>
      <point x="68.6396" y="360.8" type="line"/>
      <point x="501.6" y="360.8" type="line"/>
      <point x="501.6" y="308" type="line"/>
      <point x="68.6396" y="308" type="line"/>
    </contour>
  </outline>
</glyph>
<glyph name="period" format="2">
  <advance width="214"/>
  <unicode hex="002E"/>
  <outline>
    <contour>
      <point x="45.7598" y="61.5996" type="curve" smooth="yes"/>
      <point x="45.7598" y="95.04"/>
      <point x="73.9199" y="121.44"/>
      <point x="107.36" y="121.44" type="curve" smooth="yes"/>
      <point x="140.801" y="121.44"/>
      <point x="168.961" y="95.04"/>
      <point x="168.961" y="61.5996" type="curve" smooth="yes"/>
      <point x="168.961" y="28.1602"/>
      <point x="140.801" y="0"/>
      <point x="107.36" y="0" type="curve" smooth="yes"/>
      <point x="73.9199" y="-0"/>
      <point x="45.7598" y="28.1602"/>
    </contour>
  </outline>
</glyph>
<glyph name="slash" format="2">
  <advance width="427"/>
  <unicode hex="002F"/>
  <outline>
    <contour>
      <point x="418.88" y="686.4" type="line"/>
      <point x="68.6396" y="-24.6396" type="line"/>
      <point x="8.7998" y="-24.6396" type="line"/>
      <point x="360.8" y="686.4" type="line"/>
    </contour>
  </outline>
</glyph>
<glyph name="zero" format="2">
  <advance width="501"/>
  <unicode hex="0030"/>
  <outline>
    <contour>
      <point x="251" y="-14.5078" type="curve" smooth="yes"/>
      <point x="111.96" y="-14.5078"/>
      <point x="23.96" y="133.33"/>
      <point x="23.96" y="335.73" type="curve" smooth="yes"/>
      <point x="23.96" y="524.051"/>
      <point x="108.44" y="677.171"/>
      <point x="254.521" y="677.171" type="curve" smooth="yes"/>
      <point x="386.521" y="677.171"/>
      <point x="478.04" y="536.371"/>
      <point x="478.04" y="330.451" type="curve" smooth="yes"/>
      <point x="478.04" y="129.812"/>
      <point x="390.04" y="-14.5078"/>
    </contour>
    <contour>
      <point x="252.76" y="650.771" type="curve" smooth="yes"/>
      <point x="166.52" y="650.771"/>
      <point x="120.759" y="539.89"/>
      <point x="120.759" y="326.93" type="curve" smooth="yes"/>
      <point x="120.759" y="119.25"/>
      <point x="164.759" y="11.8896"/>
      <point x="250.999" y="11.8896" type="curve" smooth="yes"/>
      <point x="337.239" y="11.8896"/>
      <point x="381.239" y="119.25"/>
      <point x="381.239" y="328.69" type="curve" smooth="yes"/>
      <point x="381.239" y="538.131"/>
      <point x="335.479" y="650.771"/>
    </contour>
  </outline>
</glyph>
<glyph name="one" format="2">
  <advance width="366"/>
  <unicode hex="0031"/>
  <outline>
    <contour>
      <point x="110.88" y="586.08" type="curve" smooth="yes"/>
      <point x="95.04" y="586.08"/>
      <point x="77.4414" y="579.039"/>
      <point x="36.9609" y="563.199" type="curve"/>
      <point x="36.9609" y="577.279" type="line"/>
      <point x="223.521" y="672.319" type="line"/>
      <point x="230.561" y="670.56" type="line"/>
      <point x="230.561" y="70.4004" type="line" smooth="yes"/>
      <point x="230.561" y="19.3604"/>
      <point x="248.16" y="7.04004"/>
      <point x="330.88" y="7.04004" type="curve"/>
      <point x="330.88" y="-7.04004" type="line"/>
      <point x="44" y="-7.04004" type="line"/>
      <point x="44" y="7.04004" type="line"/>
      <point x="117.92" y="7.04004"/>
      <point x="142.56" y="28.1602"/>
      <point x="142.56" y="96.7998" type="curve" smooth="yes"/>
      <point x="142.56" y="536.8" type="line" smooth="yes"/>
      <point x="142.56" y="570.24"/>
      <point x="132" y="586.08"/>
    </contour>
  </outline>
</glyph>
<glyph name="two" format="2">
  <advance width="517"/>
  <unicode hex="0032"/>
  <outline>
    <contour>
      <point x="36.96" y="473.44" type="line"/>
      <point x="47.5195" y="519.2"/>
      <point x="84.4795" y="672.321"/>
      <point x="244.639" y="672.321" type="curve" smooth="yes"/>
      <point x="350.238" y="672.321"/>
      <point x="431.198" y="594.881"/>
      <point x="431.198" y="494.561" type="curve" smooth="yes"/>
      <point x="431.198" y="417.12"/>
      <point x="392.479" y="339.68"/>
      <point x="302.719" y="246.399" type="curve" smooth="yes"/>
      <point x="133.759" y="70.3994" type="line"/>
      <point x="373.119" y="70.3994" type="line" smooth="yes"/>
      <point x="418.879" y="70.3994"/>
      <point x="431.199" y="79.1992"/>
      <point x="469.919" y="137.279" type="curve"/>
      <point x="482.239" y="131.999" type="line"/>
      <point x="427.68" y="-5.28125" type="line"/>
      <point x="35.2002" y="-5.28125" type="line"/>
      <point x="35.2002" y="7.03906" type="line"/>
      <point x="214.72" y="195.359" type="line" smooth="yes"/>
      <point x="299.2" y="285.119"/>
      <point x="344.96" y="378.399"/>
      <point x="344.96" y="457.6" type="curve" smooth="yes"/>
      <point x="344.96" y="540.319"/>
      <point x="286.88" y="598.399"/>
      <point x="204.16" y="598.399" type="curve" smooth="yes"/>
      <point x="133.76" y="598.399"/>
      <point x="98.5596" y="566.72"/>
      <point x="58.0801" y="468.16" type="curve"/>
    </contour>
  </outline>
</glyph>
<glyph name="three" format="2">
  <advance width="491"/>
  <unicode hex="0033"/>
  <outline>
    <contour>
      <point x="77.4404" y="84.4805" type="curve" smooth="yes"/>
      <point x="130.24" y="84.4805"/>
      <point x="167.201" y="28.1592"/>
      <point x="235.841" y="28.1592" type="curve" smooth="yes"/>
      <point x="316.801" y="28.1592"/>
      <point x="378.4" y="93.2793"/>
      <point x="378.4" y="179.519" type="curve" smooth="yes"/>
      <point x="378.4" y="318.559"/>
      <point x="246.4" y="327.358"/>
      <point x="154.881" y="327.358" type="curve"/>
      <point x="154.881" y="339.679" type="line"/>
      <point x="235.841" y="366.079"/>
      <point x="332.641" y="406.56"/>
      <point x="332.641" y="508.64" type="curve" smooth="yes"/>
      <point x="332.641" y="572"/>
      <point x="285.121" y="617.76"/>
      <point x="214.721" y="617.76" type="curve" smooth="yes"/>
      <point x="146.081" y="617.76"/>
      <point x="98.5605" y="584.319"/>
      <point x="54.5605" y="508.64" type="curve"/>
      <point x="36.9609" y="513.92" type="line"/>
      <point x="66.8809" y="589.6"/>
      <point x="117.921" y="677.6"/>
      <point x="249.921" y="677.6" type="curve" smooth="yes"/>
      <point x="350.241" y="677.6"/>
      <point x="418.881" y="621.279"/>
      <point x="418.881" y="538.56" type="curve" smooth="yes"/>
      <point x="418.881" y="484"/>
      <point x="390.721" y="447.04"/>
      <point x="316.801" y="397.76" type="curve"/>
      <point x="388.961" y="369.6"/>
      <point x="455.841" y="337.92"/>
      <point x="455.841" y="227.04" type="curve" smooth="yes"/>
      <point x="455.841" y="80.96"/>
      <point x="323.841" y="-8.7998"/>
      <point x="158.4" y="-8.7998" type="curve" smooth="yes"/>
      <point x="82.7197" y="-8.7998"/>
      <point x="35.2002" y="14.0801"/>
      <point x="35.2002" y="49.2803" type="curve" smooth="yes"/>
      <point x="35.2002" y="70.4004"/>
      <point x="51.04" y="84.4805"/>
    </contour>
  </outline>
</glyph>
<glyph name="four" format="2">
  <advance width="535"/>
  <unicode hex="0034"/>
  <outline>
    <contour>
      <point x="513.92" y="212.96" type="line"/>
      <point x="513.921" y="146.08" type="line"/>
      <point x="408.321" y="146.08" type="line"/>
      <point x="408.321" y="0" type="line"/>
      <point x="329.121" y="0" type="line"/>
      <point x="329.121" y="146.08" type="line"/>
      <point x="36.9609" y="146.08" type="line"/>
      <point x="36.9609" y="212.96" type="line"/>
      <point x="362.561" y="674.08" type="line"/>
      <point x="408.32" y="674.08" type="line"/>
      <point x="408.32" y="212.96" type="line"/>
    </contour>
    <contour>
      <point x="327.361" y="212.96" type="line"/>
      <point x="327.361" y="568.479" type="line"/>
      <point x="77.4414" y="212.96" type="line"/>
    </contour>
  </outline>
</glyph>
<glyph name="five" format="2">
  <advance width="487"/>
  <unicode hex="0035"/>
  <outline>
    <contour>
      <point x="371.36" y="197.12" type="curve" smooth="yes"/>
      <point x="371.36" y="381.92"/>
      <point x="147.839" y="413.6"/>
      <point x="84.4795" y="413.6" type="curve" smooth="yes"/>
      <point x="75.6787" y="413.6"/>
      <point x="72.1592" y="415.359"/>
      <point x="72.1592" y="420.64" type="curve" smooth="yes"/>
      <point x="72.1592" y="425.92" type="line"/>
      <point x="184.799" y="660" type="line"/>
      <point x="397.759" y="660" type="line" smooth="yes"/>
      <point x="418.879" y="660"/>
      <point x="429.438" y="665.28"/>
      <point x="443.519" y="686.4" type="curve"/>
      <point x="454.078" y="679.36" type="line"/>
      <point x="415.358" y="591.36" type="line" smooth="yes"/>
      <point x="411.839" y="584.32"/>
      <point x="408.319" y="582.561"/>
      <point x="390.72" y="582.561" type="curve" smooth="yes"/>
      <point x="191.84" y="582.561" type="line"/>
      <point x="147.84" y="498.08" type="line"/>
      <point x="337.92" y="464.64"/>
      <point x="441.76" y="399.52"/>
      <point x="441.76" y="244.64" type="curve" smooth="yes"/>
      <point x="441.76" y="42.2402"/>
      <point x="271.04" y="-8.7998"/>
      <point x="163.68" y="-8.7998" type="curve" smooth="yes"/>
      <point x="88" y="-8.7998"/>
      <point x="38.7197" y="15.8398"/>
      <point x="38.7197" y="52.7998" type="curve" smooth="yes"/>
      <point x="38.7197" y="77.4404"/>
      <point x="52.7998" y="89.7598"/>
      <point x="82.7197" y="89.7598" type="curve" smooth="yes"/>
      <point x="140.8" y="89.7598"/>
      <point x="174.24" y="28.1602"/>
      <point x="228.8" y="28.1602" type="curve" smooth="yes"/>
      <point x="308" y="28.1602"/>
      <point x="371.36" y="102.08"/>
    </contour>
  </outline>
</glyph>
<glyph name="six" format="2">
  <advance width="499"/>
  <unicode hex="0036"/>
  <outline>
    <contour>
      <point x="256.96" y="-10.5596" type="curve" smooth="yes"/>
      <point x="124.96" y="-10.5596"/>
      <point x="35.2012" y="105.599"/>
      <point x="35.2012" y="279.839" type="curve" smooth="yes"/>
      <point x="35.2012" y="394.239"/>
      <point x="91.5205" y="647.68"/>
      <point x="441.761" y="679.359" type="curve"/>
      <point x="445.28" y="663.52" type="line"/>
      <point x="290.4" y="637.119"/>
      <point x="179.521" y="531.52"/>
      <point x="153.12" y="381.92" type="curve"/>
      <point x="214.72" y="418.88"/>
      <point x="235.84" y="425.92"/>
      <point x="278.08" y="425.92" type="curve" smooth="yes"/>
      <point x="392.48" y="425.92"/>
      <point x="464.641" y="346.72"/>
      <point x="464.641" y="220" type="curve" smooth="yes"/>
      <point x="464.641" y="82.7197"/>
      <point x="380.16" y="-10.5596"/>
    </contour>
    <contour>
      <point x="241.121" y="380.159" type="curve" smooth="yes"/>
      <point x="144.321" y="380.159"/>
      <point x="128.482" y="332.639"/>
      <point x="128.482" y="263.999" type="curve" smooth="yes"/>
      <point x="128.482" y="110.879"/>
      <point x="181.282" y="17.5986"/>
      <point x="267.522" y="17.5986" type="curve" smooth="yes"/>
      <point x="336.162" y="17.5986"/>
      <point x="374.882" y="77.4395"/>
      <point x="374.882" y="186.559" type="curve" smooth="yes"/>
      <point x="374.882" y="309.759"/>
      <point x="325.602" y="380.159"/>
    </contour>
  </outline>
</glyph>
<glyph name="seven" format="2">
  <advance width="505"/>
  <unicode hex="0037"/>
  <outline>
    <contour>
      <point x="469.92" y="668.8" type="line"/>
      <point x="469.92" y="652.96" type="line"/>
      <point x="256.96" y="-8.7998" type="line"/>
      <point x="190.08" y="-8.7998" type="line"/>
      <point x="390.72" y="594.88" type="line"/>
      <point x="170.72" y="594.88" type="line" smooth="yes"/>
      <point x="116.16" y="594.88"/>
      <point x="96.7998" y="580.8"/>
      <point x="52.7998" y="512.16" type="curve"/>
      <point x="36.96" y="520.96" type="line"/>
      <point x="96.7998" y="668.8" type="line"/>
    </contour>
  </outline>
</glyph>
<glyph name="eight" format="2">
  <advance width="459"/>
  <unicode hex="0038"/>
  <outline>
    <contour>
      <point x="265.76" y="362.56" type="curve"/>
      <point x="388.96" y="271.04"/>
      <point x="424.16" y="239.36"/>
      <point x="424.16" y="160.16" type="curve" smooth="yes"/>
      <point x="424.16" y="54.5596"/>
      <point x="350.24" y="-12.3203"/>
      <point x="228.8" y="-12.3203" type="curve" smooth="yes"/>
      <point x="112.64" y="-12.3203"/>
      <point x="35.2002" y="56.3203"/>
      <point x="35.2002" y="156.64" type="curve" smooth="yes"/>
      <point x="35.2002" y="225.279"/>
      <point x="58.0801" y="239.359"/>
      <point x="168.96" y="323.84" type="curve"/>
      <point x="61.5996" y="417.12"/>
      <point x="42.2402" y="447.04"/>
      <point x="42.2402" y="513.92" type="curve" smooth="yes"/>
      <point x="42.2402" y="605.439"/>
      <point x="121.44" y="674.079"/>
      <point x="232.32" y="674.079" type="curve" smooth="yes"/>
      <point x="334.4" y="674.079"/>
      <point x="403.04" y="612.479"/>
      <point x="403.04" y="529.76" type="curve" smooth="yes"/>
      <point x="403.04" y="459.359"/>
      <point x="366.08" y="417.119"/>
    </contour>
    <contour>
      <point x="195.359" y="302.72" type="curve"/>
      <point x="135.52" y="255.2"/>
      <point x="112.638" y="228.799"/>
      <point x="112.638" y="163.679" type="curve" smooth="yes"/>
      <point x="112.638" y="75.6787"/>
      <point x="161.918" y="15.8389"/>
      <point x="239.358" y="15.8389" type="curve" smooth="yes"/>
      <point x="306.238" y="15.8389"/>
      <point x="346.719" y="61.5986"/>
      <point x="346.719" y="128.479" type="curve" smooth="yes"/>
      <point x="346.719" y="214.72"/>
      <point x="293.919" y="230.56"/>
    </contour>
    <contour>
      <point x="241.117" y="381.919" type="curve"/>
      <point x="269.277" y="403.039"/>
      <point x="332.639" y="439.999"/>
      <point x="332.639" y="529.759" type="curve" smooth="yes"/>
      <point x="332.639" y="600.159"/>
      <point x="293.919" y="645.919"/>
      <point x="223.519" y="645.919" type="curve" smooth="yes"/>
      <point x="160.158" y="645.919"/>
      <point x="117.918" y="603.679"/>
      <point x="117.918" y="545.599" type="curve" smooth="yes"/>
      <point x="117.918" y="487.519"/>
      <point x="149.598" y="439.999"/>
    </contour>
  </outline>
</glyph>
<glyph name="nine" format="2">
  <advance width="487"/>
  <unicode hex="0039"/>
  <outline>
    <contour>
      <point x="63.3604" y="-3.51953" type="curve"/>
      <point x="61.5977" y="15.8408" type="line"/>
      <point x="207.678" y="40.4814"/>
      <point x="315.038" y="144.321"/>
      <point x="355.519" y="302.722" type="curve"/>
      <point x="304.479" y="262.241"/>
      <point x="263.998" y="246.401"/>
      <point x="211.198" y="246.401" type="curve" smooth="yes"/>
      <point x="105.599" y="246.401"/>
      <point x="35.1992" y="325.602"/>
      <point x="35.1992" y="443.521" type="curve" smooth="yes"/>
      <point x="35.1992" y="573.762"/>
      <point x="121.439" y="672.321"/>
      <point x="237.6" y="672.321" type="curve" smooth="yes"/>
      <point x="362.56" y="672.321"/>
      <point x="450.56" y="557.921"/>
      <point x="450.56" y="399.521" type="curve" smooth="yes"/>
      <point x="450.56" y="292.16"/>
      <point x="406.56" y="35.2002"/>
    </contour>
    <contour>
      <point x="244.638" y="288.641" type="curve" smooth="yes"/>
      <point x="272.798" y="288.641"/>
      <point x="357.278" y="302.722"/>
      <point x="357.278" y="360.802" type="curve" smooth="yes"/>
      <point x="357.278" y="399.521" type="line" smooth="yes"/>
      <point x="357.278" y="561.441"/>
      <point x="313.278" y="644.161"/>
      <point x="228.798" y="644.161" type="curve" smooth="yes"/>
      <point x="146.078" y="644.161"/>
      <point x="124.958" y="547.361"/>
      <point x="124.958" y="476.961" type="curve" smooth="yes"/>
      <point x="124.958" y="360.801"/>
      <point x="172.478" y="288.641"/>
    </contour>
  </outline>
</glyph>
<glyph name="colon" format="2">
  <advance width="250"/>
  <unicode hex="003A"/>
  <outline>
    <contour>
      <point x="56.7598" y="420.6" type="curve" smooth="yes"/>
      <point x="56.7598" y="454.04"/>
      <point x="84.9199" y="480.44"/>
      <point x="118.36" y="480.44" type="curve" smooth="yes"/>
      <point x="151.8" y="480.44"/>
      <point x="179.96" y="454.04"/>
      <point x="179.96" y="420.6" type="curve" smooth="yes"/>
      <point x="179.96" y="387.16"/>
      <point x="151.8" y="359"/>
      <point x="118.36" y="359" type="curve" smooth="yes"/>
      <point x="84.9199" y="359"/>
      <point x="56.7598" y="387.16"/>
    </contour>
    <contour>
      <point x="56.7598" y="61.5996" type="curve" smooth="yes"/>
      <point x="56.7598" y="95.04"/>
      <point x="84.9199" y="121.44"/>
      <point x="118.36" y="121.44" type="curve" smooth="yes"/>
      <point x="151.8" y="121.44"/>
      <point x="179.96" y="95.04"/>
      <point x="179.96" y="61.5996" type="curve" smooth="yes"/>
      <point x="179.96" y="28.1602"/>
      <point x="151.8" y="0"/>
      <point x="118.36" y="0" type="curve" smooth="yes"/>
      <point x="84.9199" y="0"/>
      <point x="56.7598" y="28.1602"/>
    </contour>
  </outline>
</glyph>
<glyph name="semicolon" format="2">
  <advance width="195"/>
  <unicode hex="003B"/>
  <outline>
    <contour>
      <point x="96" y="327" type="curve" smooth="yes"/>
      <point x="48" y="327"/>
      <point x="24" y="351.333"/>
      <point x="24" y="400" type="curve" smooth="yes"/>
      <point x="24" y="448.667"/>
      <point x="48" y="473"/>
      <point x="96" y="473" type="curve" smooth="yes"/>
      <point x="144.667" y="473"/>
      <point x="169" y="448.667"/>
      <point x="169" y="400" type="curve" smooth="yes"/>
      <point x="169" y="351.333"/>
      <point x="144.667" y="327"/>
    </contour>
    <contour>
      <point x="165" y="56" type="curve" smooth="yes"/>
      <point x="165" y="27.1614"/>
      <point x="147.594" y="-3.64677"/>
      <point x="130" y="-23" type="curve"/>
      <point x="115" y="-41" type="line"/>
      <point x="88.3333" y="-71"/>
      <point x="57.6667" y="-95.3333"/>
      <point x="23" y="-114" type="curve" smooth="yes"/>
      <point x="17" y="-116.667"/>
      <point x="11.6667" y="-118"/>
      <point x="7" y="-118" type="curve" smooth="yes"/>
      <point x="2.33333" y="-118"/>
      <point x="0" y="-117"/>
      <point x="0" y="-115" type="curve" smooth="yes"/>
      <point x="-1" y="-110" type="line"/>
      <point x="-0.333333" y="-108"/>
      <point x="1.33333" y="-106"/>
      <point x="4" y="-104" type="curve" smooth="yes"/>
      <point x="20.1674" y="-87.8326"/>
      <point x="56.8828" y="-42.7685"/>
      <point x="56.8828" y="-8.84753" type="curve" smooth="yes"/>
      <point x="56.8828" y="-0.313946"/>
      <point x="54.5591" y="7.5144"/>
      <point x="49" y="14" type="curve"/>
      <point x="40" y="26" type="line" smooth="yes"/>
      <point x="31.3333" y="36.6667"/>
      <point x="27" y="48"/>
      <point x="27" y="60" type="curve" smooth="yes"/>
      <point x="27" y="107.333"/>
      <point x="49.3333" y="131"/>
      <point x="94" y="131" type="curve" smooth="yes"/>
      <point x="141.333" y="131"/>
      <point x="165" y="106"/>
    </contour>
  </outline>
</glyph>
<glyph name="less" format="2">
  <advance width="739"/>
  <unicode hex="003C"/>
  <outline>
    <contour>
      <point x="712.8" y="0" type="line"/>
      <point x="25.499" y="311.182" type="line"/>
      <point x="25.499" y="400.476" type="line"/>
      <point x="712.8" y="711.655" type="line"/>
      <point x="712.8" y="647.682" type="line"/>
      <point x="88.2373" y="355.828" type="line"/>
      <point x="712.8" y="63.9717" type="line"/>
    </contour>
  </outline>
</glyph>
<glyph name="equal" format="2">
  <advance width="850"/>
  <unicode hex="003D"/>
  <outline>
    <contour>
      <point x="797.28" y="522.72" type="line"/>
      <point x="797.28" y="447.04" type="line"/>
      <point x="52.7998" y="447.04" type="line"/>
      <point x="52.7998" y="522.72" type="line"/>
    </contour>
    <contour>
      <point x="797.28" y="267.521" type="line"/>
      <point x="797.28" y="193.601" type="line"/>
      <point x="52.7998" y="193.601" type="line"/>
      <point x="52.7998" y="267.521" type="line"/>
    </contour>
  </outline>
</glyph>
<glyph name="greater" format="2">
  <advance width="739"/>
  <unicode hex="003E"/>
  <outline>
    <contour>
      <point x="28.1602" y="0" type="line"/>
      <point x="28.1602" y="63.3594" type="line"/>
      <point x="652.96" y="355.519" type="line"/>
      <point x="28.1602" y="647.679" type="line"/>
      <point x="28.1602" y="711.039" type="line"/>
      <point x="716.32" y="401.279" type="line"/>
      <point x="716.32" y="311.52" type="line"/>
    </contour>
  </outline>
</glyph>
<glyph name="question" format="2">
  <advance width="436"/>
  <unicode hex="003F"/>
  <outline>
    <contour>
      <point x="206.918" y="718.881" type="curve" smooth="yes"/>
      <point x="304.571" y="718.881"/>
      <point x="392.159" y="657.863"/>
      <point x="392.159" y="555.816" type="curve" smooth="yes"/>
      <point x="392.159" y="475.863"/>
      <point x="342.83" y="413.792"/>
      <point x="286.453" y="342.255" type="curve" smooth="yes"/>
      <point x="249.205" y="292.81"/>
      <point x="232.089" y="250.729"/>
      <point x="221.017" y="180.244" type="curve"/>
      <point x="203.901" y="180.244" type="line"/>
      <point x="205.943" y="274.089"/>
      <point x="229.315" y="318.196"/>
      <point x="262.289" y="396.96" type="curve" smooth="yes"/>
      <point x="286.452" y="454.82"/>
      <point x="299.538" y="512.683"/>
      <point x="299.538" y="561.076" type="curve" smooth="yes"/>
      <point x="299.538" y="631.562"/>
      <point x="251.218" y="687.317"/>
      <point x="190.813" y="687.317" type="curve" smooth="yes"/>
      <point x="141.483" y="687.317"/>
      <point x="95.1748" y="655.76"/>
      <point x="95.1748" y="622.093" type="curve" smooth="yes"/>
      <point x="95.1748" y="600.002"/>
      <point x="133.43" y="576.857"/>
      <point x="133.43" y="544.243" type="curve" smooth="yes"/>
      <point x="133.43" y="518.996"/>
      <point x="116.314" y="501.112"/>
      <point x="92.1543" y="501.112" type="curve" smooth="yes"/>
      <point x="60.9453" y="501.112"/>
      <point x="43.832" y="524.257"/>
      <point x="43.832" y="566.338" type="curve" smooth="yes"/>
      <point x="43.832" y="653.655"/>
      <point x="114.301" y="718.881"/>
    </contour>
    <contour>
      <point x="213.968" y="111.861" type="curve" smooth="yes"/>
      <point x="243.164" y="111.861"/>
      <point x="268.333" y="85.5615"/>
      <point x="268.333" y="54.001" type="curve" smooth="yes"/>
      <point x="268.333" y="22.4404"/>
      <point x="245.178" y="-0.705078"/>
      <point x="212.963" y="-0.705078" type="curve" smooth="yes"/>
      <point x="182.762" y="-0.705078"/>
      <point x="160.612" y="22.4404"/>
      <point x="160.612" y="52.9482" type="curve" smooth="yes"/>
      <point x="160.612" y="86.6133"/>
      <point x="183.767" y="111.861"/>
    </contour>
  </outline>
</glyph>
<glyph name="at" format="2">
  <advance width="804"/>
  <unicode hex="0040"/>
  <outline>
    <contour>
      <point x="422.4" y="665.28" type="curve" smooth="yes"/>
      <point x="241.12" y="665.28"/>
      <point x="124.962" y="510.399"/>
      <point x="124.962" y="325.6" type="curve" smooth="yes"/>
      <point x="124.962" y="142.56"/>
      <point x="253.442" y="10.5596"/>
      <point x="432.962" y="10.5596" type="curve" smooth="yes"/>
      <point x="503.362" y="10.5596"/>
      <point x="557.922" y="24.6396"/>
      <point x="640.642" y="61.5996" type="curve"/>
      <point x="652.962" y="29.9199" type="line"/>
      <point x="549.122" y="-15.8398"/>
      <point x="496.322" y="-29.9199"/>
      <point x="422.402" y="-29.9199" type="curve" smooth="yes"/>
      <point x="204.162" y="-29.9199"/>
      <point x="35.2021" y="126.72"/>
      <point x="35.2021" y="329.12" type="curve" smooth="yes"/>
      <point x="35.2021" y="535.04"/>
      <point x="207.682" y="698.72"/>
      <point x="420.642" y="698.72" type="curve" smooth="yes"/>
      <point x="616.002" y="698.72"/>
      <point x="767.362" y="563.2"/>
      <point x="767.362" y="388.96" type="curve" smooth="yes"/>
      <point x="767.362" y="253.44"/>
      <point x="677.603" y="135.521"/>
      <point x="573.763" y="135.521" type="curve" smooth="yes"/>
      <point x="522.723" y="135.521"/>
      <point x="484.003" y="167.2"/>
      <point x="476.963" y="212.96" type="curve"/>
      <point x="441.763" y="165.44"/>
      <point x="390.723" y="137.28"/>
      <point x="344.963" y="137.28" type="curve" smooth="yes"/>
      <point x="293.923" y="137.28"/>
      <point x="251.683" y="188.32"/>
      <point x="251.683" y="255.2" type="curve" smooth="yes"/>
      <point x="251.683" y="371.36"/>
      <point x="334.402" y="520.96"/>
      <point x="459.362" y="520.96" type="curve" smooth="yes"/>
      <point x="496.322" y="520.96"/>
      <point x="512.162" y="510.4"/>
      <point x="535.042" y="466.4" type="curve"/>
      <point x="545.602" y="506.881" type="line"/>
      <point x="619.521" y="506.881" type="line"/>
      <point x="549.121" y="237.601" type="line"/>
      <point x="549.121" y="232.32"/>
      <point x="547.361" y="227.04"/>
      <point x="547.361" y="220" type="curve" smooth="yes"/>
      <point x="547.361" y="186.56"/>
      <point x="561.441" y="170.72"/>
      <point x="589.602" y="170.72" type="curve" smooth="yes"/>
      <point x="658.241" y="170.72"/>
      <point x="725.121" y="272.8"/>
      <point x="725.121" y="378.399" type="curve" smooth="yes"/>
      <point x="725.121" y="536.8"/>
      <point x="587.841" y="665.28"/>
    </contour>
    <contour>
      <point x="517.442" y="413.6" type="curve" smooth="yes"/>
      <point x="517.442" y="462.88"/>
      <point x="491.044" y="475.2"/>
      <point x="471.684" y="475.2" type="curve" smooth="yes"/>
      <point x="422.403" y="475.2"/>
      <point x="327.363" y="397.76"/>
      <point x="327.363" y="272.8" type="curve" smooth="yes"/>
      <point x="327.363" y="216.479"/>
      <point x="352.003" y="183.039"/>
      <point x="390.723" y="183.039" type="curve" smooth="yes"/>
      <point x="462.883" y="183.039"/>
      <point x="517.442" y="327.359"/>
    </contour>
  </outline>
</glyph>
<glyph name="B" format="2">
  <advance width="631"/>
  <unicode hex="0042"/>
  <outline>
    <contour>
      <point x="591" y="180" type="curve" smooth="yes"/>
      <point x="591" y="108"/>
      <point x="543" y="0"/>
      <point x="349" y="0" type="curve" smooth="yes"/>
      <point x="15" y="0" type="line"/>
      <point x="15" y="19" type="line"/>
      <point x="98" y="22"/>
      <point x="111" y="35"/>
      <point x="111" y="109" type="curve" smooth="yes"/>
      <point x="111" y="553" type="line" smooth="yes"/>
      <point x="111" y="627"/>
      <point x="99" y="638"/>
      <point x="15" y="643" type="curve"/>
      <point x="15" y="662" type="line"/>
      <point x="295" y="662" type="line" smooth="yes"/>
      <point x="468" y="662"/>
      <point x="557" y="604"/>
      <point x="557" y="492" type="curve" smooth="yes"/>
      <point x="557" y="377"/>
      <point x="455" y="357"/>
      <point x="420" y="348" type="curve"/>
      <point x="460" y="338"/>
      <point x="591" y="310"/>
    </contour>
    <contour>
      <point x="276" y="37" type="curve" smooth="yes"/>
      <point x="385" y="37"/>
      <point x="476" y="61"/>
      <point x="476" y="179" type="curve" smooth="yes"/>
      <point x="476" y="320.845"/>
      <point x="346.798" y="326"/>
      <point x="213" y="326" type="curve"/>
      <point x="213" y="78" type="line" smooth="yes"/>
      <point x="213" y="46"/>
      <point x="227" y="37"/>
    </contour>
    <contour>
      <point x="213" y="366" type="line"/>
      <point x="308" y="366" type="line" smooth="yes"/>
      <point x="402" y="366"/>
      <point x="455" y="410"/>
      <point x="455" y="488" type="curve" smooth="yes"/>
      <point x="455" y="577"/>
      <point x="394" y="625"/>
      <point x="279" y="625" type="curve" smooth="yes"/>
      <point x="235" y="625" type="line" smooth="yes"/>
      <point x="220" y="625"/>
      <point x="213" y="616"/>
      <point x="213" y="595" type="curve" smooth="yes"/>
    </contour>
  </outline>
</glyph>
<glyph name="C" format="2">
  <advance width="670"/>
  <unicode hex="0043"/>
  <outline>
    <contour>
      <point x="35" y="325" type="curve" smooth="yes"/>
      <point x="35" y="536"/>
      <point x="183" y="676"/>
      <point x="370" y="676" type="curve" smooth="yes"/>
      <point x="479" y="676"/>
      <point x="519" y="643"/>
      <point x="555" y="643" type="curve" smooth="yes"/>
      <point x="575" y="643"/>
      <point x="591" y="655"/>
      <point x="597" y="676" type="curve"/>
      <point x="618" y="676" type="line"/>
      <point x="627" y="450" type="line"/>
      <point x="604" y="450" type="line"/>
      <point x="576" y="545"/>
      <point x="518" y="636"/>
      <point x="389" y="636" type="curve" smooth="yes"/>
      <point x="244" y="636"/>
      <point x="151" y="519"/>
      <point x="151" y="338" type="curve" smooth="yes"/>
      <point x="151" y="94"/>
      <point x="287" y="30"/>
      <point x="399" y="30" type="curve" smooth="yes"/>
      <point x="482" y="30"/>
      <point x="548" y="60"/>
      <point x="622" y="131" type="curve"/>
      <point x="640" y="113" type="line"/>
      <point x="579" y="32"/>
      <point x="480" y="-14"/>
      <point x="367" y="-14" type="curve" smooth="yes"/>
      <point x="171" y="-14"/>
      <point x="35" y="120"/>
    </contour>
  </outline>
</glyph>
<glyph name="D" format="2">
  <advance width="719"/>
  <unicode hex="0044"/>
  <outline>
    <contour>
      <point x="684" y="334" type="curve" smooth="yes"/>
      <point x="684" y="196"/>
      <point x="607" y="0"/>
      <point x="299" y="0" type="curve" smooth="yes"/>
      <point x="15" y="0" type="line"/>
      <point x="15" y="19" type="line"/>
      <point x="91" y="24"/>
      <point x="103" y="37"/>
      <point x="103" y="109" type="curve" smooth="yes"/>
      <point x="103" y="553" type="line" smooth="yes"/>
      <point x="103" y="627"/>
      <point x="94" y="636"/>
      <point x="15" y="643" type="curve"/>
      <point x="15" y="662" type="line"/>
      <point x="285" y="662" type="line" smooth="yes"/>
      <point x="602" y="662"/>
      <point x="684" y="479"/>
    </contour>
    <contour>
      <point x="575" y="327" type="curve" smooth="yes"/>
      <point x="575" y="461"/>
      <point x="511" y="625"/>
      <point x="257" y="625" type="curve" smooth="yes"/>
      <point x="216" y="625"/>
      <point x="205" y="617"/>
      <point x="205" y="586" type="curve" smooth="yes"/>
      <point x="205" y="78" type="line" smooth="yes"/>
      <point x="205" y="46"/>
      <point x="217" y="37"/>
      <point x="257" y="37" type="curve" smooth="yes"/>
      <point x="445" y="37"/>
      <point x="575" y="110"/>
    </contour>
  </outline>
</glyph>
<glyph name="E" format="2">
  <advance width="610"/>
  <unicode hex="0045"/>
  <outline>
    <contour>
      <point x="204" y="80" type="line" smooth="yes"/>
      <point x="204" y="42"/>
      <point x="211" y="37"/>
      <point x="309" y="37" type="curve" smooth="yes"/>
      <point x="336" y="37" type="line" smooth="yes"/>
      <point x="479" y="37"/>
      <point x="522" y="61"/>
      <point x="572" y="169" type="curve"/>
      <point x="600" y="169" type="line"/>
      <point x="555" y="0" type="line"/>
      <point x="15" y="0" type="line"/>
      <point x="15" y="19" type="line"/>
      <point x="88" y="24"/>
      <point x="102" y="39"/>
      <point x="102" y="109" type="curve" smooth="yes"/>
      <point x="102" y="553" type="line" smooth="yes"/>
      <point x="102" y="623"/>
      <point x="89" y="637"/>
      <point x="15" y="643" type="curve"/>
      <point x="15" y="662" type="line"/>
      <point x="546" y="662" type="line"/>
      <point x="549" y="519" type="line"/>
      <point x="524" y="519" type="line"/>
      <point x="507" y="609"/>
      <point x="485" y="624"/>
      <point x="372" y="624" type="curve" smooth="yes"/>
      <point x="237" y="624" type="line" smooth="yes"/>
      <point x="210" y="624"/>
      <point x="204" y="618"/>
      <point x="204" y="590" type="curve" smooth="yes"/>
      <point x="204" y="368" type="line"/>
      <point x="358" y="368" type="line" smooth="yes"/>
      <point x="451" y="368"/>
      <point x="457" y="397"/>
      <point x="468" y="463" type="curve"/>
      <point x="491" y="463" type="line"/>
      <point x="491" y="231" type="line"/>
      <point x="468" y="231" type="line"/>
      <point x="455" y="314"/>
      <point x="440" y="327"/>
      <point x="358" y="327" type="curve" smooth="yes"/>
      <point x="204" y="327" type="line"/>
    </contour>
  </outline>
</glyph>
<glyph name="F" format="2">
  <advance width="564"/>
  <unicode hex="0046"/>
  <outline>
    <contour>
      <point x="482" y="231" type="line"/>
      <point x="459" y="231" type="line"/>
      <point x="447" y="312"/>
      <point x="430" y="327"/>
      <point x="349" y="327" type="curve" smooth="yes"/>
      <point x="204" y="327" type="line"/>
      <point x="204" y="119" type="line" smooth="yes"/>
      <point x="204" y="37.5"/>
      <point x="218" y="23"/>
      <point x="295" y="19" type="curve"/>
      <point x="295" y="0" type="line"/>
      <point x="15" y="0" type="line"/>
      <point x="15" y="19" type="line"/>
      <point x="91" y="24"/>
      <point x="102" y="37"/>
      <point x="102" y="120" type="curve" smooth="yes"/>
      <point x="102" y="553" type="line" smooth="yes"/>
      <point x="102" y="623"/>
      <point x="89" y="637"/>
      <point x="15" y="643" type="curve"/>
      <point x="15" y="662" type="line"/>
      <point x="546" y="662" type="line"/>
      <point x="549" y="519" type="line"/>
      <point x="524" y="519" type="line"/>
      <point x="507" y="609"/>
      <point x="485" y="624"/>
      <point x="372" y="624" type="curve" smooth="yes"/>
      <point x="236" y="624" type="line" smooth="yes"/>
      <point x="209" y="624"/>
      <point x="204" y="618"/>
      <point x="204" y="590" type="curve" smooth="yes"/>
      <point x="204" y="368" type="line"/>
      <point x="349" y="368" type="line" smooth="yes"/>
      <point x="429" y="368"/>
      <point x="447" y="383"/>
      <point x="459" y="463" type="curve"/>
      <point x="482" y="463" type="line"/>
    </contour>
  </outline>
</glyph>
<glyph name="G" format="2">
  <advance width="722"/>
  <unicode hex="0047"/>
  <outline>
    <contour>
      <point x="395" y="636" type="curve" smooth="yes"/>
      <point x="198" y="636"/>
      <point x="149" y="449"/>
      <point x="149" y="326" type="curve" smooth="yes"/>
      <point x="149" y="140"/>
      <point x="249" y="26"/>
      <point x="412" y="26" type="curve" smooth="yes"/>
      <point x="484" y="26"/>
      <point x="545" y="53"/>
      <point x="545" y="85" type="curve" smooth="yes"/>
      <point x="545" y="247" type="line" smooth="yes"/>
      <point x="545" y="324"/>
      <point x="530" y="331"/>
      <point x="457" y="336" type="curve"/>
      <point x="457" y="354" type="line"/>
      <point x="712" y="354" type="line"/>
      <point x="712" y="336" type="line"/>
      <point x="654" y="331"/>
      <point x="642" y="318"/>
      <point x="642" y="259" type="curve" smooth="yes"/>
      <point x="642" y="56" type="line"/>
      <point x="602" y="21"/>
      <point x="477" y="-14"/>
      <point x="391" y="-14" type="curve" smooth="yes"/>
      <point x="255" y="-14"/>
      <point x="35" y="54"/>
      <point x="35" y="325" type="curve" smooth="yes"/>
      <point x="35" y="529"/>
      <point x="178" y="676"/>
      <point x="378" y="676" type="curve" smooth="yes"/>
      <point x="478" y="676"/>
      <point x="523" y="643"/>
      <point x="558" y="643" type="curve" smooth="yes"/>
      <point x="579" y="643"/>
      <point x="597" y="657"/>
      <point x="603" y="676" type="curve"/>
      <point x="625" y="676" type="line"/>
      <point x="633" y="465" type="line"/>
      <point x="610" y="465" type="line"/>
      <point x="576" y="547"/>
      <point x="525" y="636"/>
    </contour>
  </outline>
</glyph>
<glyph name="H" format="2">
  <advance width="714"/>
  <unicode hex="0048"/>
  <outline>
    <contour>
      <point x="205" y="359" type="line"/>
      <point x="508" y="359" type="line"/>
      <point x="508" y="553" type="line" smooth="yes"/>
      <point x="508" y="625"/>
      <point x="497" y="636"/>
      <point x="420" y="643" type="curve"/>
      <point x="420" y="662" type="line"/>
      <point x="698" y="662" type="line"/>
      <point x="698" y="643" type="line"/>
      <point x="621" y="636"/>
      <point x="610" y="625"/>
      <point x="610" y="553" type="curve" smooth="yes"/>
      <point x="610" y="109" type="line" smooth="yes"/>
      <point x="610" y="38"/>
      <point x="623" y="25"/>
      <point x="698" y="19" type="curve"/>
      <point x="698" y="0" type="line"/>
      <point x="420" y="0" type="line"/>
      <point x="420" y="19" type="line"/>
      <point x="498" y="24"/>
      <point x="508" y="36"/>
      <point x="508" y="120" type="curve" smooth="yes"/>
      <point x="508" y="315" type="line"/>
      <point x="205" y="315" type="line"/>
      <point x="205" y="109" type="line" smooth="yes"/>
      <point x="205" y="38"/>
      <point x="218" y="25"/>
      <point x="293" y="19" type="curve"/>
      <point x="293" y="0" type="line"/>
      <point x="15" y="0" type="line"/>
      <point x="15" y="19" type="line"/>
      <point x="93" y="24"/>
      <point x="103" y="36"/>
      <point x="103" y="120" type="curve" smooth="yes"/>
      <point x="103" y="553" type="line" smooth="yes"/>
      <point x="103" y="625"/>
      <point x="92" y="636"/>
      <point x="15" y="643" type="curve"/>
      <point x="15" y="662" type="line"/>
      <point x="293" y="662" type="line"/>
      <point x="293" y="643" type="line"/>
      <point x="216" y="636"/>
      <point x="205" y="625"/>
      <point x="205" y="553" type="curve" smooth="yes"/>
    </contour>
  </outline>
</glyph>
<glyph name="I" format="2">
  <advance width="327"/>
  <unicode hex="0049"/>
  <outline>
    <contour>
      <point x="112" y="109" type="curve" smooth="yes"/>
      <point x="112" y="553" type="line" smooth="yes"/>
      <point x="112" y="627"/>
      <point x="100" y="638"/>
      <point x="15" y="643" type="curve"/>
      <point x="15" y="662" type="line"/>
      <point x="312" y="662" type="line"/>
      <point x="312" y="643" type="line"/>
      <point x="228" y="639"/>
      <point x="214" y="626"/>
      <point x="214" y="553" type="curve" smooth="yes"/>
      <point x="214" y="109" type="line" smooth="yes"/>
      <point x="214" y="36"/>
      <point x="230" y="22"/>
      <point x="312" y="19" type="curve"/>
      <point x="312" y="0" type="line"/>
      <point x="15" y="0" type="line"/>
      <point x="15" y="19" type="line"/>
      <point x="99" y="22"/>
      <point x="112" y="34"/>
    </contour>
  </outline>
</glyph>
<glyph name="K" format="2">
  <advance width="709"/>
  <unicode hex="004B"/>
  <outline>
    <contour>
      <point x="394" y="643" type="curve"/>
      <point x="394" y="662" type="line"/>
      <point x="656" y="662" type="line"/>
      <point x="656" y="643" type="line"/>
      <point x="588" y="638"/>
      <point x="571" y="631"/>
      <point x="504" y="565" type="curve" smooth="yes"/>
      <point x="314" y="377" type="line"/>
      <point x="547" y="127" type="line" smooth="yes"/>
      <point x="638" y="30"/>
      <point x="652" y="20"/>
      <point x="704" y="19" type="curve"/>
      <point x="704" y="0" type="line"/>
      <point x="399" y="0" type="line"/>
      <point x="399" y="19" type="line"/>
      <point x="425.808" y="21.2344"/>
      <point x="469" y="21"/>
      <point x="469" y="42" type="curve" smooth="yes"/>
      <point x="469" y="66"/>
      <point x="415" y="137"/>
      <point x="339" y="212" type="curve" smooth="yes"/>
      <point x="233" y="317" type="line"/>
      <point x="207" y="296" type="line"/>
      <point x="207" y="109" type="line" smooth="yes"/>
      <point x="207" y="36"/>
      <point x="219" y="24"/>
      <point x="297" y="19" type="curve"/>
      <point x="297" y="0" type="line"/>
      <point x="15" y="0" type="line"/>
      <point x="15" y="19" type="line"/>
      <point x="94" y="24"/>
      <point x="105" y="37"/>
      <point x="105" y="120" type="curve" smooth="yes"/>
      <point x="105" y="553" type="line" smooth="yes"/>
      <point x="105" y="624"/>
      <point x="93" y="637"/>
      <point x="15" y="643" type="curve"/>
      <point x="15" y="662" type="line"/>
      <point x="299" y="662" type="line"/>
      <point x="299" y="643" type="line"/>
      <point x="218" y="637"/>
      <point x="207" y="626"/>
      <point x="207" y="553" type="curve" smooth="yes"/>
      <point x="207" y="348" type="line"/>
      <point x="384" y="509" type="line" smooth="yes"/>
      <point x="439" y="560"/>
      <point x="462" y="590"/>
      <point x="462" y="612" type="curve" smooth="yes"/>
      <point x="462" y="632"/>
      <point x="450" y="640"/>
      <point x="420" y="642" type="curve" smooth="yes"/>
      <point x="416" y="642"/>
      <point x="406" y="642"/>
    </contour>
  </outline>
</glyph>
<glyph name="L" format="2">
  <advance width="611"/>
  <unicode hex="004C"/>
  <outline>
    <contour>
      <point x="357" y="39" type="line" smooth="yes"/>
      <point x="532" y="39"/>
      <point x="556" y="128"/>
      <point x="576" y="174" type="curve"/>
      <point x="601" y="174" type="line"/>
      <point x="553" y="0" type="line"/>
      <point x="15" y="0" type="line"/>
      <point x="15" y="19" type="line"/>
      <point x="88" y="24"/>
      <point x="102" y="39"/>
      <point x="102" y="109" type="curve" smooth="yes"/>
      <point x="102" y="553" type="line" smooth="yes"/>
      <point x="102" y="623"/>
      <point x="89" y="637"/>
      <point x="15" y="643" type="curve"/>
      <point x="15" y="662" type="line"/>
      <point x="297" y="662" type="line"/>
      <point x="297" y="643" type="line"/>
      <point x="218" y="638"/>
      <point x="204" y="624"/>
      <point x="204" y="553" type="curve" smooth="yes"/>
      <point x="204" y="80" type="line" smooth="yes"/>
      <point x="204" y="45"/>
      <point x="217" y="39"/>
      <point x="290" y="39" type="curve" smooth="yes"/>
    </contour>
  </outline>
</glyph>
<glyph name="M" format="2">
  <advance width="881"/>
  <unicode hex="004D"/>
  <outline>
    <contour>
      <point x="677" y="573" type="line"/>
      <point x="421" y="0" type="line"/>
      <point x="407" y="0" type="line"/>
      <point x="156" y="550" type="line"/>
      <point x="156" y="147" type="line" smooth="yes"/>
      <point x="156" y="46"/>
      <point x="173" y="23"/>
      <point x="250" y="19" type="curve"/>
      <point x="250" y="0" type="line"/>
      <point x="15" y="0" type="line"/>
      <point x="15" y="19" type="line"/>
      <point x="98" y="25"/>
      <point x="112" y="44"/>
      <point x="112" y="147" type="curve" smooth="yes"/>
      <point x="112" y="553" type="line" smooth="yes"/>
      <point x="112" y="626"/>
      <point x="99" y="638"/>
      <point x="17" y="643" type="curve"/>
      <point x="17" y="662" type="line"/>
      <point x="215" y="662" type="line"/>
      <point x="446" y="157" type="line"/>
      <point x="667" y="662" type="line"/>
      <point x="866" y="662" type="line"/>
      <point x="866" y="643" type="line"/>
      <point x="792" y="637"/>
      <point x="779" y="624"/>
      <point x="779" y="553" type="curve" smooth="yes"/>
      <point x="779" y="109" type="line" smooth="yes"/>
      <point x="779" y="38"/>
      <point x="793" y="24"/>
      <point x="866" y="19" type="curve"/>
      <point x="866" y="0" type="line"/>
      <point x="586" y="0" type="line"/>
      <point x="586" y="19" type="line"/>
      <point x="665" y="24"/>
      <point x="677" y="37"/>
      <point x="677" y="120" type="curve" smooth="yes"/>
    </contour>
  </outline>
</glyph>
<glyph name="N" format="2">
  <advance width="725"/>
  <unicode hex="004E"/>
  <outline>
    <contour>
      <point x="710" y="643" type="line"/>
      <point x="649" y="637"/>
      <point x="615" y="632"/>
      <point x="615" y="515" type="curve" smooth="yes"/>
      <point x="615" y="-11" type="line"/>
      <point x="598" y="-11" type="line"/>
      <point x="156" y="539" type="line"/>
      <point x="156" y="147" type="line" smooth="yes"/>
      <point x="156" y="46"/>
      <point x="173" y="23"/>
      <point x="250" y="19" type="curve"/>
      <point x="250" y="0" type="line"/>
      <point x="15" y="0" type="line"/>
      <point x="15" y="19" type="line"/>
      <point x="98" y="25"/>
      <point x="112" y="44"/>
      <point x="112" y="147" type="curve" smooth="yes"/>
      <point x="112" y="588" type="line"/>
      <point x="72" y="635"/>
      <point x="58" y="643"/>
      <point x="15" y="643" type="curve"/>
      <point x="15" y="662" type="line"/>
      <point x="186" y="662" type="line"/>
      <point x="571" y="178" type="line"/>
      <point x="571" y="515" type="line" smooth="yes"/>
      <point x="571" y="619"/>
      <point x="552" y="637"/>
      <point x="475" y="643" type="curve"/>
      <point x="475" y="662" type="line"/>
      <point x="710" y="662" type="line"/>
    </contour>
  </outline>
</glyph>
<glyph name="O" format="2">
  <advance width="724"/>
  <unicode hex="004F"/>
  <outline>
    <contour>
      <point x="356" y="-14" type="curve" smooth="yes"/>
      <point x="181" y="-14"/>
      <point x="35" y="121"/>
      <point x="35" y="331" type="curve" smooth="yes"/>
      <point x="35" y="532"/>
      <point x="171" y="676"/>
      <point x="362" y="676" type="curve" smooth="yes"/>
      <point x="552" y="676"/>
      <point x="689" y="536"/>
      <point x="689" y="327" type="curve" smooth="yes"/>
      <point x="689" y="126"/>
      <point x="553" y="-14"/>
    </contour>
    <contour>
      <point x="575" y="328" type="curve" smooth="yes"/>
      <point x="575" y="577"/>
      <point x="450" y="640"/>
      <point x="362" y="640" type="curve" smooth="yes"/>
      <point x="190" y="640"/>
      <point x="149" y="453"/>
      <point x="149" y="329" type="curve" smooth="yes"/>
      <point x="149" y="208"/>
      <point x="191" y="22"/>
      <point x="360" y="22" type="curve" smooth="yes"/>
      <point x="532" y="22"/>
      <point x="575" y="208"/>
    </contour>
  </outline>
</glyph>
<glyph name="P" format="2">
  <advance width="576"/>
  <unicode hex="0050"/>
  <outline>
    <contour>
      <point x="541" y="481" type="curve" smooth="yes"/>
      <point x="541" y="404"/>
      <point x="500" y="288"/>
      <point x="270" y="288" type="curve" smooth="yes"/>
      <point x="244" y="288"/>
      <point x="227" y="289"/>
      <point x="201" y="291" type="curve"/>
      <point x="201" y="109" type="line" smooth="yes"/>
      <point x="201" y="36"/>
      <point x="216" y="22"/>
      <point x="295" y="19" type="curve"/>
      <point x="295" y="0" type="line"/>
      <point x="15" y="0" type="line"/>
      <point x="15" y="19" type="line"/>
      <point x="91" y="26"/>
      <point x="99" y="36"/>
      <point x="99" y="120" type="curve" smooth="yes"/>
      <point x="99" y="553" type="line" smooth="yes"/>
      <point x="99" y="625"/>
      <point x="89" y="635"/>
      <point x="15" y="643" type="curve"/>
      <point x="15" y="662" type="line"/>
      <point x="279" y="662" type="line" smooth="yes"/>
      <point x="387" y="662"/>
      <point x="541" y="626"/>
    </contour>
    <contour>
      <point x="201" y="591" type="curve" smooth="yes"/>
      <point x="201" y="331" type="line"/>
      <point x="224" y="329"/>
      <point x="238" y="328"/>
      <point x="258" y="328" type="curve" smooth="yes"/>
      <point x="373" y="328"/>
      <point x="432" y="378"/>
      <point x="432" y="475" type="curve" smooth="yes"/>
      <point x="432" y="578"/>
      <point x="370" y="625"/>
      <point x="235" y="625" type="curve" smooth="yes"/>
      <point x="208" y="625"/>
      <point x="201" y="618"/>
    </contour>
  </outline>
</glyph>
<glyph name="Q" format="2">
  <advance width="723"/>
  <unicode hex="0051"/>
  <outline>
    <contour>
      <point x="689" y="331" type="curve" smooth="yes"/>
      <point x="689" y="61"/>
      <point x="481" y="3"/>
      <point x="427" y="-7" type="curve"/>
      <point x="508" y="-112"/>
      <point x="588" y="-156"/>
      <point x="702" y="-159" type="curve"/>
      <point x="702" y="-177" type="line"/>
      <point x="686.25" y="-178"/>
      <point x="678" y="-178"/>
      <point x="661" y="-178" type="curve" smooth="yes"/>
      <point x="398" y="-178"/>
      <point x="322" y="-65"/>
      <point x="266" y="-1" type="curve"/>
      <point x="151" y="38"/>
      <point x="35" y="131"/>
      <point x="35" y="329" type="curve" smooth="yes"/>
      <point x="35" y="532"/>
      <point x="171" y="676"/>
      <point x="362" y="676" type="curve" smooth="yes"/>
      <point x="553" y="676"/>
      <point x="689" y="532"/>
    </contour>
    <contour>
      <point x="575" y="333" type="curve" smooth="yes"/>
      <point x="575" y="520"/>
      <point x="491" y="640"/>
      <point x="365" y="640" type="curve" smooth="yes"/>
      <point x="192" y="640"/>
      <point x="149" y="456"/>
      <point x="149" y="335" type="curve" smooth="yes"/>
      <point x="149" y="87"/>
      <point x="271" y="22"/>
      <point x="362" y="22" type="curve" smooth="yes"/>
      <point x="532" y="22"/>
      <point x="575" y="207"/>
    </contour>
  </outline>
</glyph>
<glyph name="R" format="2">
  <advance width="667"/>
  <unicode hex="0052"/>
  <outline>
    <contour>
      <point x="291" y="662" type="line" smooth="yes"/>
      <point x="389" y="662"/>
      <point x="545" y="636"/>
      <point x="545" y="486" type="curve" smooth="yes"/>
      <point x="545" y="348"/>
      <point x="405" y="327"/>
      <point x="364" y="319" type="curve"/>
      <point x="570" y="66" type="line"/>
      <point x="599" y="32"/>
      <point x="619" y="22"/>
      <point x="657" y="19" type="curve"/>
      <point x="657" y="0" type="line"/>
      <point x="496" y="0" type="line"/>
      <point x="258" y="308" type="line"/>
      <point x="202" y="306" type="line"/>
      <point x="202" y="109" type="line" smooth="yes"/>
      <point x="202" y="37"/>
      <point x="215" y="24"/>
      <point x="292" y="19" type="curve"/>
      <point x="292" y="0" type="line"/>
      <point x="15" y="0" type="line"/>
      <point x="15" y="19" type="line"/>
      <point x="90" y="25"/>
      <point x="100" y="37"/>
      <point x="100" y="120" type="curve" smooth="yes"/>
      <point x="100" y="553" type="line" smooth="yes"/>
      <point x="100" y="624"/>
      <point x="90" y="635"/>
      <point x="15" y="643" type="curve"/>
      <point x="15" y="662" type="line"/>
    </contour>
    <contour>
      <point x="202" y="343" type="line"/>
      <point x="350" y="346"/>
      <point x="436" y="371"/>
      <point x="436" y="488" type="curve" smooth="yes"/>
      <point x="436" y="582"/>
      <point x="378" y="625"/>
      <point x="253" y="625" type="curve" smooth="yes"/>
      <point x="213" y="625"/>
      <point x="202" y="617"/>
      <point x="202" y="589" type="curve" smooth="yes"/>
    </contour>
  </outline>
</glyph>
<glyph name="S" format="2">
  <advance width="529"/>
  <unicode hex="0053"/>
  <outline>
    <contour>
      <point x="378" y="135" type="curve" smooth="yes"/>
      <point x="378" y="306"/>
      <point x="59" y="300"/>
      <point x="59" y="505" type="curve" smooth="yes"/>
      <point x="59" y="611"/>
      <point x="143" y="676"/>
      <point x="232" y="676" type="curve" smooth="yes"/>
      <point x="306" y="676"/>
      <point x="351" y="642"/>
      <point x="382" y="642" type="curve" smooth="yes"/>
      <point x="399" y="642"/>
      <point x="410" y="653"/>
      <point x="414" y="676" type="curve"/>
      <point x="435" y="676" type="line"/>
      <point x="457" y="463" type="line"/>
      <point x="432" y="463" type="line"/>
      <point x="398" y="587"/>
      <point x="322" y="635"/>
      <point x="249" y="635" type="curve" smooth="yes"/>
      <point x="187" y="635"/>
      <point x="145" y="597"/>
      <point x="145" y="542" type="curve" smooth="yes"/>
      <point x="145" y="488"/>
      <point x="187" y="444"/>
      <point x="292" y="386" type="curve" smooth="yes"/>
      <point x="424" y="315"/>
      <point x="479" y="250"/>
      <point x="479" y="168" type="curve" smooth="yes"/>
      <point x="479" y="65"/>
      <point x="390" y="-14"/>
      <point x="275" y="-14" type="curve" smooth="yes"/>
      <point x="188" y="-14"/>
      <point x="147" y="20"/>
      <point x="110" y="20" type="curve" smooth="yes"/>
      <point x="95" y="20"/>
      <point x="83" y="6"/>
      <point x="82" y="-13" type="curve"/>
      <point x="60" y="-13" type="line"/>
      <point x="30" y="199" type="line"/>
      <point x="53" y="199" type="line"/>
      <point x="103" y="77"/>
      <point x="166" y="22"/>
      <point x="255" y="22" type="curve" smooth="yes"/>
      <point x="328" y="22"/>
      <point x="378" y="68"/>
    </contour>
  </outline>
</glyph>
<glyph name="T" format="2">
  <advance width="606"/>
  <unicode hex="0054"/>
  <outline>
    <contour>
      <point x="252" y="620" type="line"/>
      <point x="198" y="620" type="line" smooth="yes"/>
      <point x="86" y="620"/>
      <point x="63" y="601"/>
      <point x="39" y="492" type="curve"/>
      <point x="15" y="492" type="line"/>
      <point x="21" y="662" type="line"/>
      <point x="585" y="662" type="line"/>
      <point x="591" y="492" type="line"/>
      <point x="567" y="492" type="line"/>
      <point x="544" y="602"/>
      <point x="522" y="620"/>
      <point x="408" y="620" type="curve" smooth="yes"/>
      <point x="354" y="620" type="line"/>
      <point x="354" y="109" type="line" smooth="yes"/>
      <point x="354" y="36"/>
      <point x="368" y="23"/>
      <point x="450" y="19" type="curve"/>
      <point x="450" y="0" type="line"/>
      <point x="158" y="0" type="line"/>
      <point x="158" y="19" type="line"/>
      <point x="241" y="24"/>
      <point x="252" y="35"/>
      <point x="252" y="120" type="curve" smooth="yes"/>
    </contour>
  </outline>
</glyph>
<glyph name="U" format="2">
  <advance width="721"/>
  <unicode hex="0055"/>
  <outline>
    <contour>
      <point x="207" y="233" type="line" smooth="yes"/>
      <point x="207" y="111"/>
      <point x="241" y="30"/>
      <point x="379" y="30" type="curve" smooth="yes"/>
      <point x="454" y="30"/>
      <point x="518" y="61"/>
      <point x="545" y="109" type="curve" smooth="yes"/>
      <point x="561" y="139"/>
      <point x="568" y="177"/>
      <point x="568" y="245" type="curve" smooth="yes"/>
      <point x="568" y="515" type="line" smooth="yes"/>
      <point x="568" y="615"/>
      <point x="552" y="637"/>
      <point x="474" y="643" type="curve"/>
      <point x="474" y="662" type="line"/>
      <point x="706" y="662" type="line"/>
      <point x="706" y="643" type="line"/>
      <point x="624" y="633"/>
      <point x="612" y="617"/>
      <point x="612" y="515" type="curve" smooth="yes"/>
      <point x="612" y="254" type="line" smooth="yes"/>
      <point x="612" y="111"/>
      <point x="570" y="-14"/>
      <point x="356" y="-14" type="curve" smooth="yes"/>
      <point x="186" y="-14"/>
      <point x="105" y="68"/>
      <point x="105" y="241" type="curve" smooth="yes"/>
      <point x="105" y="553" type="line" smooth="yes"/>
      <point x="105" y="626"/>
      <point x="94" y="637"/>
      <point x="15" y="643" type="curve"/>
      <point x="15" y="662" type="line"/>
      <point x="298" y="662" type="line"/>
      <point x="298" y="643" type="line"/>
      <point x="218" y="636"/>
      <point x="207" y="625"/>
      <point x="207" y="553" type="curve" smooth="yes"/>
    </contour>
  </outline>
</glyph>
<glyph name="V" format="2">
  <advance width="701"/>
  <unicode hex="0056"/>
  <outline>
    <contour>
      <point x="691" y="662" type="line"/>
      <point x="691" y="643" type="line"/>
      <point x="643" y="640"/>
      <point x="631" y="630"/>
      <point x="599" y="550" type="curve" smooth="yes"/>
      <point x="377" y="-11" type="line"/>
      <point x="362" y="-11" type="line"/>
      <point x="116" y="538" type="line" smooth="yes"/>
      <point x="76" y="628"/>
      <point x="59" y="641"/>
      <point x="10" y="643" type="curve"/>
      <point x="10" y="662" type="line"/>
      <point x="276" y="662" type="line"/>
      <point x="276" y="643" type="line"/>
      <point x="262" y="642"/>
      <point x="251" y="641"/>
      <point x="247" y="641" type="curve" smooth="yes"/>
      <point x="215" y="639"/>
      <point x="201" y="629"/>
      <point x="201" y="610" type="curve" smooth="yes"/>
      <point x="201" y="595"/>
      <point x="209" y="572"/>
      <point x="242" y="499" type="curve" smooth="yes"/>
      <point x="393" y="161" type="line"/>
      <point x="540" y="528" type="line" smooth="yes"/>
      <point x="552" y="558"/>
      <point x="559" y="585"/>
      <point x="559" y="601" type="curve" smooth="yes"/>
      <point x="559" y="629"/>
      <point x="541" y="640"/>
      <point x="486" y="643" type="curve"/>
      <point x="486" y="662" type="line"/>
    </contour>
  </outline>
</glyph>
<glyph name="W" format="2">
  <advance width="947"/>
  <unicode hex="0057"/>
  <outline>
    <contour>
      <point x="937" y="662" type="line"/>
      <point x="937" y="643" type="line"/>
      <point x="884" y="633"/>
      <point x="873" y="624"/>
      <point x="854" y="572" type="curve" smooth="yes"/>
      <point x="745" y="278"/>
      <point x="735" y="250"/>
      <point x="650" y="-11" type="curve"/>
      <point x="635" y="-11" type="line"/>
      <point x="475" y="412" type="line"/>
      <point x="321" y="-11" type="line"/>
      <point x="306" y="-11" type="line"/>
      <point x="113" y="526" type="line" smooth="yes"/>
      <point x="79" y="621"/>
      <point x="61" y="638"/>
      <point x="10" y="643" type="curve"/>
      <point x="10" y="662" type="line"/>
      <point x="255" y="662" type="line"/>
      <point x="255" y="643" type="line"/>
      <point x="204" y="640"/>
      <point x="190" y="633"/>
      <point x="190" y="611" type="curve" smooth="yes"/>
      <point x="190" y="600"/>
      <point x="194" y="583"/>
      <point x="201" y="565" type="curve" smooth="yes"/>
      <point x="345" y="189" type="line"/>
      <point x="452" y="471" type="line"/>
      <point x="419" y="553" type="line" smooth="yes"/>
      <point x="387" y="634"/>
      <point x="375" y="642"/>
      <point x="318" y="643" type="curve"/>
      <point x="318" y="662" type="line"/>
      <point x="585" y="662" type="line"/>
      <point x="585" y="643" type="line"/>
      <point x="531" y="642"/>
      <point x="508" y="632"/>
      <point x="508" y="608" type="curve" smooth="yes"/>
      <point x="508" y="591"/>
      <point x="520" y="566"/>
      <point x="535" y="527" type="curve" smooth="yes"/>
      <point x="667" y="186" type="line"/>
      <point x="792" y="525" type="line" smooth="yes"/>
      <point x="802" y="553"/>
      <point x="808" y="579"/>
      <point x="808" y="600" type="curve" smooth="yes"/>
      <point x="808" y="627"/>
      <point x="790" y="638"/>
      <point x="739" y="643" type="curve"/>
      <point x="739" y="662" type="line"/>
    </contour>
  </outline>
</glyph>
<glyph name="Y" format="2">
  <advance width="701"/>
  <unicode hex="0059"/>
  <outline>
    <contour>
      <point x="691" y="662" type="line"/>
      <point x="691" y="643" type="line"/>
      <point x="640" y="639"/>
      <point x="612" y="619"/>
      <point x="553" y="529" type="curve" smooth="yes"/>
      <point x="405" y="303" type="line"/>
      <point x="405" y="109" type="line" smooth="yes"/>
      <point x="405" y="33"/>
      <point x="419" y="21"/>
      <point x="508" y="19" type="curve"/>
      <point x="508" y="0" type="line"/>
      <point x="202" y="0" type="line"/>
      <point x="202" y="19" type="line"/>
      <point x="293" y="23"/>
      <point x="303" y="33"/>
      <point x="303" y="120" type="curve" smooth="yes"/>
      <point x="303" y="294" type="line"/>
      <point x="172" y="486" type="line" smooth="yes"/>
      <point x="75" y="629"/>
      <point x="58" y="641"/>
      <point x="10" y="643" type="curve"/>
      <point x="10" y="662" type="line"/>
      <point x="290" y="662" type="line"/>
      <point x="290" y="643" type="line"/>
      <point x="249" y="640"/>
      <point x="219" y="634.667"/>
      <point x="219" y="613" type="curve" smooth="yes"/>
      <point x="219" y="602"/>
      <point x="225" y="585"/>
      <point x="236" y="569" type="curve" smooth="yes"/>
      <point x="384" y="347" type="line"/>
      <point x="527" y="573" type="line" smooth="yes"/>
      <point x="536" y="588"/>
      <point x="541" y="600"/>
      <point x="541" y="610" type="curve" smooth="yes"/>
      <point x="541" y="634"/>
      <point x="524" y="642"/>
      <point x="472" y="643" type="curve"/>
      <point x="472" y="662" type="line"/>
    </contour>
  </outline>
</glyph>
<glyph name="Z" format="2">
  <advance width="613"/>
  <unicode hex="005A"/>
  <outline>
    <contour>
      <point x="403" y="38" type="line" smooth="yes"/>
      <point x="538" y="38"/>
      <point x="555" y="110"/>
      <point x="575" y="176" type="curve"/>
      <point x="598" y="176" type="line"/>
      <point x="574" y="0" type="line"/>
      <point x="10" y="0" type="line"/>
      <point x="10" y="15" type="line"/>
      <point x="447" y="624" type="line"/>
      <point x="226" y="624" type="line" smooth="yes"/>
      <point x="84" y="624"/>
      <point x="70" y="559"/>
      <point x="58" y="491" type="curve"/>
      <point x="32" y="491" type="line"/>
      <point x="52" y="662" type="line"/>
      <point x="578" y="662" type="line"/>
      <point x="578" y="647" type="line"/>
      <point x="146" y="38" type="line"/>
    </contour>
  </outline>
</glyph>
<glyph name="bracketleft" format="2">
  <advance width="265"/>
  <unicode hex="005B"/>
  <outline>
    <contour>
      <point x="212" y="22" type="curve" smooth="yes"/>
      <point x="212" y="12"/>
      <point x="206" y="10"/>
      <point x="194" y="8" type="curve"/>
      <point x="97" y="8" type="line" smooth="yes"/>
      <point x="86" y="8"/>
      <point x="77" y="12"/>
      <point x="69" y="12" type="curve" smooth="yes"/>
      <point x="59" y="12"/>
      <point x="49" y="19"/>
      <point x="49" y="27" type="curve" smooth="yes"/>
      <point x="48" y="29"/>
      <point x="48" y="32"/>
      <point x="48" y="34" type="curve" smooth="yes"/>
      <point x="48" y="39"/>
      <point x="49" y="47"/>
      <point x="49" y="57" type="curve" smooth="yes"/>
      <point x="49" y="125" type="line" smooth="yes"/>
      <point x="49" y="156"/>
      <point x="54" y="197"/>
      <point x="54" y="252" type="curve" smooth="yes"/>
      <point x="54" y="335"/>
      <point x="58" y="404"/>
      <point x="58" y="460" type="curve" smooth="yes"/>
      <point x="58" y="534.333"/>
      <point x="58" y="608.667"/>
      <point x="58" y="683" type="curve" smooth="yes"/>
      <point x="58" y="695"/>
      <point x="60" y="699"/>
      <point x="73" y="702" type="curve" smooth="yes"/>
      <point x="80" y="704"/>
      <point x="90" y="706"/>
      <point x="100" y="706" type="curve" smooth="yes"/>
      <point x="110" y="708"/>
      <point x="122" y="708"/>
      <point x="134" y="708" type="curve" smooth="yes"/>
      <point x="155" y="708"/>
      <point x="176" y="708"/>
      <point x="197" y="708" type="curve"/>
      <point x="212" y="705"/>
      <point x="219" y="705"/>
      <point x="219" y="691" type="curve" smooth="yes"/>
      <point x="219" y="677"/>
      <point x="215" y="676"/>
      <point x="200" y="676" type="curve" smooth="yes"/>
      <point x="154" y="676" type="line" smooth="yes"/>
      <point x="139" y="676"/>
      <point x="137" y="672"/>
      <point x="137" y="657" type="curve" smooth="yes"/>
      <point x="137" y="642" type="line" smooth="yes"/>
      <point x="137" y="626"/>
      <point x="136" y="604"/>
      <point x="136" y="577" type="curve" smooth="yes"/>
      <point x="136" y="521"/>
      <point x="136" y="465"/>
      <point x="136" y="409" type="curve" smooth="yes"/>
      <point x="136" y="364"/>
      <point x="130" y="319"/>
      <point x="130" y="277" type="curve" smooth="yes"/>
      <point x="130" y="234"/>
      <point x="127" y="196"/>
      <point x="127" y="163" type="curve" smooth="yes"/>
      <point x="127" y="80" type="line" smooth="yes"/>
      <point x="127" y="49"/>
      <point x="128" y="39"/>
      <point x="148" y="39" type="curve" smooth="yes"/>
      <point x="155" y="38"/>
      <point x="163" y="39"/>
      <point x="171" y="39" type="curve" smooth="yes"/>
      <point x="193" y="39" type="line" smooth="yes"/>
      <point x="208" y="39"/>
      <point x="212" y="35"/>
    </contour>
  </outline>
</glyph>
<glyph name="backslash" format="2">
  <advance width="380"/>
  <unicode hex="005C"/>
  <outline>
    <contour>
      <point x="52.7998" y="679.36" type="line"/>
      <point x="124.96" y="679.36" type="line"/>
      <point x="355.52" y="-7.04004" type="line"/>
      <point x="281.6" y="-7.04004" type="line"/>
    </contour>
  </outline>
</glyph>
<glyph name="bracketright" format="2">
  <advance width="265"/>
  <unicode hex="005D"/>
  <outline>
    <contour>
      <point x="48" y="23" type="curve" smooth="yes"/>
      <point x="48" y="35"/>
      <point x="51" y="39"/>
      <point x="67" y="39" type="curve" smooth="yes"/>
      <point x="111" y="39" type="line" smooth="yes"/>
      <point x="132" y="39"/>
      <point x="132" y="49"/>
      <point x="132" y="79" type="curve" smooth="yes"/>
      <point x="132" y="162" type="line" smooth="yes"/>
      <point x="132" y="197"/>
      <point x="128" y="234"/>
      <point x="128" y="276" type="curve" smooth="yes"/>
      <point x="128" y="319"/>
      <point x="123" y="364"/>
      <point x="123" y="410" type="curve" smooth="yes"/>
      <point x="123" y="491"/>
      <point x="123" y="572"/>
      <point x="123" y="653" type="curve" smooth="yes"/>
      <point x="123" y="671"/>
      <point x="122" y="676"/>
      <point x="106" y="676" type="curve" smooth="yes"/>
      <point x="60" y="676" type="line" smooth="yes"/>
      <point x="44" y="676"/>
      <point x="40" y="678"/>
      <point x="40" y="690" type="curve" smooth="yes"/>
      <point x="40" y="706"/>
      <point x="48" y="704"/>
      <point x="62" y="708" type="curve"/>
      <point x="125" y="708" type="line" smooth="yes"/>
      <point x="137" y="708"/>
      <point x="150" y="708"/>
      <point x="158" y="706" type="curve" smooth="yes"/>
      <point x="169" y="706"/>
      <point x="180" y="704"/>
      <point x="187" y="702" type="curve" smooth="yes"/>
      <point x="201" y="699"/>
      <point x="202" y="696"/>
      <point x="202" y="679" type="curve" smooth="yes"/>
      <point x="202" y="605.667"/>
      <point x="202" y="532.333"/>
      <point x="202" y="459" type="curve" smooth="yes"/>
      <point x="202" y="405"/>
      <point x="206" y="334"/>
      <point x="206" y="252" type="curve" smooth="yes"/>
      <point x="206" y="197"/>
      <point x="211" y="157"/>
      <point x="211" y="125" type="curve" smooth="yes"/>
      <point x="211" y="28" type="line" smooth="yes"/>
      <point x="211" y="19"/>
      <point x="201" y="12"/>
      <point x="190" y="12" type="curve" smooth="yes"/>
      <point x="183" y="12"/>
      <point x="172" y="9"/>
      <point x="162" y="9" type="curve" smooth="yes"/>
      <point x="65" y="9" type="line" smooth="yes"/>
      <point x="53" y="9"/>
      <point x="48" y="12"/>
    </contour>
  </outline>
</glyph>
<glyph name="asciicircum" format="2">
  <advance width="438"/>
  <unicode hex="005E"/>
  <outline>
    <contour>
      <point x="102.08" y="429.44" type="line"/>
      <point x="45.7598" y="429.44" type="line"/>
      <point x="195.36" y="732.16" type="line"/>
      <point x="244.641" y="732.16" type="line"/>
      <point x="394.24" y="429.44" type="line"/>
      <point x="337.92" y="429.44" type="line"/>
      <point x="220" y="668.801" type="line"/>
    </contour>
  </outline>
</glyph>
<glyph name="underscore" format="2">
  <advance width="737"/>
  <unicode hex="005F"/>
  <outline>
    <contour>
      <point x="21.1201" y="42.2402" type="line"/>
      <point x="723.36" y="42.2402" type="line"/>
      <point x="702.24" y="0" type="line"/>
      <point x="0" y="0" type="line"/>
    </contour>
  </outline>
</glyph>
<glyph name="grave" format="2">
  <advance width="295"/>
  <unicode hex="0060"/>
  <outline>
    <contour>
      <point x="267.52" y="520.96" type="line"/>
      <point x="225.279" y="520.959" type="line"/>
      <point x="66.8789" y="623.039" type="line" smooth="yes"/>
      <point x="47.5186" y="635.359"/>
      <point x="35.1992" y="649.439"/>
      <point x="35.1992" y="667.039" type="curve" smooth="yes"/>
      <point x="35.1992" y="686.399"/>
      <point x="49.2793" y="698.72"/>
      <point x="70.3994" y="698.72" type="curve" smooth="yes"/>
      <point x="86.2393" y="698.72"/>
      <point x="96.7988" y="693.439"/>
      <point x="114.399" y="675.84" type="curve" smooth="yes"/>
    </contour>
  </outline>
</glyph>
<glyph name="a" format="2">
  <advance width="435"/>
  <unicode hex="0061"/>
  <outline>
    <contour>
      <point x="25" y="97" type="curve" smooth="yes"/>
      <point x="25" y="205"/>
      <point x="151" y="242"/>
      <point x="275" y="292" type="curve"/>
      <point x="275" y="353" type="line" smooth="yes"/>
      <point x="275" y="407"/>
      <point x="248" y="436"/>
      <point x="199" y="436" type="curve" smooth="yes"/>
      <point x="159" y="436"/>
      <point x="127" y="414"/>
      <point x="127" y="387" type="curve" smooth="yes"/>
      <point x="127" y="373"/>
      <point x="132" y="356"/>
      <point x="132" y="347" type="curve" smooth="yes"/>
      <point x="132" y="325"/>
      <point x="111" y="305"/>
      <point x="87" y="305" type="curve" smooth="yes"/>
      <point x="64" y="305"/>
      <point x="44" y="325"/>
      <point x="44" y="348" type="curve" smooth="yes"/>
      <point x="44" y="411"/>
      <point x="118" y="460"/>
      <point x="212" y="460" type="curve" smooth="yes"/>
      <point x="328" y="460"/>
      <point x="356" y="400"/>
      <point x="356" y="300" type="curve" smooth="yes"/>
      <point x="356" y="105" type="line" smooth="yes"/>
      <point x="356" y="61"/>
      <point x="363" y="47"/>
      <point x="386" y="47" type="curve" smooth="yes"/>
      <point x="401" y="47"/>
      <point x="413" y="52"/>
      <point x="430" y="66" type="curve"/>
      <point x="430" y="40" type="line"/>
      <point x="395" y="2"/>
      <point x="374" y="-10"/>
      <point x="340" y="-10" type="curve" smooth="yes"/>
      <point x="299" y="-10"/>
      <point x="281" y="11"/>
      <point x="276" y="63" type="curve"/>
      <point x="215" y="11"/>
      <point x="174" y="-10"/>
      <point x="130" y="-10" type="curve" smooth="yes"/>
      <point x="69" y="-10"/>
      <point x="25" y="34"/>
    </contour>
    <contour>
      <point x="275" y="123" type="curve" smooth="yes"/>
      <point x="275" y="268" type="line"/>
      <point x="154" y="224"/>
      <point x="113" y="188"/>
      <point x="113" y="129" type="curve" smooth="yes"/>
      <point x="113" y="68.8018"/>
      <point x="150.8" y="48"/>
      <point x="176" y="48" type="curve" smooth="yes"/>
      <point x="197" y="48"/>
      <point x="225" y="57"/>
      <point x="249" y="71" type="curve" smooth="yes"/>
      <point x="270" y="83"/>
      <point x="275" y="92"/>
    </contour>
  </outline>
</glyph>
<glyph name="b" format="2">
  <advance width="500"/>
  <unicode hex="0062"/>
  <outline>
    <contour>
      <point x="160" y="681" type="line"/>
      <point x="160" y="375" type="line"/>
      <point x="180" y="424"/>
      <point x="238" y="460"/>
      <point x="299" y="460" type="curve" smooth="yes"/>
      <point x="399" y="460"/>
      <point x="475" y="366"/>
      <point x="475" y="243" type="curve" smooth="yes"/>
      <point x="475" y="100"/>
      <point x="373" y="-10"/>
      <point x="241" y="-10" type="curve" smooth="yes"/>
      <point x="161" y="-10"/>
      <point x="76" y="23"/>
      <point x="76" y="54" type="curve" smooth="yes"/>
      <point x="76" y="573" type="line" smooth="yes"/>
      <point x="76" y="615"/>
      <point x="67" y="624"/>
      <point x="27" y="624" type="curve" smooth="yes"/>
      <point x="20" y="624"/>
      <point x="16" y="624"/>
      <point x="10" y="623" type="curve"/>
      <point x="10" y="639" type="line"/>
      <point x="58.6621" y="651.105"/>
      <point x="107.032" y="665.49"/>
      <point x="155" y="683" type="curve"/>
    </contour>
    <contour>
      <point x="160" y="322" type="curve" smooth="yes"/>
      <point x="160" y="70" type="line" smooth="yes"/>
      <point x="160" y="45"/>
      <point x="205" y="22"/>
      <point x="257" y="22" type="curve" smooth="yes"/>
      <point x="339" y="22"/>
      <point x="387" y="86"/>
      <point x="387" y="197" type="curve" smooth="yes"/>
      <point x="387" y="319"/>
      <point x="337" y="397"/>
      <point x="259" y="397" type="curve" smooth="yes"/>
      <point x="207" y="397"/>
      <point x="160" y="361"/>
    </contour>
  </outline>
</glyph>
<glyph name="d" format="2">
  <advance width="499"/>
  <unicode hex="0064"/>
  <outline>
    <contour>
      <point x="342" y="-10" type="line"/>
      <point x="338" y="-7" type="line"/>
      <point x="338" y="57" type="line"/>
      <point x="304" y="10"/>
      <point x="266" y="-10"/>
      <point x="210" y="-10" type="curve" smooth="yes"/>
      <point x="100" y="-10"/>
      <point x="25" y="77"/>
      <point x="25" y="205" type="curve" smooth="yes"/>
      <point x="25" y="347"/>
      <point x="118" y="460"/>
      <point x="233" y="460" type="curve" smooth="yes"/>
      <point x="273" y="460"/>
      <point x="300" y="449"/>
      <point x="338" y="417" type="curve"/>
      <point x="338" y="573" type="line" smooth="yes"/>
      <point x="338" y="614"/>
      <point x="329" y="624"/>
      <point x="292" y="624" type="curve" smooth="yes"/>
      <point x="284" y="624"/>
      <point x="278" y="624"/>
      <point x="270" y="623" type="curve"/>
      <point x="270" y="639" type="line"/>
      <point x="334" y="656"/>
      <point x="369" y="666"/>
      <point x="417" y="683" type="curve"/>
      <point x="422" y="681" type="line"/>
      <point x="422" y="114" type="line" smooth="yes"/>
      <point x="422" y="68"/>
      <point x="430" y="57"/>
      <point x="466" y="57" type="curve" smooth="yes"/>
      <point x="469" y="57"/>
      <point x="471" y="57"/>
      <point x="489" y="58" type="curve"/>
      <point x="489" y="42" type="line"/>
    </contour>
    <contour>
      <point x="249" y="42" type="curve" smooth="yes"/>
      <point x="306" y="42"/>
      <point x="338" y="85"/>
      <point x="338" y="102" type="curve" smooth="yes"/>
      <point x="338" y="332" type="line" smooth="yes"/>
      <point x="338" y="385"/>
      <point x="289" y="432"/>
      <point x="236" y="432" type="curve" smooth="yes"/>
      <point x="160" y="432"/>
      <point x="111" y="358"/>
      <point x="111" y="245" type="curve" smooth="yes"/>
      <point x="111" y="122"/>
      <point x="166" y="42"/>
    </contour>
  </outline>
</glyph>
<glyph name="f" format="2">
  <advance width="373"/>
  <unicode hex="0066"/>
  <outline>
    <contour>
      <point x="331" y="580" type="curve" smooth="yes"/>
      <point x="283" y="580"/>
      <point x="290" y="655"/>
      <point x="233" y="655" type="curve" smooth="yes"/>
      <point x="195" y="655"/>
      <point x="176" y="624"/>
      <point x="176" y="566" type="curve" smooth="yes"/>
      <point x="176" y="450" type="line"/>
      <point x="299" y="450" type="line"/>
      <point x="299" y="418" type="line"/>
      <point x="177" y="418" type="line"/>
      <point x="177" y="104" type="line" smooth="yes"/>
      <point x="177" y="29"/>
      <point x="188" y="18"/>
      <point x="270" y="15" type="curve"/>
      <point x="270" y="0" type="line"/>
      <point x="10" y="0" type="line"/>
      <point x="10" y="15" type="line"/>
      <point x="82" y="19"/>
      <point x="93" y="31"/>
      <point x="93" y="104" type="curve" smooth="yes"/>
      <point x="93" y="418" type="line"/>
      <point x="11" y="418" type="line"/>
      <point x="11" y="450" type="line"/>
      <point x="93" y="450" type="line"/>
      <point x="95" y="589"/>
      <point x="137" y="683"/>
      <point x="269" y="683" type="curve" smooth="yes"/>
      <point x="329" y="683"/>
      <point x="373" y="657"/>
      <point x="373" y="621" type="curve" smooth="yes"/>
      <point x="373" y="598"/>
      <point x="354" y="580"/>
    </contour>
  </outline>
</glyph>
<glyph name="g" format="2">
  <advance width="467"/>
  <unicode hex="0067"/>
  <outline>
    <contour>
      <point x="60" y="54" type="curve" smooth="yes"/>
      <point x="60" y="80"/>
      <point x="70" y="89"/>
      <point x="149" y="163" type="curve"/>
      <point x="83" y="196"/>
      <point x="56" y="234"/>
      <point x="56" y="297" type="curve" smooth="yes"/>
      <point x="56" y="388"/>
      <point x="130" y="460"/>
      <point x="223" y="460" type="curve" smooth="yes"/>
      <point x="297.575" y="460"/>
      <point x="319.163" y="427"/>
      <point x="380" y="427" type="curve" smooth="yes"/>
      <point x="457" y="427" type="line"/>
      <point x="457" y="388" type="line"/>
      <point x="374" y="388" type="line"/>
      <point x="388" y="356"/>
      <point x="393" y="333"/>
      <point x="393" y="304" type="curve" smooth="yes"/>
      <point x="393" y="208"/>
      <point x="317" y="149"/>
      <point x="237" y="149" type="curve" smooth="yes"/>
      <point x="225.6" y="149"/>
      <point x="191.371" y="152.737"/>
      <point x="180" y="154" type="curve"/>
      <point x="153" y="146"/>
      <point x="120" y="111"/>
      <point x="120" y="91" type="curve" smooth="yes"/>
      <point x="120" y="75"/>
      <point x="145" y="66"/>
      <point x="198" y="64" type="curve" smooth="yes"/>
      <point x="327" y="58" type="line" smooth="yes"/>
      <point x="401" y="55"/>
      <point x="448" y="13"/>
      <point x="448" y="-49" type="curve" smooth="yes"/>
      <point x="448" y="-150.4"/>
      <point x="306.193" y="-218"/>
      <point x="188" y="-218" type="curve" smooth="yes"/>
      <point x="93" y="-218"/>
      <point x="15" y="-174"/>
      <point x="15" y="-121" type="curve" smooth="yes"/>
      <point x="15" y="-84"/>
      <point x="42" y="-51"/>
      <point x="113" y="1" type="curve"/>
      <point x="72" y="21"/>
      <point x="60" y="33"/>
    </contour>
    <contour>
      <point x="134" y="-2" type="curve"/>
      <point x="92" y="-52"/>
      <point x="85" y="-65"/>
      <point x="85" y="-88" type="curve" smooth="yes"/>
      <point x="85" y="-132"/>
      <point x="143" y="-161"/>
      <point x="231" y="-161" type="curve" smooth="yes"/>
      <point x="344" y="-161"/>
      <point x="420" y="-122"/>
      <point x="420" y="-64" type="curve" smooth="yes"/>
      <point x="420" y="-28"/>
      <point x="387" y="-15"/>
      <point x="296" y="-15" type="curve" smooth="yes"/>
      <point x="247" y="-15"/>
      <point x="167" y="-9"/>
    </contour>
    <contour>
      <point x="316" y="265" type="curve" smooth="yes"/>
      <point x="316" y="298"/>
      <point x="301" y="432"/>
      <point x="213" y="432" type="curve" smooth="yes"/>
      <point x="167" y="432"/>
      <point x="139" y="397"/>
      <point x="139" y="338" type="curve" smooth="yes"/>
      <point x="139" y="210.824"/>
      <point x="200.2" y="174"/>
      <point x="241" y="174" type="curve" smooth="yes"/>
      <point x="287" y="174"/>
      <point x="316" y="209"/>
    </contour>
  </outline>
</glyph>
<glyph name="h" format="2">
  <advance width="498"/>
  <unicode hex="0068"/>
  <outline>
    <contour>
      <point x="158" y="343" type="curve"/>
      <point x="158" y="102" type="line" smooth="yes"/>
      <point x="158" y="33"/>
      <point x="168" y="21"/>
      <point x="226" y="15" type="curve"/>
      <point x="226" y="0" type="line"/>
      <point x="10" y="0" type="line"/>
      <point x="10" y="15" type="line"/>
      <point x="68" y="23"/>
      <point x="74" y="32"/>
      <point x="74" y="102" type="curve" smooth="yes"/>
      <point x="74" y="573" type="line" smooth="yes"/>
      <point x="74" y="616"/>
      <point x="66.667" y="625"/>
      <point x="28" y="625" type="curve" smooth="yes"/>
      <point x="24.0625" y="625"/>
      <point x="14.9092" y="623.818"/>
      <point x="11" y="623" type="curve"/>
      <point x="11" y="639" type="line"/>
      <point x="68" y="654"/>
      <point x="97" y="663"/>
      <point x="153" y="683" type="curve"/>
      <point x="158" y="680" type="line"/>
      <point x="158" y="376" type="line"/>
      <point x="204" y="436"/>
      <point x="246" y="460"/>
      <point x="305" y="460" type="curve" smooth="yes"/>
      <point x="386" y="460"/>
      <point x="428" y="406"/>
      <point x="428" y="301" type="curve" smooth="yes"/>
      <point x="428" y="102" type="line" smooth="yes"/>
      <point x="428" y="33"/>
      <point x="434" y="25"/>
      <point x="488" y="15" type="curve"/>
      <point x="488" y="0" type="line"/>
      <point x="276" y="0" type="line"/>
      <point x="276" y="15" type="line"/>
      <point x="334" y="21"/>
      <point x="344" y="34"/>
      <point x="344" y="102" type="curve" smooth="yes"/>
      <point x="344" y="300" type="line" smooth="yes"/>
      <point x="344" y="370"/>
      <point x="319" y="406"/>
      <point x="269" y="406" type="curve" smooth="yes"/>
      <point x="230" y="406"/>
      <point x="200" y="389"/>
    </contour>
  </outline>
</glyph>
<glyph name="i" format="2">
  <advance width="278"/>
  <unicode hex="0069"/>
  <outline>
    <contour>
      <point x="62" y="393" type="curve" smooth="yes"/>
      <point x="53" y="393"/>
      <point x="35.333" y="392.333"/>
      <point x="20" y="390" type="curve"/>
      <point x="20" y="405" type="line"/>
      <point x="71.667" y="419.597"/>
      <point x="123.333" y="438.595"/>
      <point x="175" y="460" type="curve"/>
      <point x="179" y="457" type="line"/>
      <point x="179" y="102" type="line" smooth="yes"/>
      <point x="179" y="30"/>
      <point x="187" y="20"/>
      <point x="253" y="15" type="curve"/>
      <point x="253" y="0" type="line"/>
      <point x="16" y="0" type="line"/>
      <point x="16" y="15" type="line"/>
      <point x="85" y="19"/>
      <point x="95" y="30"/>
      <point x="95" y="102" type="curve" smooth="yes"/>
      <point x="95" y="334" type="line" smooth="yes"/>
      <point x="95" y="378"/>
      <point x="86" y="393"/>
    </contour>
    <contour>
      <point x="128" y="683" type="curve" smooth="yes"/>
      <point x="157" y="683"/>
      <point x="180" y="660"/>
      <point x="180" y="632" type="curve" smooth="yes"/>
      <point x="180" y="603"/>
      <point x="157" y="581"/>
      <point x="128" y="581" type="curve" smooth="yes"/>
      <point x="100" y="581"/>
      <point x="78" y="604"/>
      <point x="78" y="632" type="curve" smooth="yes"/>
      <point x="78" y="660"/>
      <point x="101" y="683"/>
    </contour>
  </outline>
</glyph>
<glyph name="j" format="2">
  <advance width="348"/>
  <unicode hex="006A"/>
  <outline>
    <contour>
      <point x="147" y="393" type="curve" smooth="yes"/>
      <point x="123" y="393"/>
      <point x="102" y="390"/>
      <point x="102" y="390" type="curve"/>
      <point x="102" y="406" type="line"/>
      <point x="161" y="424"/>
      <point x="199" y="437"/>
      <point x="258" y="460" type="curve"/>
      <point x="263" y="457" type="line"/>
      <point x="263" y="0" type="line" smooth="yes"/>
      <point x="263" y="-142"/>
      <point x="204" y="-218"/>
      <point x="94" y="-218" type="curve" smooth="yes"/>
      <point x="40" y="-218"/>
      <point x="0" y="-195"/>
      <point x="0" y="-163" type="curve" smooth="yes"/>
      <point x="0" y="-141"/>
      <point x="18" y="-124"/>
      <point x="41" y="-124" type="curve" smooth="yes"/>
      <point x="82" y="-124"/>
      <point x="93" y="-184"/>
      <point x="131" y="-184" type="curve" smooth="yes"/>
      <point x="173" y="-184"/>
      <point x="179" y="-139"/>
      <point x="179" y="-45" type="curve" smooth="yes"/>
      <point x="179" y="334" type="line" smooth="yes"/>
      <point x="179" y="377"/>
      <point x="170" y="393"/>
    </contour>
    <contour>
      <point x="212" y="683" type="curve" smooth="yes"/>
      <point x="241" y="683"/>
      <point x="264" y="660"/>
      <point x="264" y="632" type="curve" smooth="yes"/>
      <point x="264" y="603"/>
      <point x="241" y="581"/>
      <point x="212" y="581" type="curve" smooth="yes"/>
      <point x="184" y="581"/>
      <point x="162" y="604"/>
      <point x="162" y="632" type="curve" smooth="yes"/>
      <point x="162" y="660"/>
      <point x="185" y="683"/>
    </contour>
  </outline>
</glyph>
<glyph name="k" format="2">
  <advance width="513"/>
  <unicode hex="006B"/>
  <outline>
    <contour>
      <point x="10" y="623" type="curve"/>
      <point x="10.001" y="639" type="line"/>
      <point x="72.001" y="654"/>
      <point x="110.334" y="664.667"/>
      <point x="165.001" y="683" type="curve"/>
      <point x="169.001" y="681" type="line"/>
      <point x="169.001" y="261" type="line"/>
      <point x="306.001" y="383" type="line" smooth="yes"/>
      <point x="320.001" y="395"/>
      <point x="329.001" y="409"/>
      <point x="329.001" y="417" type="curve" smooth="yes"/>
      <point x="329.001" y="431"/>
      <point x="318.001" y="435"/>
      <point x="279.001" y="436" type="curve"/>
      <point x="279.001" y="450" type="line"/>
      <point x="483.001" y="450" type="line"/>
      <point x="483.001" y="435" type="line"/>
      <point x="434.465" y="435"/>
      <point x="400.732" y="433.51"/>
      <point x="267" y="309" type="curve" smooth="yes"/>
      <point x="238" y="282" type="line"/>
      <point x="391" y="88" type="line"/>
      <point x="433" y="37"/>
      <point x="464" y="18"/>
      <point x="508" y="15" type="curve"/>
      <point x="508" y="0" type="line"/>
      <point x="290" y="0" type="line"/>
      <point x="290" y="15" type="line"/>
      <point x="317" y="15"/>
      <point x="330" y="17"/>
      <point x="330" y="30" type="curve" smooth="yes"/>
      <point x="330" y="40"/>
      <point x="317" y="52"/>
      <point x="309" y="64" type="curve" smooth="yes"/>
      <point x="169" y="251" type="line"/>
      <point x="169" y="80" type="line" smooth="yes"/>
      <point x="169" y="31.5"/>
      <point x="175" y="26.5"/>
      <point x="244" y="15" type="curve"/>
      <point x="244" y="0" type="line"/>
      <point x="10" y="0" type="line"/>
      <point x="10" y="15" type="line"/>
      <point x="82" y="27"/>
      <point x="85" y="30"/>
      <point x="85" y="82" type="curve" smooth="yes"/>
      <point x="85" y="564" type="line" smooth="yes"/>
      <point x="85" y="612"/>
      <point x="75" y="625"/>
      <point x="42" y="625" type="curve" smooth="yes"/>
      <point x="32" y="625"/>
      <point x="21.6367" y="624.273"/>
    </contour>
  </outline>
</glyph>
<glyph name="l" format="2">
  <advance width="258"/>
  <unicode hex="006C"/>
  <outline>
    <contour>
      <point x="10" y="623" type="curve"/>
      <point x="10" y="639" type="line"/>
      <point x="79" y="656"/>
      <point x="117" y="666"/>
      <point x="169" y="683" type="curve"/>
      <point x="173" y="681" type="line"/>
      <point x="173" y="84" type="line" smooth="yes"/>
      <point x="173" y="29"/>
      <point x="185" y="19"/>
      <point x="248" y="15" type="curve"/>
      <point x="248" y="0" type="line"/>
      <point x="12" y="0" type="line"/>
      <point x="12" y="15" type="line"/>
      <point x="75" y="20"/>
      <point x="89" y="33"/>
      <point x="89" y="87" type="curve" smooth="yes"/>
      <point x="89" y="564" type="line" smooth="yes"/>
      <point x="89" y="611"/>
      <point x="79" y="625"/>
      <point x="47" y="625" type="curve" smooth="yes"/>
      <point x="33.7754" y="625"/>
      <point x="22.667" y="624.5"/>
    </contour>
  </outline>
</glyph>
<glyph name="m" format="2">
  <advance width="779"/>
  <unicode hex="006D"/>
  <outline>
    <contour>
      <point x="13" y="398" type="curve"/>
      <point x="13" y="415" type="line"/>
      <point x="68" y="430"/>
      <point x="102" y="441"/>
      <point x="153" y="460" type="curve"/>
      <point x="160" y="458" type="line"/>
      <point x="160" y="383" type="line"/>
      <point x="243" y="446"/>
      <point x="271" y="460"/>
      <point x="315" y="460" type="curve" smooth="yes"/>
      <point x="369" y="460"/>
      <point x="403" y="433"/>
      <point x="421" y="376" type="curve"/>
      <point x="475" y="434"/>
      <point x="526" y="460"/>
      <point x="584" y="460" type="curve" smooth="yes"/>
      <point x="661" y="460"/>
      <point x="700" y="400"/>
      <point x="700" y="282" type="curve" smooth="yes"/>
      <point x="700" y="76" type="line" smooth="yes"/>
      <point x="700" y="37"/>
      <point x="713" y="19"/>
      <point x="743" y="17" type="curve" smooth="yes"/>
      <point x="769" y="15" type="line"/>
      <point x="769" y="0" type="line"/>
      <point x="550" y="0" type="line"/>
      <point x="550" y="15" type="line"/>
      <point x="608" y="22"/>
      <point x="616" y="30"/>
      <point x="616" y="87" type="curve" smooth="yes"/>
      <point x="616" y="298" type="line" smooth="yes"/>
      <point x="616" y="381"/>
      <point x="598" y="408"/>
      <point x="541" y="408" type="curve" smooth="yes"/>
      <point x="495" y="408"/>
      <point x="462" y="390"/>
      <point x="432" y="347" type="curve"/>
      <point x="432" y="95" type="line" smooth="yes"/>
      <point x="432" y="33"/>
      <point x="447" y="16"/>
      <point x="504" y="15" type="curve"/>
      <point x="504" y="0" type="line"/>
      <point x="280" y="0" type="line"/>
      <point x="280" y="15" type="line"/>
      <point x="337" y="19"/>
      <point x="348" y="30"/>
      <point x="348" y="86" type="curve" smooth="yes"/>
      <point x="348" y="303" type="line" smooth="yes"/>
      <point x="348" y="373"/>
      <point x="326" y="408"/>
      <point x="282" y="408" type="curve" smooth="yes"/>
      <point x="252.718" y="408"/>
      <point x="195.384" y="394.65"/>
      <point x="164" y="349" type="curve"/>
      <point x="164" y="67" type="line" smooth="yes"/>
      <point x="164" y="28"/>
      <point x="179" y="17"/>
      <point x="232" y="15" type="curve"/>
      <point x="232" y="0" type="line"/>
      <point x="10" y="0" type="line"/>
      <point x="10" y="15" type="line"/>
      <point x="66" y="16"/>
      <point x="80" y="31"/>
      <point x="80" y="85" type="curve" smooth="yes"/>
      <point x="80" y="338" type="line" smooth="yes"/>
      <point x="80" y="386"/>
      <point x="71" y="402"/>
      <point x="45" y="402" type="curve" smooth="yes"/>
      <point x="34" y="402"/>
      <point x="26" y="401"/>
    </contour>
  </outline>
</glyph>
<glyph name="n" format="2">
  <advance width="489"/>
  <unicode hex="006E"/>
  <outline>
    <contour>
      <point x="10" y="398" type="curve"/>
      <point x="10" y="415" type="line"/>
      <point x="65" y="431"/>
      <point x="99" y="442"/>
      <point x="148" y="460" type="curve"/>
      <point x="155" y="458" type="line"/>
      <point x="155" y="379" type="line"/>
      <point x="223" y="443"/>
      <point x="254" y="460"/>
      <point x="300" y="460" type="curve" smooth="yes"/>
      <point x="374" y="460"/>
      <point x="418" y="404"/>
      <point x="418" y="310" type="curve" smooth="yes"/>
      <point x="418" y="81" type="line" smooth="yes"/>
      <point x="418" y="32"/>
      <point x="430" y="20"/>
      <point x="479" y="15" type="curve"/>
      <point x="479" y="0" type="line"/>
      <point x="271" y="0" type="line"/>
      <point x="271" y="15" type="line"/>
      <point x="321" y="19"/>
      <point x="334" y="36"/>
      <point x="334" y="99" type="curve" smooth="yes"/>
      <point x="334" y="308" type="line" smooth="yes"/>
      <point x="334" y="374"/>
      <point x="310" y="405"/>
      <point x="261" y="405" type="curve" smooth="yes"/>
      <point x="228" y="405"/>
      <point x="206" y="393"/>
      <point x="158" y="348" type="curve"/>
      <point x="158" y="67" type="line" smooth="yes"/>
      <point x="158" y="31"/>
      <point x="173" y="19"/>
      <point x="224" y="15" type="curve"/>
      <point x="224" y="0" type="line"/>
      <point x="12" y="0" type="line"/>
      <point x="12" y="15" type="line"/>
      <point x="63" y="19"/>
      <point x="74" y="33"/>
      <point x="74" y="90" type="curve" smooth="yes"/>
      <point x="74" y="338" type="line" smooth="yes"/>
      <point x="74" y="387"/>
      <point x="65" y="402"/>
      <point x="37" y="402" type="curve" smooth="yes"/>
      <point x="26" y="402"/>
      <point x="16" y="401"/>
    </contour>
  </outline>
</glyph>
<glyph name="o" format="2">
  <advance width="491"/>
  <unicode hex="006F"/>
  <outline>
    <contour>
      <point x="246" y="460" type="curve" smooth="yes"/>
      <point x="374" y="460"/>
      <point x="466" y="365"/>
      <point x="466" y="234" type="curve" smooth="yes"/>
      <point x="466" y="96"/>
      <point x="370" y="-10"/>
      <point x="244" y="-10" type="curve" smooth="yes"/>
      <point x="118" y="-10"/>
      <point x="25" y="91"/>
      <point x="25" y="226" type="curve" smooth="yes"/>
      <point x="25" y="364"/>
      <point x="116" y="460"/>
    </contour>
    <contour>
      <point x="115" y="275" type="curve" smooth="yes"/>
      <point x="115" y="136"/>
      <point x="170" y="18"/>
      <point x="256" y="18" type="curve" smooth="yes"/>
      <point x="331" y="18"/>
      <point x="376" y="86"/>
      <point x="376" y="199" type="curve" smooth="yes"/>
      <point x="376" y="336"/>
      <point x="317" y="432"/>
      <point x="233" y="432" type="curve" smooth="yes"/>
      <point x="162" y="432"/>
      <point x="115" y="370"/>
    </contour>
  </outline>
</glyph>
<glyph name="q" format="2">
  <advance width="499"/>
  <unicode hex="0071"/>
  <outline>
    <contour>
      <point x="361" y="425" type="curve"/>
      <point x="415" y="457" type="line"/>
      <point x="426" y="457" type="line"/>
      <point x="426" y="-141" type="line" smooth="yes"/>
      <point x="426" y="-183"/>
      <point x="434" y="-191"/>
      <point x="489" y="-203" type="curve"/>
      <point x="489" y="-217" type="line"/>
      <point x="253" y="-217" type="line"/>
      <point x="253" y="-200" type="line"/>
      <point x="324" y="-195"/>
      <point x="342" y="-180"/>
      <point x="342" y="-124" type="curve" smooth="yes"/>
      <point x="342" y="64" type="line"/>
      <point x="298" y="16"/>
      <point x="243" y="-10"/>
      <point x="185" y="-10" type="curve" smooth="yes"/>
      <point x="91" y="-10"/>
      <point x="25" y="79"/>
      <point x="25" y="205" type="curve" smooth="yes"/>
      <point x="25" y="349"/>
      <point x="121" y="461"/>
      <point x="246" y="461" type="curve" smooth="yes"/>
      <point x="285" y="461"/>
      <point x="315" y="452"/>
    </contour>
    <contour>
      <point x="111" y="241" type="curve" smooth="yes"/>
      <point x="111" y="167"/>
      <point x="137" y="51"/>
      <point x="242" y="51" type="curve" smooth="yes"/>
      <point x="273" y="51"/>
      <point x="306" y="63"/>
      <point x="328" y="82" type="curve" smooth="yes"/>
      <point x="338" y="90"/>
      <point x="342" y="103"/>
      <point x="342" y="127" type="curve" smooth="yes"/>
      <point x="342" y="333" type="line" smooth="yes"/>
      <point x="342" y="400"/>
      <point x="311" y="433"/>
      <point x="249" y="433" type="curve" smooth="yes"/>
      <point x="164" y="433"/>
      <point x="111" y="359"/>
    </contour>
  </outline>
</glyph>
<glyph name="r" format="2">
  <advance width="345"/>
  <unicode hex="0072"/>
  <outline>
    <contour>
      <point x="301" y="362" type="curve" smooth="yes"/>
      <point x="274" y="362"/>
      <point x="251" y="397"/>
      <point x="235" y="397" type="curve" smooth="yes"/>
      <point x="208" y="397"/>
      <point x="165" y="347"/>
      <point x="165" y="315" type="curve" smooth="yes"/>
      <point x="165" y="90" type="line" smooth="yes"/>
      <point x="165" y="33"/>
      <point x="182" y="18"/>
      <point x="250" y="15" type="curve"/>
      <point x="250" y="0" type="line"/>
      <point x="10" y="0" type="line"/>
      <point x="10" y="15" type="line"/>
      <point x="74" y="27"/>
      <point x="81" y="34"/>
      <point x="81" y="84" type="curve" smooth="yes"/>
      <point x="81" y="334" type="line" smooth="yes"/>
      <point x="81" y="378"/>
      <point x="72" y="394"/>
      <point x="47" y="394" type="curve" smooth="yes"/>
      <point x="35" y="394"/>
      <point x="26" y="393"/>
      <point x="12" y="390" type="curve"/>
      <point x="12" y="406" type="line"/>
      <point x="71" y="425"/>
      <point x="107" y="438"/>
      <point x="160" y="460" type="curve"/>
      <point x="165" y="458" type="line"/>
      <point x="165" y="366" type="line"/>
      <point x="214" y="437"/>
      <point x="243" y="460"/>
      <point x="285" y="460" type="curve" smooth="yes"/>
      <point x="319" y="460"/>
      <point x="340" y="440"/>
      <point x="340" y="407" type="curve" smooth="yes"/>
      <point x="340" y="379"/>
      <point x="325" y="362"/>
    </contour>
  </outline>
</glyph>
<glyph name="s" format="2">
  <advance width="367"/>
  <unicode hex="0073"/>
  <outline>
    <contour>
      <point x="268" y="440" type="curve" smooth="yes"/>
      <point x="274" y="440"/>
      <point x="278" y="446"/>
      <point x="284" y="450" type="curve"/>
      <point x="295" y="450" type="line"/>
      <point x="299" y="314" type="line"/>
      <point x="284" y="314" type="line"/>
      <point x="261" y="403"/>
      <point x="231" y="437"/>
      <point x="174" y="437" type="curve" smooth="yes"/>
      <point x="128" y="437"/>
      <point x="97" y="409"/>
      <point x="97" y="369" type="curve" smooth="yes"/>
      <point x="97" y="342"/>
      <point x="112" y="317"/>
      <point x="140" y="301" type="curve" smooth="yes"/>
      <point x="248" y="237" type="line" smooth="yes"/>
      <point x="308" y="201"/>
      <point x="332" y="168"/>
      <point x="332" y="118" type="curve" smooth="yes"/>
      <point x="332" y="48"/>
      <point x="268" y="-10"/>
      <point x="191" y="-10" type="curve" smooth="yes"/>
      <point x="146" y="-10"/>
      <point x="97" y="8"/>
      <point x="72" y="8" type="curve" smooth="yes"/>
      <point x="60" y="8"/>
      <point x="56" y="6"/>
      <point x="49" y="-4" type="curve"/>
      <point x="36" y="-4" type="line"/>
      <point x="36" y="152" type="line"/>
      <point x="52" y="152" type="line"/>
      <point x="61" y="112"/>
      <point x="77" y="12"/>
      <point x="179" y="12" type="curve" smooth="yes"/>
      <point x="230" y="12"/>
      <point x="262" y="40"/>
      <point x="262" y="84" type="curve" smooth="yes"/>
      <point x="262" y="115"/>
      <point x="245" y="139"/>
      <point x="210" y="159" type="curve" smooth="yes"/>
      <point x="152" y="192" type="line" smooth="yes"/>
      <point x="67" y="240"/>
      <point x="35" y="280"/>
      <point x="35" y="336" type="curve" smooth="yes"/>
      <point x="35" y="408"/>
      <point x="92" y="459"/>
      <point x="171" y="459" type="curve" smooth="yes"/>
      <point x="229" y="459"/>
      <point x="246" y="440"/>
    </contour>
  </outline>
</glyph>
<glyph name="t" format="2">
  <advance width="283"/>
  <unicode hex="0074"/>
  <outline>
    <contour>
      <point x="259" y="450" type="line"/>
      <point x="259" y="418" type="line"/>
      <point x="158" y="418" type="line"/>
      <point x="158" y="132" type="line" smooth="yes"/>
      <point x="158" y="69"/>
      <point x="173" y="42"/>
      <point x="210" y="42" type="curve" smooth="yes"/>
      <point x="232" y="42"/>
      <point x="249" y="52"/>
      <point x="270" y="77" type="curve"/>
      <point x="283" y="66" type="line"/>
      <point x="250" y="14"/>
      <point x="212" y="-10"/>
      <point x="163" y="-10" type="curve" smooth="yes"/>
      <point x="104" y="-10"/>
      <point x="74" y="33"/>
      <point x="74" y="117" type="curve" smooth="yes"/>
      <point x="74" y="418" type="line"/>
      <point x="21" y="418" type="line"/>
      <point x="18" y="420"/>
      <point x="17" y="422"/>
      <point x="17" y="425" type="curve" smooth="yes"/>
      <point x="17" y="445"/>
      <point x="42" y="423"/>
      <point x="131" y="551" type="curve" smooth="yes"/>
      <point x="138" y="561"/>
      <point x="144" y="570"/>
      <point x="151" y="579" type="curve"/>
      <point x="157" y="579"/>
      <point x="158" y="576"/>
      <point x="158" y="566" type="curve" smooth="yes"/>
      <point x="158" y="450" type="line"/>
    </contour>
  </outline>
</glyph>
<glyph name="u" format="2">
  <advance width="490"/>
  <unicode hex="0075"/>
  <outline>
    <contour>
      <point x="480" y="50" type="line"/>
      <point x="480" y="36" type="line"/>
      <point x="429" y="22"/>
      <point x="393" y="11"/>
      <point x="343" y="-9" type="curve"/>
      <point x="339" y="-7" type="line"/>
      <point x="339" y="76" type="line"/>
      <point x="304.283" y="41.2832"/>
      <point x="265.178" y="-10"/>
      <point x="193" y="-10" type="curve" smooth="yes"/>
      <point x="120" y="-10"/>
      <point x="72" y="41"/>
      <point x="72" y="120" type="curve" smooth="yes"/>
      <point x="72" y="372" type="line" smooth="yes"/>
      <point x="72" y="418"/>
      <point x="58" y="433"/>
      <point x="10" y="436" type="curve"/>
      <point x="10" y="450" type="line"/>
      <point x="156" y="450" type="line"/>
      <point x="156" y="124" type="line" smooth="yes"/>
      <point x="156" y="82"/>
      <point x="188" y="48"/>
      <point x="227" y="48" type="curve" smooth="yes"/>
      <point x="247.38" y="48"/>
      <point x="334" y="58.7129"/>
      <point x="334" y="135" type="curve" smooth="yes"/>
      <point x="334" y="370" type="line" smooth="yes"/>
      <point x="334" y="420"/>
      <point x="322" y="430"/>
      <point x="260" y="433" type="curve"/>
      <point x="260" y="450" type="line"/>
      <point x="418" y="450" type="line"/>
      <point x="418" y="107" type="line" smooth="yes"/>
      <point x="418" y="61"/>
      <point x="429" y="50"/>
      <point x="475" y="50" type="curve" smooth="yes"/>
    </contour>
  </outline>
</glyph>
<glyph name="v" format="2">
  <advance width="468"/>
  <unicode hex="0076"/>
  <outline>
    <contour>
      <point x="463" y="450" type="line"/>
      <point x="463" y="435" type="line"/>
      <point x="433" y="432"/>
      <point x="425" y="426"/>
      <point x="398" y="357" type="curve" smooth="yes"/>
      <point x="270" y="36" type="line" smooth="yes"/>
      <point x="255" y="-1"/>
      <point x="248" y="-14"/>
      <point x="242" y="-14" type="curve" smooth="yes"/>
      <point x="237" y="-14"/>
      <point x="230" y="-10"/>
      <point x="216" y="33" type="curve"/>
      <point x="96" y="320" type="line" smooth="yes"/>
      <point x="52.4844" y="424.074"/>
      <point x="43" y="433"/>
      <point x="5" y="435" type="curve"/>
      <point x="5" y="450" type="line"/>
      <point x="201" y="450" type="line"/>
      <point x="201" y="435" type="line"/>
      <point x="166" y="432"/>
      <point x="155" y="425"/>
      <point x="155" y="407" type="curve" smooth="yes"/>
      <point x="155" y="398"/>
      <point x="158" y="384"/>
      <point x="164" y="370" type="curve" smooth="yes"/>
      <point x="266" y="114" type="line"/>
      <point x="365" y="373" type="line" smooth="yes"/>
      <point x="369" y="383"/>
      <point x="371" y="393"/>
      <point x="371" y="403" type="curve" smooth="yes"/>
      <point x="371" y="422"/>
      <point x="356" y="432"/>
      <point x="324" y="435" type="curve"/>
      <point x="324" y="450" type="line"/>
    </contour>
  </outline>
</glyph>
<glyph name="w" format="2">
  <advance width="683"/>
  <unicode hex="0077"/>
  <outline>
    <contour>
      <point x="335" y="310" type="line"/>
      <point x="299" y="419"/>
      <point x="289" y="430"/>
      <point x="246" y="435" type="curve"/>
      <point x="246" y="450" type="line"/>
      <point x="449" y="450" type="line"/>
      <point x="449" y="435" type="line"/>
      <point x="402" y="428"/>
      <point x="391" y="421"/>
      <point x="391" y="399" type="curve" smooth="yes"/>
      <point x="391" y="386"/>
      <point x="391" y="386"/>
      <point x="408" y="340" type="curve" smooth="yes"/>
      <point x="492" y="116" type="line"/>
      <point x="582" y="338" type="line" smooth="yes"/>
      <point x="593" y="365"/>
      <point x="599" y="389"/>
      <point x="599" y="404" type="curve" smooth="yes"/>
      <point x="599" y="421"/>
      <point x="589" y="428"/>
      <point x="555" y="435" type="curve"/>
      <point x="555" y="450" type="line"/>
      <point x="678" y="450" type="line"/>
      <point x="678" y="435" type="line"/>
      <point x="658" y="428"/>
      <point x="654" y="423"/>
      <point x="637" y="381" type="curve" smooth="yes"/>
      <point x="499" y="35" type="line" smooth="yes"/>
      <point x="483" y="-5"/>
      <point x="478" y="-14"/>
      <point x="471" y="-14" type="curve" smooth="yes"/>
      <point x="465" y="-14"/>
      <point x="461" y="-8"/>
      <point x="447" y="29" type="curve" smooth="yes"/>
      <point x="356" y="265" type="line"/>
      <point x="244" y="25" type="line" smooth="yes"/>
      <point x="232" y="-1"/>
      <point x="224" y="-14"/>
      <point x="219" y="-14" type="curve" smooth="yes"/>
      <point x="213" y="-14"/>
      <point x="205" y="0"/>
      <point x="193" y="30" type="curve" smooth="yes"/>
      <point x="58" y="372" type="line" smooth="yes"/>
      <point x="37.6064" y="423.663"/>
      <point x="28" y="433"/>
      <point x="5" y="435" type="curve"/>
      <point x="5" y="450" type="line"/>
      <point x="185" y="450" type="line"/>
      <point x="185" y="435" type="line"/>
      <point x="151" y="431"/>
      <point x="139" y="423"/>
      <point x="139" y="402" type="curve" smooth="yes"/>
      <point x="139" y="392"/>
      <point x="141" y="382"/>
      <point x="145" y="372" type="curve" smooth="yes"/>
      <point x="244" y="111" type="line"/>
    </contour>
  </outline>
</glyph>
<glyph name="x" format="2">
  <advance width="482"/>
  <unicode hex="0078"/>
  <outline>
    <contour>
      <point x="241" y="304" type="line"/>
      <point x="279" y="362"/>
      <point x="308" y="391"/>
      <point x="308" y="413" type="curve" smooth="yes"/>
      <point x="308" y="427"/>
      <point x="298" y="433"/>
      <point x="268" y="435" type="curve"/>
      <point x="268" y="450" type="line"/>
      <point x="426" y="450" type="line"/>
      <point x="426" y="435" type="line"/>
      <point x="394" y="434"/>
      <point x="364" y="418"/>
      <point x="345" y="391" type="curve" smooth="yes"/>
      <point x="262" y="271" type="line"/>
      <point x="390" y="75" type="line" smooth="yes"/>
      <point x="419.431" y="29.9346"/>
      <point x="441" y="15"/>
      <point x="472" y="15" type="curve"/>
      <point x="472" y="0" type="line"/>
      <point x="271" y="0" type="line"/>
      <point x="271" y="15" type="line"/>
      <point x="304" y="17"/>
      <point x="311" y="21"/>
      <point x="311" y="39" type="curve" smooth="yes"/>
      <point x="311" y="45"/>
      <point x="309" y="51"/>
      <point x="305" y="57" type="curve" smooth="yes"/>
      <point x="214" y="197" type="line"/>
      <point x="135" y="74" type="line" smooth="yes"/>
      <point x="122" y="54"/>
      <point x="115" y="39"/>
      <point x="115" y="33" type="curve" smooth="yes"/>
      <point x="115" y="20"/>
      <point x="127" y="15"/>
      <point x="155" y="15" type="curve"/>
      <point x="155" y="0" type="line"/>
      <point x="10" y="0" type="line"/>
      <point x="10" y="15" type="line"/>
      <point x="43" y="18"/>
      <point x="54" y="24"/>
      <point x="83" y="66" type="curve" smooth="yes"/>
      <point x="197" y="231" type="line"/>
      <point x="103" y="375" type="line" smooth="yes"/>
      <point x="64.9482" y="433.292"/>
      <point x="49.75" y="434.25"/>
      <point x="17" y="435" type="curve"/>
      <point x="17" y="450" type="line"/>
      <point x="224" y="450" type="line"/>
      <point x="224" y="435" type="line"/>
      <point x="194" y="434"/>
      <point x="181" y="427"/>
      <point x="181" y="413" type="curve" smooth="yes"/>
      <point x="181" y="400"/>
      <point x="199" y="366"/>
      <point x="227" y="324" type="curve"/>
    </contour>
  </outline>
</glyph>
<glyph name="y" format="2">
  <advance width="471"/>
  <unicode hex="0079"/>
  <outline>
    <contour>
      <point x="142" y="-134" type="curve" smooth="yes"/>
      <point x="183" y="-134"/>
      <point x="232" y="-11"/>
      <point x="232" y="19" type="curve" smooth="yes"/>
      <point x="232" y="34"/>
      <point x="213.628" y="68.7441"/>
      <point x="188" y="120" type="curve"/>
      <point x="56" y="404" type="line" smooth="yes"/>
      <point x="48" y="421"/>
      <point x="31" y="432"/>
      <point x="5" y="436" type="curve"/>
      <point x="5" y="450" type="line"/>
      <point x="211" y="450" type="line"/>
      <point x="211" y="435" type="line"/>
      <point x="168" y="433"/>
      <point x="153" y="426"/>
      <point x="153" y="408" type="curve" smooth="yes"/>
      <point x="153" y="397"/>
      <point x="157" y="384"/>
      <point x="163" y="370" type="curve" smooth="yes"/>
      <point x="278" y="117" type="line"/>
      <point x="375" y="393" type="line" smooth="yes"/>
      <point x="378" y="400"/>
      <point x="379" y="406"/>
      <point x="379" y="410" type="curve" smooth="yes"/>
      <point x="379" y="426"/>
      <point x="363" y="435"/>
      <point x="331" y="435" type="curve"/>
      <point x="331" y="450" type="line"/>
      <point x="466" y="450" type="line"/>
      <point x="466" y="435" type="line"/>
      <point x="442" y="432"/>
      <point x="430" y="422"/>
      <point x="418" y="390" type="curve" smooth="yes"/>
      <point x="264" y="-18" type="line" smooth="yes"/>
      <point x="210" y="-162"/>
      <point x="162" y="-218"/>
      <point x="95" y="-218" type="curve" smooth="yes"/>
      <point x="53" y="-218"/>
      <point x="21" y="-193"/>
      <point x="21" y="-160" type="curve" smooth="yes"/>
      <point x="21" y="-136"/>
      <point x="41" y="-116"/>
      <point x="64" y="-116" type="curve" smooth="yes"/>
      <point x="102" y="-116"/>
      <point x="125" y="-134"/>
    </contour>
  </outline>
</glyph>
<glyph name="z" format="2">
  <advance width="417"/>
  <unicode hex="007A"/>
  <outline>
    <contour>
      <point x="255" y="30" type="line" smooth="yes"/>
      <point x="361" y="30"/>
      <point x="368" y="63"/>
      <point x="383" y="139" type="curve"/>
      <point x="401" y="135" type="line"/>
      <point x="387" y="0" type="line"/>
      <point x="10" y="0" type="line"/>
      <point x="10" y="15" type="line"/>
      <point x="276" y="420" type="line"/>
      <point x="138" y="420" type="line" smooth="yes"/>
      <point x="78" y="420"/>
      <point x="63" y="405"/>
      <point x="54" y="332" type="curve"/>
      <point x="36" y="332" type="line"/>
      <point x="39" y="450" type="line"/>
      <point x="386" y="450" type="line"/>
      <point x="386" y="435" type="line"/>
      <point x="117" y="30" type="line"/>
    </contour>
  </outline>
</glyph>
<glyph name="braceleft" format="2">
  <advance width="295"/>
  <unicode hex="007B"/>
  <outline>
    <contour>
      <point x="260.48" y="-24.6396" type="line"/>
      <point x="165.44" y="-22.8799"/>
      <point x="112.641" y="-5.28125"/>
      <point x="112.641" y="102.079" type="curve" smooth="yes"/>
      <point x="112.641" y="262.239" type="line" smooth="yes"/>
      <point x="112.641" y="323.839"/>
      <point x="96.8008" y="344.959"/>
      <point x="35.2012" y="364.319" type="curve"/>
      <point x="96.8008" y="381.919"/>
      <point x="112.641" y="403.039"/>
      <point x="112.641" y="466.399" type="curve" smooth="yes"/>
      <point x="112.641" y="626.56" type="line" smooth="yes"/>
      <point x="112.641" y="733.92"/>
      <point x="165.44" y="749.76"/>
      <point x="260.48" y="751.52" type="curve"/>
      <point x="260.48" y="742.72" type="line"/>
      <point x="198.881" y="725.12"/>
      <point x="179.521" y="698.72"/>
      <point x="179.521" y="631.84" type="curve" smooth="yes"/>
      <point x="179.521" y="480.479" type="line" smooth="yes"/>
      <point x="179.521" y="404.8"/>
      <point x="161.921" y="381.92"/>
      <point x="95.041" y="362.56" type="curve"/>
      <point x="161.921" y="346.72"/>
      <point x="179.521" y="322.08"/>
      <point x="179.521" y="248.16" type="curve" smooth="yes"/>
      <point x="179.521" y="96.7998" type="line" smooth="yes"/>
      <point x="179.521" y="29.9199"/>
      <point x="198.881" y="1.75977"/>
      <point x="260.48" y="-14.0801" type="curve"/>
    </contour>
  </outline>
</glyph>
<glyph name="bar" format="2">
  <advance width="133"/>
  <unicode hex="007C"/>
  <outline>
    <contour>
      <point x="95.04" y="672.32" type="line"/>
      <point x="95.04" y="0" type="line"/>
      <point x="36.96" y="0" type="line"/>
      <point x="36.96" y="672.32" type="line"/>
    </contour>
  </outline>
</glyph>
<glyph name="braceright" format="2">
  <advance width="293"/>
  <unicode hex="007D"/>
  <outline>
    <contour>
      <point x="35.2002" y="762.08" type="line"/>
      <point x="130.24" y="760.32"/>
      <point x="183.04" y="742.722"/>
      <point x="183.04" y="635.361" type="curve" smooth="yes"/>
      <point x="183.04" y="475.201" type="line" smooth="yes"/>
      <point x="183.04" y="413.602"/>
      <point x="198.88" y="392.481"/>
      <point x="260.479" y="373.121" type="curve"/>
      <point x="198.88" y="355.521"/>
      <point x="183.04" y="334.401"/>
      <point x="183.04" y="271.041" type="curve" smooth="yes"/>
      <point x="183.04" y="110.881" type="line" smooth="yes"/>
      <point x="183.04" y="3.52051"/>
      <point x="130.24" y="-12.3193"/>
      <point x="35.2002" y="-14.0791" type="curve"/>
      <point x="35.2002" y="-5.2793" type="line"/>
      <point x="96.7998" y="12.3213"/>
      <point x="116.16" y="38.7207"/>
      <point x="116.16" y="105.601" type="curve" smooth="yes"/>
      <point x="116.16" y="256.961" type="line" smooth="yes"/>
      <point x="116.16" y="332.641"/>
      <point x="133.76" y="355.521"/>
      <point x="200.64" y="374.881" type="curve"/>
      <point x="133.76" y="390.721"/>
      <point x="116.16" y="415.36"/>
      <point x="116.16" y="489.28" type="curve" smooth="yes"/>
      <point x="116.16" y="640.641" type="line" smooth="yes"/>
      <point x="116.16" y="707.521"/>
      <point x="96.7998" y="735.681"/>
      <point x="35.2002" y="751.521" type="curve"/>
    </contour>
  </outline>
</glyph>
<glyph name="asciitilde" format="2">
  <advance width="536"/>
  <unicode hex="007E"/>
  <outline>
    <contour>
      <point x="160.16" y="401.28" type="curve" smooth="yes"/>
      <point x="255.2" y="401.28"/>
      <point x="295.681" y="337.921"/>
      <point x="371.36" y="337.921" type="curve" smooth="yes"/>
      <point x="403.04" y="337.921"/>
      <point x="420.64" y="348.48"/>
      <point x="445.279" y="385.44" type="curve"/>
      <point x="499.839" y="355.521" type="line"/>
      <point x="454.079" y="293.921"/>
      <point x="422.399" y="274.561"/>
      <point x="376.64" y="274.561" type="curve" smooth="yes"/>
      <point x="281.6" y="274.561"/>
      <point x="239.359" y="339.681"/>
      <point x="165.439" y="339.681" type="curve" smooth="yes"/>
      <point x="133.76" y="339.681"/>
      <point x="116.16" y="327.36"/>
      <point x="91.5195" y="290.4" type="curve"/>
      <point x="36.96" y="320.32" type="line"/>
      <point x="82.7197" y="381.92"/>
      <point x="114.4" y="401.28"/>
    </contour>
  </outline>
</glyph>
<glyph name="currency" format="2">
  <advance width="559"/>
  <unicode hex="00A4"/>
  <outline>
    <contour>
      <point x="35.2002" y="135.52" type="line"/>
      <point x="123.2" y="221.759" type="line"/>
      <point x="96.7998" y="260.479"/>
      <point x="86.2402" y="292.158"/>
      <point x="86.2402" y="334.398" type="curve" smooth="yes"/>
      <point x="86.2402" y="378.398"/>
      <point x="96.7998" y="411.839"/>
      <point x="123.2" y="448.799" type="curve"/>
      <point x="35.2002" y="536.799" type="line"/>
      <point x="79.2002" y="579.039" type="line"/>
      <point x="165.44" y="492.799" type="line"/>
      <point x="205.921" y="519.199"/>
      <point x="235.841" y="527.999"/>
      <point x="279.841" y="527.999" type="curve" smooth="yes"/>
      <point x="322.081" y="527.999"/>
      <point x="357.281" y="517.439"/>
      <point x="392.481" y="492.8" type="curve"/>
      <point x="480.481" y="579.04" type="line"/>
      <point x="522.722" y="536.8" type="line"/>
      <point x="436.481" y="448.8" type="line"/>
      <point x="462.882" y="410.08"/>
      <point x="471.682" y="380.16"/>
      <point x="471.682" y="336.16" type="curve" smooth="yes"/>
      <point x="471.682" y="292.16"/>
      <point x="462.882" y="262.24"/>
      <point x="436.481" y="221.76" type="curve"/>
      <point x="522.722" y="135.52" type="line"/>
      <point x="480.481" y="91.5186" type="line"/>
      <point x="392.481" y="179.52" type="line"/>
      <point x="357.281" y="153.119"/>
      <point x="322.081" y="142.56"/>
      <point x="279.841" y="142.56" type="curve" smooth="yes"/>
      <point x="239.36" y="142.56"/>
      <point x="204.16" y="153.119"/>
      <point x="165.44" y="179.52" type="curve"/>
      <point x="79.2002" y="91.5186" type="line"/>
    </contour>
    <contour>
      <point x="281.601" y="469.919" type="curve" smooth="yes"/>
      <point x="205.921" y="469.919"/>
      <point x="147.841" y="410.079"/>
      <point x="147.841" y="334.399" type="curve" smooth="yes"/>
      <point x="147.841" y="260.479"/>
      <point x="205.921" y="198.88"/>
      <point x="279.841" y="198.88" type="curve" smooth="yes"/>
      <point x="352.001" y="198.88"/>
      <point x="410.081" y="260.479"/>
      <point x="410.081" y="336.159" type="curve" smooth="yes"/>
      <point x="410.081" y="410.079"/>
      <point x="352.001" y="469.919"/>
    </contour>
  </outline>
</glyph>
<glyph name="brokenbar" format="2">
  <advance width="135"/>
  <unicode hex="00A6"/>
  <outline>
    <contour>
      <point x="35.2002" y="0" type="line"/>
      <point x="35.2002" y="272.8" type="line"/>
      <point x="100.32" y="272.8" type="line"/>
      <point x="100.32" y="0" type="line"/>
    </contour>
    <contour>
      <point x="35.2002" y="392.479" type="line"/>
      <point x="35.2002" y="663.52" type="line"/>
      <point x="100.32" y="663.52" type="line"/>
      <point x="100.32" y="392.479" type="line"/>
    </contour>
  </outline>
</glyph>
<glyph name="section" format="2">
  <advance width="369"/>
  <unicode hex="00A7"/>
  <outline>
    <contour>
      <point x="211.2" y="580.8" type="curve" smooth="yes"/>
      <point x="211.2" y="608.96"/>
      <point x="239.362" y="619.518"/>
      <point x="239.362" y="628.317" type="curve" smooth="yes"/>
      <point x="239.362" y="642.397"/>
      <point x="214.723" y="654.718"/>
      <point x="186.562" y="654.718" type="curve" smooth="yes"/>
      <point x="144.322" y="654.718"/>
      <point x="116.162" y="630.078"/>
      <point x="116.162" y="594.878" type="curve" smooth="yes"/>
      <point x="116.162" y="573.758"/>
      <point x="126.722" y="549.118"/>
      <point x="144.321" y="535.038" type="curve" smooth="yes"/>
      <point x="258.722" y="439.998" type="line" smooth="yes"/>
      <point x="308.002" y="399.518"/>
      <point x="334.402" y="364.317"/>
      <point x="334.402" y="320.317" type="curve" smooth="yes"/>
      <point x="334.402" y="260.478"/>
      <point x="293.922" y="218.237"/>
      <point x="235.842" y="218.237" type="curve" smooth="yes"/>
      <point x="221.762" y="218.237" type="line"/>
      <point x="285.122" y="163.678"/>
      <point x="300.962" y="139.038"/>
      <point x="300.962" y="96.7979" type="curve" smooth="yes"/>
      <point x="300.962" y="31.6777"/>
      <point x="253.442" y="-12.3223"/>
      <point x="179.522" y="-12.3223" type="curve" smooth="yes"/>
      <point x="114.402" y="-12.3223"/>
      <point x="63.3623" y="26.3984"/>
      <point x="63.3623" y="73.918" type="curve" smooth="yes"/>
      <point x="63.3623" y="100.318"/>
      <point x="82.7217" y="119.679"/>
      <point x="109.122" y="119.679" type="curve" smooth="yes"/>
      <point x="132.002" y="119.679"/>
      <point x="149.602" y="103.839"/>
      <point x="149.602" y="82.7188" type="curve" smooth="yes"/>
      <point x="149.602" y="58.0791"/>
      <point x="119.682" y="45.7588"/>
      <point x="119.682" y="36.959" type="curve" smooth="yes"/>
      <point x="119.682" y="21.1191"/>
      <point x="149.602" y="7.03906"/>
      <point x="179.521" y="7.03906" type="curve" smooth="yes"/>
      <point x="225.281" y="7.03906"/>
      <point x="253.441" y="31.6787"/>
      <point x="253.441" y="72.1592" type="curve" smooth="yes"/>
      <point x="253.441" y="170.719"/>
      <point x="35.2012" y="197.119"/>
      <point x="35.2012" y="344.959" type="curve" smooth="yes"/>
      <point x="35.2012" y="401.279"/>
      <point x="75.6807" y="443.52"/>
      <point x="132.001" y="443.52" type="curve" smooth="yes"/>
      <point x="153.121" y="443.52" type="line"/>
      <point x="84.4814" y="499.84"/>
      <point x="68.6406" y="524.479"/>
      <point x="68.6406" y="570.239" type="curve" smooth="yes"/>
      <point x="68.6406" y="630.079"/>
      <point x="116.161" y="672.319"/>
      <point x="184.801" y="672.319" type="curve" smooth="yes"/>
      <point x="246.4" y="672.319"/>
      <point x="293.92" y="637.119"/>
      <point x="293.92" y="589.6" type="curve" smooth="yes"/>
      <point x="293.92" y="561.439"/>
      <point x="276.32" y="545.6"/>
      <point x="249.92" y="545.6" type="curve" smooth="yes"/>
      <point x="227.04" y="545.6"/>
      <point x="211.2" y="559.68"/>
    </contour>
    <contour>
      <point x="290.402" y="292.158" type="curve" smooth="yes"/>
      <point x="290.402" y="355.519"/>
      <point x="172.483" y="425.919"/>
      <point x="137.283" y="425.919" type="curve" smooth="yes"/>
      <point x="103.843" y="425.919"/>
      <point x="79.2031" y="403.039"/>
      <point x="79.2031" y="369.599" type="curve" smooth="yes"/>
      <point x="79.2031" y="311.519"/>
      <point x="179.522" y="237.599"/>
      <point x="232.322" y="237.599" type="curve" smooth="yes"/>
      <point x="264.002" y="237.599"/>
      <point x="290.402" y="262.238"/>
    </contour>
  </outline>
</glyph>
<glyph name="logicalnot" format="2">
  <advance width="658"/>
  <unicode hex="00AC"/>
  <outline>
    <contour>
      <point x="545.6" y="123.2" type="line"/>
      <point x="545.6" y="320.32" type="line"/>
      <point x="35.2002" y="320.32" type="line"/>
      <point x="35.2002" y="381.92" type="line"/>
      <point x="623.04" y="381.92" type="line"/>
      <point x="623.04" y="123.2" type="line"/>
    </contour>
  </outline>
</glyph>
<glyph name="macron" format="2">
  <advance width="455"/>
  <unicode hex="00AF"/>
  <outline>
    <contour>
      <point x="36.96" y="661.76" type="line"/>
      <point x="418.88" y="661.76" type="line"/>
      <point x="418.88" y="594.88" type="line"/>
      <point x="36.96" y="594.88" type="line"/>
    </contour>
  </outline>
</glyph>
<glyph name="degree" format="2">
  <advance width="367"/>
  <unicode hex="00B0"/>
  <outline>
    <contour>
      <point x="184.8" y="674.08" type="curve" smooth="yes"/>
      <point x="267.52" y="674.08"/>
      <point x="334.4" y="608.961"/>
      <point x="334.4" y="524.48" type="curve" smooth="yes"/>
      <point x="334.4" y="441.761"/>
      <point x="267.521" y="376.641"/>
      <point x="183.04" y="376.641" type="curve" smooth="yes"/>
      <point x="102.08" y="376.641"/>
      <point x="36.96" y="443.521"/>
      <point x="36.96" y="526.24" type="curve" smooth="yes"/>
      <point x="36.96" y="608.96"/>
      <point x="102.08" y="674.08"/>
    </contour>
    <contour>
      <point x="184.801" y="638.881" type="curve" smooth="yes"/>
      <point x="126.721" y="638.881"/>
      <point x="77.4414" y="587.84"/>
      <point x="77.4414" y="526.24" type="curve" smooth="yes"/>
      <point x="77.4414" y="464.641"/>
      <point x="126.721" y="411.841"/>
      <point x="184.801" y="411.841" type="curve" smooth="yes"/>
      <point x="244.641" y="411.841"/>
      <point x="293.921" y="462.881"/>
      <point x="293.921" y="526.241" type="curve" smooth="yes"/>
      <point x="293.921" y="587.841"/>
      <point x="242.881" y="638.881"/>
    </contour>
  </outline>
</glyph>
<glyph name="paragraph" format="2">
  <advance width="473"/>
  <unicode hex="00B6"/>
  <outline>
    <contour>
      <point x="202.4" y="350.24" type="line"/>
      <point x="103.841" y="352"/>
      <point x="36.9609" y="392.479"/>
      <point x="36.9609" y="522.72" type="curve" smooth="yes"/>
      <point x="36.9609" y="635.359"/>
      <point x="89.7607" y="681.119"/>
      <point x="214.721" y="681.119" type="curve" smooth="yes"/>
      <point x="440.001" y="681.119" type="line"/>
      <point x="440.001" y="665.279" type="line"/>
      <point x="373.121" y="659.999"/>
      <point x="364.321" y="649.439"/>
      <point x="364.321" y="587.84" type="curve" smooth="yes"/>
      <point x="364.321" y="80.96" type="line" smooth="yes"/>
      <point x="364.321" y="19.3604"/>
      <point x="374.881" y="5.28027"/>
      <point x="440.001" y="-0" type="curve"/>
      <point x="440.001" y="-15.8398" type="line"/>
      <point x="308.001" y="-15.8398" type="line"/>
      <point x="308.001" y="663.52" type="line"/>
      <point x="258.721" y="663.52" type="line"/>
      <point x="258.721" y="-15.8398" type="line"/>
      <point x="126.721" y="-15.8398" type="line"/>
      <point x="126.721" y="0" type="line"/>
      <point x="193.601" y="3.51953"/>
      <point x="202.4" y="17.5996"/>
      <point x="202.4" y="89.7598" type="curve" smooth="yes"/>
    </contour>
    <contour>
      <point x="202.4" y="663.52" type="line"/>
      <point x="139.04" y="658.239"/>
      <point x="102.08" y="638.88"/>
      <point x="102.08" y="526.24" type="curve" smooth="yes"/>
      <point x="102.08" y="418.88"/>
      <point x="128.48" y="376.64"/>
      <point x="202.4" y="367.84" type="curve"/>
    </contour>
  </outline>
</glyph>
<glyph name="periodcentered" format="2">
  <advance width="165"/>
  <unicode hex="00B7"/>
  <outline>
    <contour>
      <point x="75" y="204" type="curve" smooth="yes"/>
      <point x="39" y="204"/>
      <point x="21" y="222.333"/>
      <point x="21" y="259" type="curve" smooth="yes"/>
      <point x="21" y="295.667"/>
      <point x="39" y="314"/>
      <point x="75" y="314" type="curve" smooth="yes"/>
      <point x="111.667" y="314"/>
      <point x="130" y="295.667"/>
      <point x="130" y="259" type="curve" smooth="yes"/>
      <point x="130" y="222.333"/>
      <point x="111.667" y="204"/>
    </contour>
  </outline>
</glyph>
<glyph name="gravecomb" format="2">
  <advance width="0"/>
  <unicode hex="0300"/>
  <anchor x="-115" y="1019" name="Stacking"/>
  <anchor x="-101.133" y="664.569" name="_Stacking"/>
  <anchor x="-101.133" y="664.569" name="_Diacritic"/>
  <outline>
    <contour>
      <point x="-81" y="694" type="line"/>
      <point x="-79.6465" y="691.123"/>
      <point x="-79.0391" y="688.273"/>
      <point x="-79.0391" y="685.547" type="curve" smooth="yes"/>
      <point x="-79.0391" y="673.959"/>
      <point x="-89.9941" y="664.569"/>
      <point x="-101.133" y="664.569" type="curve" smooth="yes"/>
      <point x="-106.861" y="664.569"/>
      <point x="-112.64" y="667.054"/>
      <point x="-117" y="673" type="curve" smooth="yes"/>
      <point x="-121" y="679"/>
      <point x="-128" y="688"/>
      <point x="-138" y="700" type="curve" smooth="yes"/>
      <point x="-196" y="772" type="line" smooth="yes"/>
      <point x="-205.333" y="784"/>
      <point x="-212.333" y="792.667"/>
      <point x="-217" y="798" type="curve" smooth="yes"/>
      <point x="-231.961" y="818.571"/>
      <point x="-246.445" y="842.07"/>
      <point x="-246.445" y="862.828" type="curve" smooth="yes"/>
      <point x="-246.445" y="876.662"/>
      <point x="-240.013" y="889.278"/>
      <point x="-223" y="899" type="curve" smooth="yes"/>
      <point x="-213.665" y="904.334"/>
      <point x="-205.253" y="906.672"/>
      <point x="-197.635" y="906.672" type="curve" smooth="yes"/>
      <point x="-158.922" y="906.672"/>
      <point x="-140.703" y="846.307"/>
      <point x="-126" y="812" type="curve"/>
    </contour>
  </outline>
</glyph>
<glyph name="acutecomb" format="2">
  <advance width="0"/>
  <unicode hex="0301"/>
  <anchor x="-101.133" y="664.569" name="_Stacking"/>
  <anchor x="-115" y="1019" name="Stacking"/>
  <anchor x="-101.133" y="664.569" name="_Diacritic"/>
  <outline>
    <contour>
      <point x="16" y="900" type="curve" smooth="yes"/>
      <point x="33.4297" y="890.04"/>
      <point x="40.0723" y="877.116"/>
      <point x="40.0723" y="863.038" type="curve" smooth="yes"/>
      <point x="40.0723" y="842.265"/>
      <point x="25.6084" y="818.979"/>
      <point x="10" y="799" type="curve" smooth="yes"/>
      <point x="-90" y="674" type="line"/>
      <point x="-94.082" y="668.286"/>
      <point x="-99.6738" y="665.903"/>
      <point x="-105.314" y="665.903" type="curve" smooth="yes"/>
      <point x="-116.566" y="665.903"/>
      <point x="-128.007" y="675.386"/>
      <point x="-128.007" y="686.806" type="curve" smooth="yes"/>
      <point x="-128.007" y="689.464"/>
      <point x="-127.387" y="692.227"/>
      <point x="-126" y="695" type="curve" smooth="yes"/>
      <point x="-121.524" y="707.309"/>
      <point x="-111.82" y="731.267"/>
      <point x="-105" y="749" type="curve" smooth="yes"/>
      <point x="-68" y="844" type="line"/>
      <point x="-56.2754" y="871.113"/>
      <point x="-38.6475" y="907.415"/>
      <point x="-8.69629" y="907.415" type="curve" smooth="yes"/>
      <point x="-1.25684" y="907.415"/>
      <point x="6.94238" y="905.176"/>
    </contour>
  </outline>
</glyph>
<glyph name="tildecomb" format="2">
  <advance width="0"/>
  <unicode hex="0303"/>
  <anchor x="-251.133" y="580.569" name="_Stacking"/>
  <anchor x="-265" y="935" name="Stacking"/>
  <anchor x="-251.133" y="579.569" name="_Diacritic"/>
  <outline>
    <contour>
      <point x="-382.5" y="795" type="curve" smooth="yes"/>
      <point x="-374.816" y="795"/>
      <point x="-314.98" y="765.547"/>
      <point x="-314.98" y="755.795" type="curve" smooth="yes"/>
      <point x="-314.98" y="750.637"/>
      <point x="-325.338" y="738.153"/>
      <point x="-343.5" y="719" type="curve" smooth="yes"/>
      <point x="-361.833" y="699.667"/>
      <point x="-372.5" y="687.333"/>
      <point x="-375.5" y="682" type="curve" smooth="yes"/>
      <point x="-378.5" y="676.667"/>
      <point x="-380" y="671.333"/>
      <point x="-380" y="666" type="curve" smooth="yes"/>
      <point x="-380" y="653.774"/>
      <point x="-364.92" y="642.804"/>
      <point x="-349.882" y="642.804" type="curve" smooth="yes"/>
      <point x="-347.739" y="642.804"/>
      <point x="-345.598" y="643.026"/>
      <point x="-343.5" y="643.5" type="curve" smooth="yes"/>
      <point x="-333.167" y="645.833"/>
      <point x="-314.833" y="657.667"/>
      <point x="-288.5" y="679" type="curve" smooth="yes"/>
      <point x="-262.167" y="700.333"/>
      <point x="-234.5" y="721.167"/>
      <point x="-205.5" y="741.5" type="curve" smooth="yes"/>
      <point x="-176.5" y="761.833"/>
      <point x="-151.5" y="774.5"/>
      <point x="-130.5" y="779.5" type="curve" smooth="yes"/>
      <point x="-113.683" y="783.504"/>
      <point x="-98.4375" y="786.007"/>
      <point x="-84.5547" y="786.007" type="curve" smooth="yes"/>
      <point x="-64.5918" y="786.007"/>
      <point x="-47.4473" y="780.831"/>
      <point x="-32.5" y="767.5" type="curve" smooth="yes"/>
      <point x="-15.1592" y="752.034"/>
      <point x="-4.16406" y="721.913"/>
      <point x="-4.16406" y="688.669" type="curve" smooth="yes"/>
      <point x="-4.16406" y="679.112"/>
      <point x="-5.07227" y="669.299"/>
      <point x="-7" y="659.5" type="curve" smooth="yes"/>
      <point x="-11" y="639.167"/>
      <point x="-22.5" y="622.333"/>
      <point x="-41.5" y="609" type="curve" smooth="yes"/>
      <point x="-60.5" y="595.667"/>
      <point x="-75.833" y="587"/>
      <point x="-87.5" y="583" type="curve" smooth="yes"/>
      <point x="-91.2158" y="581.726"/>
      <point x="-94.9434" y="581.14"/>
      <point x="-98.5654" y="581.14" type="curve" smooth="yes"/>
      <point x="-115.78" y="581.14"/>
      <point x="-130.631" y="594.378"/>
      <point x="-130.631" y="609.964" type="curve" smooth="yes"/>
      <point x="-130.631" y="634.904"/>
      <point x="-111.059" y="649.377"/>
      <point x="-93" y="660" type="curve" smooth="yes"/>
      <point x="-80.7715" y="667.193"/>
      <point x="-72.4277" y="679.587"/>
      <point x="-72.4277" y="692.407" type="curve" smooth="yes"/>
      <point x="-72.4277" y="700.316"/>
      <point x="-75.6025" y="708.388"/>
      <point x="-83" y="715.5" type="curve" smooth="yes"/>
      <point x="-88.7021" y="720.982"/>
      <point x="-95.8467" y="723.724"/>
      <point x="-104.434" y="723.724" type="curve" smooth="yes"/>
      <point x="-108.898" y="723.724"/>
      <point x="-113.754" y="722.982"/>
      <point x="-119" y="721.5" type="curve" smooth="yes"/>
      <point x="-160.005" y="709.911"/>
      <point x="-232.849" y="655.237"/>
      <point x="-263" y="626.5" type="curve" smooth="yes"/>
      <point x="-299.232" y="591.966"/>
      <point x="-318.929" y="580"/>
      <point x="-378" y="580" type="curve" smooth="yes"/>
      <point x="-436.611" y="580"/>
      <point x="-466.44" y="609.038"/>
      <point x="-466.44" y="664.044" type="curve" smooth="yes"/>
      <point x="-466.44" y="672.138"/>
      <point x="-465.795" y="680.793"/>
      <point x="-464.5" y="690" type="curve" smooth="yes"/>
      <point x="-458.634" y="731.716"/>
      <point x="-434.081" y="759.41"/>
      <point x="-408" y="780" type="curve" smooth="yes"/>
      <point x="-395.333" y="790"/>
      <point x="-386.833" y="795"/>
    </contour>
  </outline>
</glyph>
<glyph name="uni0306" format="2">
  <advance width="0"/>
  <unicode hex="0306"/>
  <anchor x="-270.133" y="658.569" name="_Stacking"/>
  <anchor x="-284" y="1013" name="Stacking"/>
  <anchor x="-270.133" y="657.569" name="_Diacritic"/>
  <outline>
    <contour>
      <point x="-137" y="809" type="line" smooth="yes"/>
      <point x="-132.878" y="811.748"/>
      <point x="-129.957" y="812.894"/>
      <point x="-127.977" y="812.894" type="curve" smooth="yes"/>
      <point x="-125.46" y="812.894"/>
      <point x="-124.467" y="811.041"/>
      <point x="-124.467" y="808.273" type="curve" smooth="yes"/>
      <point x="-124.467" y="802.312"/>
      <point x="-129.073" y="792.105"/>
      <point x="-133" y="787" type="curve" smooth="yes"/>
      <point x="-156.439" y="755.19"/>
      <point x="-204.72" y="712.815"/>
      <point x="-239" y="691" type="curve" smooth="yes"/>
      <point x="-256.91" y="679.29"/>
      <point x="-291.821" y="660.343"/>
      <point x="-322.536" y="660.343" type="curve" smooth="yes"/>
      <point x="-332.349" y="660.343"/>
      <point x="-341.735" y="662.277"/>
      <point x="-350" y="667" type="curve" smooth="yes"/>
      <point x="-365.213" y="676.26"/>
      <point x="-371.156" y="694.419"/>
      <point x="-371.156" y="714.184" type="curve" smooth="yes"/>
      <point x="-371.156" y="738.064"/>
      <point x="-362.482" y="764.288"/>
      <point x="-351" y="780" type="curve" smooth="yes"/>
      <point x="-339" y="796"/>
      <point x="-325" y="807.333"/>
      <point x="-309" y="814" type="curve" smooth="yes"/>
      <point x="-294.03" y="820.986"/>
      <point x="-290" y="816.746"/>
      <point x="-290" y="804" type="curve" smooth="yes"/>
      <point x="-290" y="800" type="line"/>
      <point x="-288" y="778" type="line"/>
      <point x="-285.341" y="759.384"/>
      <point x="-270.885" y="751.812"/>
      <point x="-251.566" y="751.812" type="curve" smooth="yes"/>
      <point x="-241.962" y="751.812"/>
      <point x="-231.156" y="753.683"/>
      <point x="-220" y="757" type="curve" smooth="yes"/>
      <point x="-212" y="759.667"/>
      <point x="-198.333" y="767.333"/>
      <point x="-179" y="780" type="curve" smooth="yes"/>
    </contour>
  </outline>
</glyph>
<glyph name="uni0307" format="2">
  <advance width="0"/>
  <unicode hex="0307"/>
  <anchor x="-109.133" y="683.569" name="_Stacking"/>
  <anchor x="-113" y="868" name="Stacking"/>
  <anchor x="-109.133" y="683.569" name="_Diacritic"/>
  <outline>
    <contour>
      <point x="-70" y="769" type="curve"/>
      <point x="-75.4707" y="742.736"/>
      <point x="-84.168" y="720.626"/>
      <point x="-84.168" y="692.714" type="curve" smooth="yes"/>
      <point x="-84.168" y="690.514"/>
      <point x="-84.1143" y="688.277"/>
      <point x="-84" y="686" type="curve"/>
      <point x="-104.334" y="686"/>
      <point x="-121.176" y="688.49"/>
      <point x="-140" y="691" type="curve"/>
      <point x="-144.442" y="705.994"/>
      <point x="-147.301" y="722.372"/>
      <point x="-147.301" y="737.751" type="curve" smooth="yes"/>
      <point x="-147.301" y="751.107"/>
      <point x="-145.146" y="763.71"/>
      <point x="-140" y="774" type="curve"/>
      <point x="-119.312" y="773.279"/>
      <point x="-90.4062" y="769"/>
    </contour>
  </outline>
</glyph>
<glyph name="uni0308" format="2">
  <advance width="0"/>
  <unicode hex="0308"/>
  <anchor x="-149.133" y="682.569" name="_Stacking"/>
  <anchor x="-143" y="867" name="Stacking"/>
  <anchor x="-147.133" y="681.569" name="_Diacritic"/>
  <outline>
    <contour>
      <point x="-202" y="743.5" type="curve" smooth="yes"/>
      <point x="-202" y="726.052"/>
      <point x="-199.305" y="706.935"/>
      <point x="-194" y="695" type="curve"/>
      <point x="-196" y="691.667"/>
      <point x="-202.167" y="691.333"/>
      <point x="-212.5" y="694" type="curve" smooth="yes"/>
      <point x="-222.833" y="696.667"/>
      <point x="-239.667" y="700"/>
      <point x="-263" y="704" type="curve"/>
      <point x="-268.531" y="719.211"/>
      <point x="-275.601" y="745.808"/>
      <point x="-278" y="765" type="curve" smooth="yes"/>
      <point x="-278.537" y="769.294"/>
      <point x="-278.957" y="774.191"/>
      <point x="-278.957" y="778.896" type="curve" smooth="yes"/>
      <point x="-278.957" y="789.241"/>
      <point x="-276.923" y="798.65"/>
      <point x="-269.615" y="798.65" type="curve" smooth="yes"/>
      <point x="-268.53" y="798.65"/>
      <point x="-267.328" y="798.442"/>
      <point x="-266" y="798" type="curve"/>
      <point x="-265" y="798" type="line" smooth="yes"/>
      <point x="-244.472" y="798"/>
      <point x="-216.504" y="793"/>
      <point x="-195" y="793" type="curve"/>
      <point x="-198.993" y="779.69"/>
      <point x="-202" y="761"/>
    </contour>
    <contour>
      <point x="-30" y="769" type="curve"/>
      <point x="-35.4717" y="742.735"/>
      <point x="-44.168" y="720.625"/>
      <point x="-44.168" y="692.712" type="curve" smooth="yes"/>
      <point x="-44.168" y="690.512"/>
      <point x="-44.1143" y="688.276"/>
      <point x="-44" y="686" type="curve"/>
      <point x="-64.334" y="686"/>
      <point x="-81.1748" y="688.49"/>
      <point x="-100" y="691" type="curve"/>
      <point x="-104.442" y="705.994"/>
      <point x="-107.301" y="722.372"/>
      <point x="-107.301" y="737.75" type="curve" smooth="yes"/>
      <point x="-107.301" y="751.106"/>
      <point x="-105.146" y="763.71"/>
      <point x="-100" y="774" type="curve"/>
      <point x="-79.3115" y="773.279"/>
      <point x="-50.4062" y="769"/>
    </contour>
  </outline>
</glyph>
<glyph name="uni030B" format="2">
  <advance width="0"/>
  <unicode hex="030B"/>
  <anchor x="-401.133" y="666.569" name="_Stacking"/>
  <anchor x="-365" y="1021" name="Stacking"/>
  <anchor x="-396.133" y="664.569" name="_Diacritic"/>
  <outline>
    <contour>
      <point x="-495.345" y="702" type="curve" smooth="yes"/>
      <point x="-449.345" y="820" type="line" smooth="yes"/>
      <point x="-436.488" y="853.745"/>
      <point x="-422.604" y="886.951"/>
      <point x="-403.345" y="903" type="curve" smooth="yes"/>
      <point x="-394.826" y="910.407"/>
      <point x="-385.793" y="914.111"/>
      <point x="-376.245" y="914.111" type="curve" smooth="yes"/>
      <point x="-368.607" y="914.111"/>
      <point x="-360.641" y="911.741"/>
      <point x="-352.345" y="907" type="curve" smooth="yes"/>
      <point x="-335.293" y="897.256"/>
      <point x="-328.861" y="884.592"/>
      <point x="-328.861" y="870.791" type="curve" smooth="yes"/>
      <point x="-328.861" y="839.412"/>
      <point x="-362.108" y="802.159"/>
      <point x="-379.345" y="780" type="curve" smooth="yes"/>
      <point x="-436.345" y="708" type="line" smooth="yes"/>
      <point x="-446.345" y="696"/>
      <point x="-453.678" y="687"/>
      <point x="-458.345" y="681" type="curve" smooth="yes"/>
      <point x="-462.895" y="675.209"/>
      <point x="-468.722" y="672.756"/>
      <point x="-474.451" y="672.756" type="curve" smooth="yes"/>
      <point x="-485.742" y="672.756"/>
      <point x="-496.653" y="682.286"/>
      <point x="-496.653" y="694.582" type="curve" smooth="yes"/>
      <point x="-496.653" y="696.968"/>
      <point x="-496.242" y="699.456"/>
    </contour>
    <contour>
      <point x="-344.345" y="702" type="curve" smooth="yes"/>
      <point x="-298.345" y="820" type="line" smooth="yes"/>
      <point x="-285.488" y="853.745"/>
      <point x="-271.604" y="886.951"/>
      <point x="-252.345" y="903" type="curve" smooth="yes"/>
      <point x="-243.826" y="910.407"/>
      <point x="-234.793" y="914.111"/>
      <point x="-225.245" y="914.111" type="curve" smooth="yes"/>
      <point x="-217.607" y="914.111"/>
      <point x="-209.641" y="911.741"/>
      <point x="-201.345" y="907" type="curve" smooth="yes"/>
      <point x="-184.293" y="897.256"/>
      <point x="-177.861" y="884.592"/>
      <point x="-177.861" y="870.791" type="curve" smooth="yes"/>
      <point x="-177.861" y="839.412"/>
      <point x="-211.108" y="802.159"/>
      <point x="-228.345" y="780" type="curve" smooth="yes"/>
      <point x="-285.345" y="708" type="line" smooth="yes"/>
      <point x="-295.345" y="696"/>
      <point x="-302.678" y="687"/>
      <point x="-307.345" y="681" type="curve" smooth="yes"/>
      <point x="-311.895" y="675.209"/>
      <point x="-317.722" y="672.756"/>
      <point x="-323.451" y="672.756" type="curve" smooth="yes"/>
      <point x="-334.742" y="672.756"/>
      <point x="-345.653" y="682.286"/>
      <point x="-345.653" y="694.582" type="curve" smooth="yes"/>
      <point x="-345.653" y="696.968"/>
      <point x="-345.242" y="699.456"/>
    </contour>
  </outline>
</glyph>
<glyph name="uni030F" format="2">
  <advance width="0"/>
  <unicode hex="030F"/>
  <anchor x="-281.133" y="664.569" name="_Stacking"/>
  <anchor x="-295" y="1019" name="Stacking"/>
  <anchor x="-281.133" y="664.569" name="_Diacritic"/>
  <outline>
    <contour>
      <point x="-180" y="702" type="line" smooth="yes"/>
      <point x="-179.103" y="699.457"/>
      <point x="-178.692" y="696.969"/>
      <point x="-178.692" y="694.584" type="curve" smooth="yes"/>
      <point x="-178.692" y="682.289"/>
      <point x="-189.6" y="672.751"/>
      <point x="-200.892" y="672.751" type="curve" smooth="yes"/>
      <point x="-206.62" y="672.751"/>
      <point x="-212.447" y="675.206"/>
      <point x="-217" y="681" type="curve" smooth="yes"/>
      <point x="-221.667" y="687"/>
      <point x="-229" y="696"/>
      <point x="-239" y="708" type="curve" smooth="yes"/>
      <point x="-296" y="780" type="line" smooth="yes"/>
      <point x="-314.224" y="803.431"/>
      <point x="-346.56" y="840.027"/>
      <point x="-346.56" y="870.835" type="curve" smooth="yes"/>
      <point x="-346.56" y="884.613"/>
      <point x="-340.092" y="897.233"/>
      <point x="-323" y="907" type="curve" smooth="yes"/>
      <point x="-314.704" y="911.741"/>
      <point x="-306.736" y="914.111"/>
      <point x="-299.099" y="914.111" type="curve" smooth="yes"/>
      <point x="-289.552" y="914.111"/>
      <point x="-280.519" y="910.407"/>
      <point x="-272" y="903" type="curve" smooth="yes"/>
      <point x="-252.83" y="887.025"/>
      <point x="-238.802" y="853.604"/>
      <point x="-226" y="820" type="curve" smooth="yes"/>
    </contour>
    <contour>
      <point x="-331" y="702" type="line" smooth="yes"/>
      <point x="-330.103" y="699.457"/>
      <point x="-329.692" y="696.969"/>
      <point x="-329.692" y="694.584" type="curve" smooth="yes"/>
      <point x="-329.692" y="682.289"/>
      <point x="-340.6" y="672.751"/>
      <point x="-351.892" y="672.751" type="curve" smooth="yes"/>
      <point x="-357.62" y="672.751"/>
      <point x="-363.447" y="675.206"/>
      <point x="-368" y="681" type="curve" smooth="yes"/>
      <point x="-372.667" y="687"/>
      <point x="-380" y="696"/>
      <point x="-390" y="708" type="curve" smooth="yes"/>
      <point x="-447" y="780" type="line" smooth="yes"/>
      <point x="-465.224" y="803.431"/>
      <point x="-497.56" y="840.027"/>
      <point x="-497.56" y="870.835" type="curve" smooth="yes"/>
      <point x="-497.56" y="884.613"/>
      <point x="-491.092" y="897.233"/>
      <point x="-474" y="907" type="curve" smooth="yes"/>
      <point x="-465.704" y="911.741"/>
      <point x="-457.736" y="914.111"/>
      <point x="-450.099" y="914.111" type="curve" smooth="yes"/>
      <point x="-440.552" y="914.111"/>
      <point x="-431.519" y="910.407"/>
      <point x="-423" y="903" type="curve" smooth="yes"/>
      <point x="-403.83" y="887.025"/>
      <point x="-389.802" y="853.604"/>
      <point x="-377" y="820" type="curve" smooth="yes"/>
    </contour>
  </outline>
</glyph>
<glyph name="uni0311" format="2">
  <advance width="0"/>
  <unicode hex="0311"/>
  <anchor x="-101.133" y="664.569" name="_Stacking"/>
  <anchor x="-115" y="1019" name="Stacking"/>
  <anchor x="-101.133" y="664.569" name="_Diacritic"/>
  <outline>
    <contour>
      <point x="74.5" y="654" type="curve" smooth="yes"/>
      <point x="67.5" y="654"/>
      <point x="58.833" y="660.833"/>
      <point x="48.5" y="674.5" type="curve" smooth="yes"/>
      <point x="27.3643" y="702.454"/>
      <point x="-2.38477" y="741.872"/>
      <point x="-38" y="756.5" type="curve" smooth="yes"/>
      <point x="-56.667" y="764.167"/>
      <point x="-78.333" y="768"/>
      <point x="-103" y="768" type="curve" smooth="yes"/>
      <point x="-180.696" y="768"/>
      <point x="-219.335" y="716.481"/>
      <point x="-253.5" y="673.5" type="curve" smooth="yes"/>
      <point x="-263.833" y="660.5"/>
      <point x="-272.333" y="654"/>
      <point x="-279" y="654" type="curve" smooth="yes"/>
      <point x="-282.81" y="654"/>
      <point x="-284.714" y="659.388"/>
      <point x="-284.714" y="670.163" type="curve" smooth="yes"/>
      <point x="-284.714" y="678.245"/>
      <point x="-283.643" y="689.357"/>
      <point x="-281.5" y="703.5" type="curve" smooth="yes"/>
      <point x="-276.5" y="736.5"/>
      <point x="-256.333" y="767.667"/>
      <point x="-221" y="797" type="curve" smooth="yes"/>
      <point x="-185.667" y="826.333"/>
      <point x="-145" y="841"/>
      <point x="-99" y="841" type="curve" smooth="yes"/>
      <point x="-11.2949" y="841"/>
      <point x="68.375" y="785.812"/>
      <point x="78" y="709.5" type="curve" smooth="yes"/>
      <point x="79.8662" y="694.7"/>
      <point x="80.7998" y="682.86"/>
      <point x="80.7998" y="673.98" type="curve" smooth="yes"/>
      <point x="80.7998" y="660.66"/>
      <point x="78.7002" y="654"/>
    </contour>
  </outline>
</glyph>
<glyph name="uni033E" format="2">
  <advance width="0"/>
  <unicode hex="033E"/>
  <anchor x="-51.1328" y="541.569" name="_Stacking"/>
  <anchor x="-35" y="896" name="Stacking"/>
  <anchor x="-48.9609" y="542.311" name="_Yerok"/>
  <outline>
    <contour>
      <point x="13" y="717" type="curve" smooth="yes"/>
      <point x="11" y="715"/>
      <point x="10.5" y="712.667"/>
      <point x="11.5" y="710" type="curve" smooth="yes"/>
      <point x="14.1816" y="702.849"/>
      <point x="53.665" y="657.688"/>
      <point x="58.5" y="652" type="curve" smooth="yes"/>
      <point x="65.0967" y="644.239"/>
      <point x="68.3613" y="639.728"/>
      <point x="68.3613" y="635.451" type="curve" smooth="yes"/>
      <point x="68.3613" y="630.343"/>
      <point x="63.7021" y="625.571"/>
      <point x="54.5" y="616" type="curve" smooth="yes"/>
      <point x="37.1641" y="597.97"/>
      <point x="6.28516" y="571.373"/>
      <point x="-15" y="556" type="curve" smooth="yes"/>
      <point x="-23.5654" y="549.813"/>
      <point x="-37.5859" y="541.312"/>
      <point x="-47.9609" y="541.312" type="curve" smooth="yes"/>
      <point x="-53.4336" y="541.312"/>
      <point x="-57.8926" y="543.678"/>
      <point x="-60" y="550" type="curve" smooth="yes"/>
      <point x="-62" y="556"/>
      <point x="-62.5" y="560.5"/>
      <point x="-61.5" y="563.5" type="curve" smooth="yes"/>
      <point x="-60.5" y="566.5"/>
      <point x="-52.5" y="573.667"/>
      <point x="-37.5" y="585" type="curve" smooth="yes"/>
      <point x="-22.5" y="596.333"/>
      <point x="-14.333" y="603.167"/>
      <point x="-13" y="605.5" type="curve" smooth="yes"/>
      <point x="-11.667" y="607.833"/>
      <point x="-11.5" y="610"/>
      <point x="-12.5" y="612" type="curve" smooth="yes"/>
      <point x="-15.4111" y="617.823"/>
      <point x="-87.9541" y="664.319"/>
      <point x="-92.5" y="672.5" type="curve" smooth="yes"/>
      <point x="-94.167" y="675.5"/>
      <point x="-93.333" y="679.167"/>
      <point x="-90" y="683.5" type="curve" smooth="yes"/>
      <point x="-67.9248" y="712.199"/>
      <point x="-28.5303" y="745.631"/>
      <point x="1.5" y="769.5" type="curve" smooth="yes"/>
      <point x="14.5" y="779.833"/>
      <point x="24.833" y="786.5"/>
      <point x="32.5" y="789.5" type="curve" smooth="yes"/>
      <point x="35.0225" y="790.487"/>
      <point x="38.0439" y="790.939"/>
      <point x="41.2637" y="790.939" type="curve" smooth="yes"/>
      <point x="54.1523" y="790.939"/>
      <point x="70.2227" y="783.684"/>
      <point x="70.2227" y="774.396" type="curve" smooth="yes"/>
      <point x="70.2227" y="754.097"/>
      <point x="25.0449" y="729.045"/>
    </contour>
  </outline>
</glyph>
<glyph name="uni0360" format="2">
  <advance width="0"/>
  <unicode hex="0360"/>
  <anchor x="-358.133" y="647.569" name="_Stacking"/>
  <anchor x="-372" y="1002" name="Stacking"/>
  <anchor x="-537.133" y="649.569" name="_Diacritic"/>
  <outline>
    <contour>
      <point x="-469" y="733" type="curve"/>
      <point x="-461.207" y="733.473"/>
      <point x="-453.569" y="733.69"/>
      <point x="-446.064" y="733.69" type="curve" smooth="yes"/>
      <point x="-364.83" y="733.69"/>
      <point x="-299.188" y="708.146"/>
      <point x="-222" y="703" type="curve"/>
      <point x="-188.618" y="705.385"/>
      <point x="-177.212" y="708.546"/>
      <point x="-156" y="716.5" type="curve" smooth="yes"/>
      <point x="-153.333" y="717.5"/>
      <point x="-147.333" y="718"/>
      <point x="-138" y="718" type="curve" smooth="yes"/>
      <point x="-108.722" y="713.233"/>
      <point x="-91.5928" y="708.577"/>
      <point x="-91.5928" y="698.974" type="curve" smooth="yes"/>
      <point x="-91.5928" y="683.487"/>
      <point x="-139.358" y="677.968"/>
      <point x="-161" y="676" type="curve" smooth="yes"/>
      <point x="-168.447" y="675.323"/>
      <point x="-175.46" y="675.02"/>
      <point x="-182.16" y="675.02" type="curve" smooth="yes"/>
      <point x="-214.946" y="675.02"/>
      <point x="-240.258" y="682.277"/>
      <point x="-272.5" y="688.5" type="curve" smooth="yes"/>
      <point x="-310.407" y="695.815"/>
      <point x="-353.386" y="702.739"/>
      <point x="-393.5" y="708" type="curve" smooth="yes"/>
      <point x="-413.833" y="710.667"/>
      <point x="-432.333" y="712"/>
      <point x="-449" y="712" type="curve" smooth="yes"/>
      <point x="-474.584" y="712"/>
      <point x="-505.177" y="709.686"/>
      <point x="-510" y="692" type="curve"/>
      <point x="-507" y="685" type="line"/>
      <point x="-502.057" y="681.292"/>
      <point x="-497.878" y="671.245"/>
      <point x="-502" y="663" type="curve" smooth="yes"/>
      <point x="-506.727" y="653.547"/>
      <point x="-521.577" y="649.174"/>
      <point x="-537.693" y="649.174" type="curve" smooth="yes"/>
      <point x="-561.857" y="649.174"/>
      <point x="-588.866" y="659.004"/>
      <point x="-588.866" y="676.284" type="curve" smooth="yes"/>
      <point x="-588.866" y="683.085"/>
      <point x="-584.684" y="691.038"/>
      <point x="-574.5" y="700" type="curve" smooth="yes"/>
      <point x="-557.69" y="714.792"/>
      <point x="-533.046" y="725.64"/>
      <point x="-507" y="731.5" type="curve" smooth="yes"/>
      <point x="-499" y="733.3"/>
      <point x="-491.24" y="734.2"/>
      <point x="-483.72" y="734.2" type="curve" smooth="yes"/>
      <point x="-478.707" y="734.2"/>
      <point x="-473.8" y="733.8"/>
    </contour>
  </outline>
</glyph>
<glyph name="uni0361" format="2">
  <advance width="0"/>
  <unicode hex="0361"/>
  <anchor x="-371.133" y="594.569" name="_Stacking"/>
  <anchor x="-375" y="949" name="Stacking"/>
  <anchor x="-651.133" y="593.569" name="_Diacritic"/>
  <outline>
    <contour>
      <point x="-15.5" y="717" type="curve" smooth="yes"/>
      <point x="-30.4619" y="703.586"/>
      <point x="-57.5479" y="660.085"/>
      <point x="-64.5" y="640" type="curve" smooth="yes"/>
      <point x="-67.5" y="631.333"/>
      <point x="-69.833" y="621.167"/>
      <point x="-71.5" y="609.5" type="curve" smooth="yes"/>
      <point x="-73.167" y="597.833"/>
      <point x="-75.833" y="596.167"/>
      <point x="-79.5" y="604.5" type="curve" smooth="yes"/>
      <point x="-86.1064" y="619.514"/>
      <point x="-97.0977" y="635.587"/>
      <point x="-100" y="653" type="curve" smooth="yes"/>
      <point x="-102.773" y="669.642"/>
      <point x="-106.903" y="697.824"/>
      <point x="-107.5" y="717.5" type="curve" smooth="yes"/>
      <point x="-108.069" y="736.281"/>
      <point x="-106.614" y="739.401"/>
      <point x="-121" y="741" type="curve"/>
      <point x="-599" y="741" type="line"/>
      <point x="-614.21" y="739.479"/>
      <point x="-612.712" y="736.781"/>
      <point x="-614.5" y="719.5" type="curve" smooth="yes"/>
      <point x="-618.249" y="683.264"/>
      <point x="-633.214" y="629.775"/>
      <point x="-647.5" y="604.5" type="curve" smooth="yes"/>
      <point x="-651.833" y="596.833"/>
      <point x="-655" y="596.833"/>
      <point x="-657" y="604.5" type="curve" smooth="yes"/>
      <point x="-666.439" y="640.687"/>
      <point x="-691.164" y="693.141"/>
      <point x="-719" y="717" type="curve" smooth="yes"/>
      <point x="-733" y="729"/>
      <point x="-741" y="737"/>
      <point x="-743" y="741" type="curve" smooth="yes"/>
      <point x="-744.365" y="743.73"/>
      <point x="-744.998" y="745.978"/>
      <point x="-744.998" y="747.834" type="curve" smooth="yes"/>
      <point x="-744.998" y="755.283"/>
      <point x="-734.824" y="756.463"/>
      <point x="-721" y="757.5" type="curve" smooth="yes"/>
      <point x="-696.359" y="759.348"/>
      <point x="-344.972" y="760.234"/>
      <point x="-169.828" y="760.234" type="curve" smooth="yes"/>
      <point x="-117.603" y="760.234"/>
      <point x="-81.0479" y="760.155"/>
      <point x="-73.5" y="760" type="curve" smooth="yes"/>
      <point x="-41.167" y="759.333"/>
      <point x="-20.5" y="758.5"/>
      <point x="-11.5" y="757.5" type="curve" smooth="yes"/>
      <point x="-0.592773" y="756.288"/>
      <point x="5.59961" y="754.105"/>
      <point x="5.59961" y="747.61" type="curve" smooth="yes"/>
      <point x="5.59961" y="745.216"/>
      <point x="4.75781" y="742.234"/>
      <point x="3" y="738.5" type="curve" smooth="yes"/>
      <point x="0.333008" y="732.833"/>
      <point x="-5.83301" y="725.667"/>
    </contour>
  </outline>
</glyph>
<glyph name="uni0402" format="2">
  <advance width="777"/>
  <unicode hex="0402"/>
  <anchor x="342.868" y="804.57" name="Diacritic"/>
  <anchor x="623.868" y="804.57" name="Yerok"/>
  <outline>
    <contour>
      <point x="400" y="701" type="line"/>
      <point x="391" y="700"/>
      <point x="383" y="700"/>
      <point x="375" y="700" type="curve" smooth="yes"/>
      <point x="349" y="700" type="line"/>
      <point x="316" y="698" type="line"/>
      <point x="272" y="690" type="line"/>
      <point x="279" y="679"/>
      <point x="279" y="655"/>
      <point x="279" y="636" type="curve" smooth="yes"/>
      <point x="279" y="634"/>
      <point x="279" y="632"/>
      <point x="279" y="630" type="curve" smooth="yes"/>
      <point x="279" y="621"/>
      <point x="279" y="613"/>
      <point x="280" y="605" type="curve"/>
      <point x="319" y="604"/>
      <point x="337" y="603"/>
      <point x="377" y="603" type="curve"/>
      <point x="381" y="632"/>
      <point x="379" y="669"/>
      <point x="394" y="686" type="curve" smooth="yes"/>
      <point x="406" y="700" type="line"/>
    </contour>
    <contour>
      <point x="261" y="-91" type="curve" smooth="yes"/>
      <point x="291" y="-91"/>
      <point x="326" y="-89"/>
      <point x="356" y="-89" type="curve" smooth="yes"/>
      <point x="370" y="-88"/>
      <point x="372" y="-82"/>
      <point x="367" y="-70" type="curve" smooth="yes"/>
      <point x="360" y="-53" type="line"/>
      <point x="356" y="-31" type="line"/>
      <point x="349" y="31"/>
      <point x="347" y="96"/>
      <point x="347" y="161" type="curve" smooth="yes"/>
      <point x="347" y="306"/>
      <point x="360" y="454"/>
      <point x="371" y="584" type="curve"/>
      <point x="322" y="586" type="line" smooth="yes"/>
      <point x="307" y="587"/>
      <point x="298" y="588"/>
      <point x="282" y="588" type="curve"/>
      <point x="279" y="361"/>
      <point x="265" y="151"/>
      <point x="257" y="-69" type="curve"/>
      <point x="239" y="-89" type="line"/>
      <point x="244" y="-90"/>
      <point x="252" y="-91"/>
    </contour>
    <contour>
      <point x="416" y="584" type="curve"/>
      <point x="409" y="506"/>
      <point x="402" y="428"/>
      <point x="402" y="346" type="curve" smooth="yes"/>
      <point x="402" y="339"/>
      <point x="402" y="332"/>
      <point x="402" y="325" type="curve" smooth="yes"/>
      <point x="402" y="313"/>
      <point x="398" y="296"/>
      <point x="398" y="282" type="curve" smooth="yes"/>
      <point x="398" y="274"/>
      <point x="399" y="268"/>
      <point x="404" y="264" type="curve" smooth="yes"/>
      <point x="407" y="262"/>
      <point x="414" y="261"/>
      <point x="424" y="261" type="curve" smooth="yes"/>
      <point x="430" y="261"/>
      <point x="436" y="261"/>
      <point x="442" y="261" type="curve" smooth="yes"/>
      <point x="624" y="261"/>
      <point x="709" y="140"/>
      <point x="712" y="-45" type="curve"/>
      <point x="700" y="-176"/>
      <point x="660" y="-303"/>
      <point x="616" y="-398" type="curve" smooth="yes"/>
      <point x="596" y="-442"/>
      <point x="577" y="-477"/>
      <point x="559" y="-502" type="curve" smooth="yes"/>
      <point x="541" y="-527"/>
      <point x="528" y="-540"/>
      <point x="521" y="-540" type="curve" smooth="yes"/>
      <point x="508" y="-540" type="line"/>
      <point x="501" y="-530" type="line" smooth="yes"/>
      <point x="500.75" y="-529.75"/>
      <point x="500.625" y="-528.75"/>
      <point x="500.625" y="-527.016" type="curve" smooth="yes"/>
      <point x="500.625" y="-521.812"/>
      <point x="501.75" y="-510"/>
      <point x="504" y="-492" type="curve" smooth="yes"/>
      <point x="516" y="-381"/>
      <point x="534" y="-248"/>
      <point x="544" y="-128" type="curve" smooth="yes"/>
      <point x="547" y="-99"/>
      <point x="548" y="-69"/>
      <point x="548" y="-36" type="curve" smooth="yes"/>
      <point x="548" y="-29"/>
      <point x="548" y="-22"/>
      <point x="548" y="-14" type="curve" smooth="yes"/>
      <point x="548" y="35"/>
      <point x="547" y="84"/>
      <point x="537" y="125" type="curve" smooth="yes"/>
      <point x="526" y="168"/>
      <point x="506" y="203"/>
      <point x="473" y="224" type="curve" smooth="yes"/>
      <point x="456" y="236"/>
      <point x="436" y="241"/>
      <point x="413" y="241" type="curve" smooth="yes"/>
      <point x="392" y="241" type="line"/>
      <point x="391" y="229"/>
      <point x="391" y="218"/>
      <point x="391" y="207" type="curve" smooth="yes"/>
      <point x="391" y="130"/>
      <point x="402" y="59"/>
      <point x="403" y="-18" type="curve"/>
      <point x="408" y="-40"/>
      <point x="404" y="-68"/>
      <point x="419" y="-81" type="curve" smooth="yes"/>
      <point x="419" y="-82"/>
      <point x="437" y="-87"/>
      <point x="440" y="-88" type="curve" smooth="yes"/>
      <point x="450" y="-93"/>
      <point x="454" y="-99"/>
      <point x="444" y="-110" type="curve"/>
      <point x="408" y="-110" type="line" smooth="yes"/>
      <point x="384" y="-109"/>
      <point x="363" y="-109"/>
      <point x="345" y="-109" type="curve" smooth="yes"/>
      <point x="287" y="-109"/>
      <point x="243" y="-111"/>
      <point x="185" y="-113" type="curve" smooth="yes"/>
      <point x="174" y="-113"/>
      <point x="159" y="-108"/>
      <point x="159" y="-101" type="curve" smooth="yes"/>
      <point x="159" y="-98"/>
      <point x="161" y="-95"/>
      <point x="168" y="-92" type="curve" smooth="yes"/>
      <point x="189" y="-85"/>
      <point x="210" y="-75"/>
      <point x="210" y="-48" type="curve" smooth="yes"/>
      <point x="210" y="-44"/>
      <point x="210" y="-40"/>
      <point x="209" y="-35" type="curve"/>
      <point x="214" y="178"/>
      <point x="232" y="374"/>
      <point x="235" y="588" type="curve"/>
      <point x="219" y="588"/>
      <point x="204" y="584"/>
      <point x="189" y="584" type="curve"/>
      <point x="176" y="579"/>
      <point x="173" y="555"/>
      <point x="170" y="538" type="curve" smooth="yes"/>
      <point x="167" y="516"/>
      <point x="167" y="434"/>
      <point x="144" y="434" type="curve" smooth="yes"/>
      <point x="144" y="434"/>
      <point x="143" y="434"/>
      <point x="142" y="434" type="curve"/>
      <point x="141" y="432"/>
      <point x="140" y="432"/>
      <point x="138" y="432" type="curve" smooth="yes"/>
      <point x="127" y="432"/>
      <point x="102" y="469"/>
      <point x="96" y="477" type="curve" smooth="yes"/>
      <point x="83" y="497"/>
      <point x="64" y="529"/>
      <point x="55" y="547" type="curve"/>
      <point x="40" y="566"/>
      <point x="31" y="579"/>
      <point x="26" y="588" type="curve" smooth="yes"/>
      <point x="21" y="596"/>
      <point x="22" y="603"/>
      <point x="29" y="610" type="curve"/>
      <point x="237" y="605" type="line"/>
      <point x="237" y="633"/>
      <point x="233" y="664"/>
      <point x="230" y="690" type="curve"/>
      <point x="219" y="691"/>
      <point x="200" y="695"/>
      <point x="200" y="703" type="curve" smooth="yes"/>
      <point x="200" y="705"/>
      <point x="200" y="707"/>
      <point x="202" y="708" type="curve" smooth="yes"/>
      <point x="211" y="719"/>
      <point x="238" y="722"/>
      <point x="265" y="722" type="curve" smooth="yes"/>
      <point x="289" y="722"/>
      <point x="313" y="719"/>
      <point x="328" y="718" type="curve" smooth="yes"/>
      <point x="354" y="717"/>
      <point x="373" y="716"/>
      <point x="398" y="716" type="curve" smooth="yes"/>
      <point x="409" y="716"/>
      <point x="422" y="717"/>
      <point x="439" y="718" type="curve" smooth="yes"/>
      <point x="447" y="721"/>
      <point x="450" y="708"/>
      <point x="450" y="700" type="curve" smooth="yes"/>
      <point x="450" y="689"/>
      <point x="446" y="678"/>
      <point x="436" y="676" type="curve"/>
      <point x="426" y="659"/>
      <point x="419" y="626"/>
      <point x="416" y="602" type="curve"/>
      <point x="528" y="602"/>
      <point x="640" y="599"/>
      <point x="744" y="589" type="curve" smooth="yes"/>
      <point x="755" y="589"/>
      <point x="758" y="585"/>
      <point x="758" y="579" type="curve" smooth="yes"/>
      <point x="758" y="570"/>
      <point x="751" y="558"/>
      <point x="746" y="551" type="curve"/>
      <point x="714" y="528"/>
      <point x="696" y="513"/>
      <point x="676" y="482" type="curve" smooth="yes"/>
      <point x="672" y="474"/>
      <point x="664" y="464"/>
      <point x="654" y="451" type="curve" smooth="yes"/>
      <point x="648" y="443"/>
      <point x="636" y="438"/>
      <point x="626" y="438" type="curve" smooth="yes"/>
      <point x="617" y="438"/>
      <point x="609" y="441"/>
      <point x="605" y="450" type="curve"/>
      <point x="608" y="448"/>
      <point x="610" y="448"/>
      <point x="610" y="452" type="curve" smooth="yes"/>
      <point x="610" y="460"/>
      <point x="603" y="477"/>
      <point x="598" y="482" type="curve" smooth="yes"/>
      <point x="579" y="522"/>
      <point x="550" y="542"/>
      <point x="531" y="581" type="curve"/>
      <point x="491" y="581"/>
      <point x="455" y="584"/>
    </contour>
    <contour>
      <point x="537" y="214" type="line"/>
      <point x="575" y="154"/>
      <point x="592" y="65"/>
      <point x="592" y="-30" type="curve" smooth="yes"/>
      <point x="592" y="-47"/>
      <point x="591" y="-65"/>
      <point x="590" y="-82" type="curve"/>
      <point x="591" y="-90"/>
      <point x="592" y="-100"/>
      <point x="592" y="-110" type="curve" smooth="yes"/>
      <point x="592" y="-137"/>
      <point x="588" y="-169"/>
      <point x="585" y="-196" type="curve" smooth="yes"/>
      <point x="578" y="-265"/>
      <point x="567" y="-346"/>
      <point x="559" y="-412" type="curve" smooth="yes"/>
      <point x="557" y="-428"/>
      <point x="556" y="-437"/>
      <point x="556" y="-439" type="curve"/>
      <point x="600" y="-387"/>
      <point x="630" y="-291"/>
      <point x="647" y="-207" type="curve" smooth="yes"/>
      <point x="658" y="-152"/>
      <point x="667" y="-86"/>
      <point x="667" y="-23" type="curve" smooth="yes"/>
      <point x="667" y="53"/>
      <point x="654" y="125"/>
      <point x="616" y="167" type="curve" smooth="yes"/>
      <point x="592" y="193"/>
      <point x="563" y="213"/>
      <point x="529" y="226" type="curve"/>
    </contour>
    <contour>
      <point x="66" y="595" type="line"/>
      <point x="83" y="565"/>
      <point x="107" y="548"/>
      <point x="127" y="520" type="curve" smooth="yes"/>
      <point x="134" y="511"/>
      <point x="140" y="499"/>
      <point x="145" y="484" type="curve"/>
      <point x="148" y="515"/>
      <point x="150" y="541"/>
      <point x="150" y="561" type="curve" smooth="yes"/>
      <point x="152" y="581"/>
      <point x="156" y="591"/>
      <point x="163" y="591" type="curve" smooth="yes"/>
    </contour>
    <contour>
      <point x="573" y="582" type="line"/>
      <point x="592" y="546"/>
      <point x="614" y="521"/>
      <point x="633" y="484" type="curve"/>
      <point x="650" y="528"/>
      <point x="684" y="542"/>
      <point x="712" y="575" type="curve"/>
    </contour>
  </outline>
</glyph>
